<?xml version="1.0" encoding="utf-8"?>
<!-- Generator: Adobe Illustrator 21.1.0, SVG Export Plug-In . SVG Version: 6.00 Build 0)  -->
<svg version="1.1" xmlns="http://www.w3.org/2000/svg" xmlns:xlink="http://www.w3.org/1999/xlink" x="0px" y="0px"
	 viewBox="0 0 1080 807" style="enable-background:new 0 0 1080 807;" xml:space="preserve">
<style type="text/css">
	.st0{display:none;}
	.st1{display:inline;opacity:0.1;fill:#FFFFFF;}
	.st2{display:inline;opacity:0.71;}
	.st3{opacity:0.71;}
	.st4{display:inline;}
	.st5{display:inline;fill:#FFFFFF;}
	.st6{display:inline;fill:#EFD932;}
	.st7{fill:none;stroke:#000000;stroke-miterlimit:10;}
	.st8{clip-path:url(#SVGID_10_);fill:none;stroke:#000000;stroke-miterlimit:10;}
	.st9{fill:none;}
	.st10{font-family:'Roboto-Regular';}
	.st11{font-size:32px;}
	.st12{font-size:15px;}
	.st13{fill:#8E8E8E;}
	.st14{font-size:17.0105px;}
	.st15{font-size:25px;}
	.st16{fill:#FF0000;}
	.st17{fill:#FFFFFF;}
	.st18{font-size:12.9726px;}
	.st19{fill:#FFE400;}
	.st20{opacity:0.78;}
	.st21{opacity:0.9;}
	.st22{fill:#000100;}
	.st23{stroke:#000000;stroke-miterlimit:10;}
	.st24{fill-rule:evenodd;clip-rule:evenodd;}
	.st25{fill-rule:evenodd;clip-rule:evenodd;fill:none;}
	.st26{font-size:13px;}
	.st27{font-size:10.3765px;}
	.st28{font-size:14px;}
	.st29{font-size:12px;}
	.st30{fill:none;stroke:#FF0000;stroke-width:3;stroke-miterlimit:10;}
</style>
<g id="Camada_1" class="st0">
</g>
<g id="Camada_4">
</g>
<g id="Camada_3">
</g>
<g id="Camada_5">
	<rect x="359" y="162" class="st7" width="358" height="358"/>
	<text transform="matrix(1 0 0 1 763.2003 190.3844)" class="st10 st11">ALIEN</text>
	<g>
		<text transform="matrix(1 0 0 1 763.2003 281.7178)" class="st10 st12">Tamanho</text>
	</g>
	<g>
		<text transform="matrix(1 0 0 1 777.8663 315.8836)" class="st13 st10 st14">Selecionar</text>
	</g>
	<text transform="matrix(1 0 0 1 761.5337 220.7223)" class="st13 st10 st15">r$: 70,00</text>
	<rect x="763.6" y="292.7" class="st7" width="175" height="34.3"/>
	<rect x="763.6" y="352.7" class="st16" width="175" height="38.3"/>
	<g>
		<text transform="matrix(1 0 0 1 774.0254 375.6247)" class="st17 st10 st18">adicionar ao carrinho</text>
	</g>
	<rect x="440" y="532.7" class="st7" width="49" height="49"/>
	<rect x="513.5" y="532.7" class="st7" width="49" height="49"/>
	<rect x="587" y="532.7" class="st7" width="49" height="49"/>
</g>
<g id="Molde_Principal">
	<text transform="matrix(1 0 0 1 513.5134 340.9995)" class="st10 st26">FOTO9</text>
	<text transform="matrix(1 0 0 1 446.0137 564.8992)" class="st10 st27">FOTO10</text>
	<text transform="matrix(1 0 0 1 518.347 564.8992)" class="st10 st27">FOTO11</text>
	<text transform="matrix(1 0 0 1 593.6804 564.8992)" class="st10 st27">FOTO12</text>
	<text transform="matrix(1 0 0 1 473.583 80.2497)" class="st10 st28">SOBRE</text>
	<text transform="matrix(1 0 0 1 604.2496 80.2497)" class="st10 st28">CONTATO</text>
	<text transform="matrix(1 0 0 1 747.9164 80.2497)" class="st10 st28">CARRINHO</text>
	<text transform="matrix(1 0 0 1 383.2196 735.8936)" class="st10 st26">newsletter</text>
	<text transform="matrix(1 0 0 1 416.051 784.8936)" class="st10 st29">©2017 Yonkers. Todos os direitos reservados.</text>
	<line class="st7" x1="160.3" y1="671.5" x2="921" y2="671.5"/>
	<line class="st23" x1="558.1" y1="69.9" x2="558.1" y2="80.9"/>
	<line class="st23" x1="710.6" y1="69.9" x2="710.6" y2="80.9"/>
	<rect x="473.6" y="712" class="st7" width="144" height="34.3"/>
	<polygon points="628.4,711.5 628.4,746.8 695.1,746.8 695.1,746.3 695.1,711.5 	"/>
	<text transform="matrix(1 0 0 1 639.3209 732.966)" class="st17 st10 st26">enviar</text>
	<g>
		<text transform="matrix(1 0 0 1 162.8392 231.5002)" class="st16 st10 st29">- Camisetas</text>
		<text transform="matrix(1 0 0 1 162.8392 253.5002)" class="st10 st29">- quadros</text>
		<text transform="matrix(1 0 0 1 160.333 318.9666)" class="st10 st26">o que é yonkers</text>
		<g>
			<text transform="matrix(1 0 0 1 160.333 277.7998)" class="st10 st26">loja</text>
		</g>
		<g class="st21">
			<text transform="matrix(1 0 0 1 160.3331 182.1666)" class="st10 st26">INÍCIO</text>
		</g>
		<text transform="matrix(1 0 0 1 160.333 344.9666)" class="st10 st26">art gallery</text>
		<text transform="matrix(1 0 0 1 160.333 386.4666)" class="st10 st26">season 1</text>
		<g>
			<text transform="matrix(1 0 0 1 160.333 408.4665)" class="st10 st26">season 2</text>
		</g>
		<line class="st7" x1="160.3" y1="295" x2="230.8" y2="295"/>
		<line class="st7" x1="160.3" y1="358.5" x2="230.8" y2="358.5"/>
		<line class="st7" x1="160.3" y1="421.5" x2="230.8" y2="421.5"/>
		<line class="st7" x1="160.3" y1="205.7" x2="230.8" y2="205.7"/>
		<g>
			<g>
				<path d="M181.3,439.5c0,6.8,0,13.5,0,20.3c-0.3,0.8-0.9,1.1-1.8,1.1c-1.5,0-3.1,0-4.6,0c-0.2,0-0.3,0-0.5,0c0-2.9,0-5.7,0-8.6
					c0.8,0,1.7,0,2.5,0c0.2,0,0.4,0,0.4-0.3c0.1-0.9,0.2-1.9,0.4-2.8c0-0.3-0.1-0.4-0.3-0.4c-0.8,0-1.6,0-2.4,0c-0.2,0-0.4,0-0.6,0
					c0-0.9,0-1.7,0-2.5c0-0.8,0.4-1.2,1.2-1.2c0.6,0,1.2,0,1.8,0c0.3,0,0.4-0.1,0.4-0.4c0-0.8,0-1.6,0-2.4c0-0.3-0.1-0.4-0.4-0.4
					c-0.9,0-1.9-0.1-2.8-0.1c-1.9,0.1-3.4,1.3-3.7,3.1c-0.2,1-0.1,2-0.2,3c0,0.2,0,0.5,0,0.7c-0.9,0-1.7,0-2.5,0
					c-0.3,0-0.5,0.1-0.4,0.4c0,0.7,0,1.4,0,2.1c0,1,0,1,1,1c0.6,0,1.3,0,1.9,0c0,2.9,0,5.7,0,8.6c-0.2,0-0.4,0-0.6,0
					c-3.2,0-6.3,0-9.5,0c-0.9,0-1.5-0.2-1.8-1.1c0-6.8,0-13.5,0-20.3c0.2-0.5,0.6-0.9,1.1-1.1c6.8,0,13.5,0,20.3,0
					C180.7,438.6,181.1,439,181.3,439.5z"/>
				<path class="st17" d="M159.9,438.4c-0.5,0.2-0.9,0.6-1.1,1.1c0-0.4,0-0.7,0-1.1C159.2,438.4,159.6,438.4,159.9,438.4z"/>
				<path class="st17" d="M181.3,439.5c-0.2-0.5-0.6-0.9-1.1-1.1c0.4,0,0.7,0,1.1,0C181.3,438.8,181.3,439.1,181.3,439.5z"/>
			</g>
			<g>
				<path d="M202.8,460.8c-1.5,0-3,0-4.5,0c-3.4,0.1-6.4-2.4-6.7-6c0-0.2,0-0.5,0-0.7c0-3,0-6,0-9c0-3.5,2.5-6.3,6-6.7
					c0.2,0,0.5,0,0.7,0c3,0,6.1,0,9.1,0c3.5,0,6.3,2.5,6.7,6c0,0.2,0,0.4,0,0.7c0,3,0,6.1,0,9.1c0,3.5-2.6,6.3-6,6.6
					c-1,0.1-2,0-2.9,0C204.4,460.8,203.6,460.8,202.8,460.8z M202.8,458.8c1.5,0,3,0,4.4,0c0.4,0,0.7,0,1.1-0.1
					c2.2-0.5,3.7-2.3,3.7-4.6c0-3,0-6,0-9c0-0.3,0-0.7-0.1-1c-0.5-2.2-2.3-3.7-4.6-3.7c-3,0-6,0-9,0c-0.3,0-0.7,0-1,0.1
					c-2.2,0.5-3.7,2.3-3.7,4.6c0,3,0,6,0,9c0,0.3,0,0.7,0.1,1c0.5,2.2,2.3,3.7,4.6,3.7C199.8,458.8,201.3,458.8,202.8,458.8z"/>
				<path d="M202.8,455.7c-3.4,0-6.1-2.8-6.1-6.1c0-3.4,2.8-6.1,6.2-6.1c3.4,0,6.1,2.8,6.1,6.2C209,453,206.2,455.7,202.8,455.7z
					 M206.9,449.6c0-2.2-1.8-4.1-4.1-4.1c-2.2,0-4.1,1.8-4.1,4.1c0,2.3,1.8,4.1,4.1,4.1C205.1,453.7,206.9,451.8,206.9,449.6z"/>
				<path d="M209.8,443.5c0,0.5-0.4,0.9-0.9,0.9c-0.5,0-0.9-0.4-0.9-0.9c0-0.5,0.4-0.9,0.9-0.9C209.4,442.6,209.8,443,209.8,443.5z"
					/>
			</g>
		</g>
		<g>
			<path class="st24" d="M200.9,42.1c22.4,0,40.9,18.2,40.8,41c-0.1,22.7-18.7,40.7-41,40.6c-22.2-0.1-40.6-18.1-40.6-40.9
				C160.1,60.1,178.6,42.1,200.9,42.1z M162.8,91.1c3.1,15.7,17.6,30.5,37.6,30.8c20.4,0.3,35.4-14.6,38.6-30.8
				c-3.1-1-6.1-1.9-9.2-2.9c-1.4,6.8-4.6,12.5-9.9,17c-5.3,4.5-11.4,6.8-18.4,7c-6.5,0.1-12.4-1.7-17.6-5.4
				c-6.4-4.6-10.3-10.8-11.9-18.6C169,89.2,165.9,90.2,162.8,91.1z M200.9,72.3c-8.6,0-17.1,0-25.7,0c-0.2,0-0.3,0-0.5,0
				c-0.7,0-1,0.6-0.7,1.2c0.1,0.2,0.2,0.4,0.3,0.5c3.2,4,6.4,8,9.6,12.1c0.7,0.9,1.4,1.8,2.1,2.7c0.4,0.4,0.8,0.7,1.4,0.6
				c0.4,0,0.7-0.2,0.9-0.4c3.9-2.8,7.7-5.7,11.6-8.5c0.5-0.4,1.2-0.4,1.8,0c2.8,2.1,5.7,4.1,8.5,6.2c1.1,0.8,2.2,1.6,3.2,2.4
				c0.5,0.3,0.9,0.4,1.5,0.2c0.3-0.1,0.5-0.3,0.8-0.6c1.3-1.6,2.6-3.3,3.9-4.9c2.6-3.2,5.2-6.5,7.7-9.7c0.1-0.2,0.2-0.3,0.3-0.5
				c0.2-0.6-0.1-1.1-0.7-1.1c-0.2,0-0.4,0-0.5,0C217.9,72.3,209.4,72.3,200.9,72.3z M202,82.7c0-0.1,0-0.3,0-0.4
				c0-0.1,0-0.2-0.1-0.2c-0.3-0.3-0.7-0.5-1.1-0.8c-0.2,0.1-0.3,0.3-0.5,0.4c-0.4,0.2-0.6,0.5-0.5,1c0,0,0,0-0.1,0.1
				c-0.2,0-0.4,0-0.6,0c-0.2,0-0.3,0-0.5,0.2c-0.8,0.6-1.7,1.2-2.5,1.8c-0.1,0-0.1,0.1-0.2,0.2c0.5,0,0.9,0,1.3,0c0.4,0,0.9,0,1.3,0
				c0.4,0,0.8,0,1.2,0c0,2.3,0,4.5,0,6.8c-1.9,0.1-3.8,0.2-5.7,0.5c-1.9,0.3-3.7,0.7-5.6,1.3c-0.2-1-0.4-2-0.7-3
				c-0.8,0.1-1.6-0.1-2.3-0.6c0.2,1.5,0.5,2.9,0.9,4.3c-2,0.8-4,1.7-5.8,2.9c-2.6-3.7-4.1-7.7-4.4-12.2c1.7,0,3.4,0,5.2,0
				c-0.1-0.1-0.1-0.2-0.2-0.3c-0.4-0.5-0.8-1-1.2-1.5c-0.2-0.3-0.5-0.4-0.8-0.4c-0.9,0-1.7,0-2.6,0c-0.1,0-0.3,0-0.5,0
				c0-0.3,0-0.5,0-0.8c0.1-1,0.2-2,0.3-2.9c0-0.2,0-0.3-0.1-0.5c-0.5-0.6-0.9-1.2-1.4-1.8c-0.1-0.1-0.1-0.1-0.2-0.2
				c-2.7,10.6,1.4,22.6,11.8,29.2c10,6.3,23.2,5.5,32.2-2.6c9.2-8.2,10.3-19.6,8.2-26.7c0,0-0.1,0-0.1,0c-0.5,0.7-1.1,1.3-1.6,2
				c-0.1,0.1-0.1,0.3-0.1,0.4c0.2,1.1,0.3,2.3,0.4,3.5c0,0.1,0,0.3,0,0.5c-0.2,0-0.3,0-0.5,0c-1,0-2,0-3,0c-0.2,0-0.4,0.1-0.5,0.2
				c-0.4,0.6-0.9,1.1-1.4,1.7c-0.1,0.1-0.1,0.2-0.1,0.3c0.9,0,1.8,0,2.7,0c0.9,0,1.8,0,2.7,0c-0.4,4.5-1.9,8.5-4.4,12.2
				c-1-0.5-1.9-1.1-2.9-1.6c-1-0.5-2-0.9-3-1.4c0.4-1.4,0.7-2.8,0.9-4.4c-0.7,0.6-1.5,0.7-2.3,0.7c-0.1,0.6-0.2,1.1-0.3,1.6
				c-0.1,0.5-0.2,1-0.4,1.5c-3.7-1.1-7.4-1.6-11.1-1.7c0-2.3,0-4.6,0-6.8c0.3,0,0.6,0,0.9,0c0.3,0,0.6,0,0.9,0c0.3,0,0.6,0,0.9,0
				c0.3,0,0.6,0.1,0.9-0.1c-0.1-0.1-0.2-0.2-0.3-0.2c-0.7-0.5-1.3-1-2-1.5c-0.4-0.3-0.8-0.6-1.3-0.5C202.2,82.7,202.1,82.7,202,82.7
				z M189.1,70.3c0-0.2,0.1-0.3,0.1-0.4c0.4-1.2,0.9-2.4,1.5-3.5c1-2,2.2-3.8,3.8-5.3c1.4-1.4,3-2.4,5-2.8c0.1,0,0.2,0,0.3,0
				c0,4.3,0,8.5,0,12.8c0.7,0,1.5,0,2.2,0c0-4.3,0-8.5,0-12.8c0.1,0,0.2,0,0.2,0c1,0.2,1.9,0.6,2.8,1.1c1.4,0.8,2.6,2,3.6,3.2
				c1.8,2.3,3,4.8,3.9,7.5c0,0,0,0.1,0,0.2c-0.9,0.2-1.9,0.5-2.8,0.7c0.1,0,0.1,0.1,0.2,0.1c2.2,0,4.4,0,6.7,0
				c0.2,0,0.3-0.1,0.5-0.1c1.3-0.6,2.6-1.2,3.8-2c0.1-0.1,0.2-0.1,0.3-0.2c0.5,0.8,1,1.6,1.5,2.4c0.4,0,0.8,0,1.2,0
				c0.4,0,0.8,0,1.2,0c-3.9-8.3-13.7-16.1-26.6-15c-5.8,0.5-11,2.8-15.4,6.6c-2.7,2.3-4.8,5.1-6.4,8.3c0.9,0,1.7,0,2.5,0
				c0.5-0.8,0.9-1.6,1.5-2.3c0.1,0.1,0.2,0.1,0.3,0.2c1.2,0.8,2.5,1.4,3.8,2c0.2,0.1,0.5,0.2,0.7,0.2c2.1,0,4.2,0,6.2,0
				c0.1,0,0.3,0,0.4,0c0,0,0,0,0,0C191.1,70.8,190.1,70.5,189.1,70.3z M210.7,54.7c-0.8-1.7-1.3-3.4-2-5c1-0.8,2-1.7,3.1-2.5
				c-0.9-0.2-1.8-0.4-2.7-0.5c0.1,0.1,0.1,0.2,0.2,0.3c0.2,0.3,0.1,0.5-0.1,0.8c-0.1,0.1-0.2,0.2-0.2,0.2c-0.6,0.5-1.2,1-1.8,1.5
				c-0.1,0.1-0.1,0.1-0.3,0.2c0.1-0.7,0.3-1.4,0.4-2c0.1-0.5,0.2-0.9,0.7-1.2c-1-0.2-2-0.4-3-0.6c0.3,0.4,0.3,0.8,0.2,1.2
				c-0.3,1.6-0.7,3.3-1,4.9c-0.1,0.5-0.2,1-0.7,1.3c1,0.2,1.9,0.4,2.9,0.6c-0.3-0.4-0.3-0.9-0.2-1.3c0.1-0.5,0.2-1.1,0.3-1.6
				c0-0.1,0.1-0.3,0.1-0.4c0.2,0.4,0.3,0.7,0.4,1.1c0.2,0.6,0.4,1.2,0.6,1.8c0.1,0.3,0.4,0.6,0.7,0.7
				C209.2,54.5,209.9,54.5,210.7,54.7z M194.5,54c-0.5-0.4-0.7-0.9-0.8-1.5c-0.1-0.7-0.3-1.5-0.4-2.2c0-0.3-0.1-0.5-0.1-0.9
				c0.2,0.1,0.2,0.2,0.3,0.3c0.9,0.8,1.7,1.7,2.6,2.5c0.6,0.6,1.3,1,2.1,1.2c0.3,0.1,0.6,0.2,1,0.1c-0.3-1.9-0.6-3.7-0.9-5.6
				c-0.1-0.7-0.3-1.4,0.1-2.2c-0.7,0.1-1.4,0.2-2.1,0.4c0.6,0.4,0.7,1,0.8,1.5c0.1,0.7,0.2,1.5,0.4,2.2c0,0.2,0.1,0.5,0.1,0.8
				c-0.2-0.2-0.3-0.2-0.4-0.3c-1.1-1-2.2-2.1-3.3-3.1c-0.2-0.2-0.4-0.5-0.7-0.6c-0.3-0.1-0.6,0-0.9,0.1c0,0-0.1,0-0.1,0
				c-0.4,0.1-0.9,0.1-1.3,0.2c0,0.1,0,0.1,0,0.1c0.5,0.4,0.7,1,0.8,1.7c0.2,1.1,0.4,2.2,0.5,3.2c0.1,0.8,0.4,1.6-0.1,2.5
				C193.1,54.2,193.7,54.1,194.5,54z M216.6,57.6c0.3,0.1,0.5,0.1,0.7,0.2c1.1,0.2,2-0.3,2.5-1.3c0.3-0.6,0.2-1.2-0.1-1.8
				c-0.2-0.4-0.5-0.8-0.8-1.3c-0.1-0.2-0.3-0.4-0.4-0.6c-0.1-0.2-0.1-0.4,0-0.6c0.2-0.2,0.4-0.3,0.6-0.2c0.2,0.1,0.5,0.2,0.7,0.3
				c0.3,0.2,0.5,0.5,0.7,0.8c0.1,0.1,0.1,0.2,0.2,0.3c0.2-0.4,0.4-0.7,0.6-1.1c-0.4-0.3-0.7-0.7-1.1-1c0.2-0.4,0.4-0.7,0.6-1.1
				c-0.2-0.1-0.4-0.3-0.7-0.4c-0.2,0.4-0.4,0.7-0.6,1.1c-0.3-0.1-0.6-0.2-1-0.3c-1.1-0.2-2.1,0.4-2.3,1.5c-0.1,0.5,0,1,0.2,1.5
				c0.2,0.4,0.5,0.8,0.8,1.2c0.1,0.2,0.3,0.4,0.4,0.7c0.2,0.5-0.2,1-0.7,1c-0.2,0-0.4-0.1-0.6-0.2c-0.6-0.3-1.1-0.8-1.4-1.5
				c-0.1-0.1-0.1-0.2-0.2-0.4c-0.2,0.5-0.3,0.9-0.4,1.3c0,0.1,0,0.2,0.1,0.3c0.4,0.3,0.8,0.7,1.1,1c0.1,0.1,0.2,0.1,0.3,0.2
				c-0.2,0.4-0.4,0.7-0.6,1.1c0.2,0.1,0.4,0.3,0.7,0.4C216.2,58.3,216.4,57.9,216.6,57.6z M179.8,52c0.3,0.2,0.6,0.3,0.9,0.5
				c0.8,0.5,1.6,1,2.4,1.5c0.6,0.3,1,0.8,1.3,1.4c0.1,0.2,0.3,0.4,0.4,0.7c0.3,0.5,0.7,1,0.5,1.7c0.9-0.5,1.8-1,2.7-1.5
				c-0.6-0.2-0.9-0.6-1.2-1.1c-0.3-0.5-0.5-0.9-0.8-1.4c-0.1-0.2-0.2-0.4-0.2-0.6c-0.1-1.1-0.1-2.2-0.1-3.3c0-0.3,0-0.7-0.1-1
				c-0.4,0.1-1.5,0.7-1.7,1c0.4,0.1,0.6,0.5,0.6,0.9c0,0.5,0.1,1,0.1,1.5c0,0.1,0,0.2,0,0.3c-0.9-0.6-1.7-1.2-2.5-1.7
				C181.2,51.2,180.5,51.6,179.8,52z"/>
			<path class="st25" d="M162.8,91.1c3.1-1,6.1-1.9,9.2-2.9c1.6,7.8,5.5,14,11.9,18.6c5.2,3.8,11.2,5.6,17.6,5.4
				c6.9-0.1,13.1-2.5,18.4-7c5.3-4.5,8.5-10.2,9.9-17c3.1,1,6.1,1.9,9.2,2.9c-3.2,16.2-18.2,31-38.6,30.8
				C180.4,121.7,165.9,106.9,162.8,91.1z M170.3,98.5C170.3,98.5,170.3,98.5,170.3,98.5c-0.1,0.2-0.2,0.3-0.4,0.4
				c-0.5,0.4-0.9,0.9-1.4,1.3c-0.6,0.7-0.6,1.5-0.3,2.4c2.3-0.4,4.6-0.7,6.9-1.1c-0.3-0.6-0.6-1.1-0.9-1.7c-0.2,0.6-0.6,0.8-1.1,0.9
				c-0.6,0.1-1.2,0.2-1.8,0.3c-0.4,0.1-0.8,0.1-1.3,0.2c0-0.2,0.1-0.2,0.2-0.3c0.7-0.7,1.4-1.3,2.1-2c0.3-0.3,0.6-0.6,1-0.7
				c-0.3-0.7-0.7-1.3-1-1.9c-0.1,0.1-0.1,0.1-0.1,0.1c-0.2,0.6-0.7,0.8-1.3,0.9c-0.7,0.1-1.5,0.3-2.2,0.5c-0.1,0-0.3,0-0.4,0.1
				c0,0,0,0,0-0.1c1.1-1,2.2-2,3.3-3c-0.3-0.7-0.7-1.3-1-2c-0.1,0.6-0.5,0.9-0.8,1.2c-0.9,0.8-1.8,1.7-2.6,2.5
				c-0.2,0.2-0.4,0.4-0.5,0.6c-0.4,0.7-0.4,1.4-0.1,2.1C167.8,99,169.1,98.8,170.3,98.5z M215.5,111C215.5,111,215.5,111,215.5,111
				c0.5,0.3,0.7,0.7,0.7,1.2c0.1,1,0.2,1.9,0.2,2.9c0,0.1,0,0.1,0,0.3c-0.1-0.2-0.2-0.2-0.3-0.3c-0.6-0.8-1.2-1.5-1.8-2.3
				c-0.2-0.3-0.4-0.6-0.7-1c-0.6,0.2-1.3,0.5-2,0.8c0.1,0.1,0.2,0.2,0.3,0.2c0.3,0.2,0.5,0.5,0.6,0.9c0.1,0.9,0.2,1.8,0.3,2.7
				c0,0.1,0,0.2,0,0.3c-0.9-1.2-1.8-2.4-2.7-3.6c-0.7,0.3-1.4,0.5-2.1,0.8c0.5,0.2,0.8,0.5,1.1,0.9c0.8,1,1.5,1.9,2.3,2.9
				c0.1,0.1,0.2,0.3,0.4,0.4c0.7,0.7,1.4,0.7,2.3,0.5c0-0.3-0.1-0.7-0.1-1c0-0.3-0.1-0.6-0.1-0.9c0-0.3-0.1-0.6-0.1-1
				c0-0.3-0.1-0.6-0.1-1c0.4,0.5,0.8,1,1.2,1.5c0.2,0.2,0.3,0.4,0.6,0.6c0.6,0.5,1.3,0.5,2.1,0.3c0.1-0.5-0.3-6.6-0.5-6.9
				C216.6,110.5,216,110.8,215.5,111z M176.9,104.5c-1.8,0-3.4,1.6-3.4,3.4c0,1.9,1.8,3.7,3.8,3.7c1.5,0,2.9-1.1,3.3-2.5
				c0.1-0.5,0.2-1,0-1.6c-0.4-1.3-1.3-2.2-2.5-2.7C177.7,104.7,177.3,104.6,176.9,104.5z M228.7,108.8c0.1,0,0.1,0,0.1-0.1
				c0.7-0.8,1.3-1.7,2-2.5c0.9-1.2,0.7-2.6-0.1-3.6c-0.9-1.1-2.3-1.6-3.6-1.3c-0.6,0.2-1.1,0.6-1.5,1c-0.6,0.7-1.2,1.4-1.7,2.1
				c-0.1,0.1-0.1,0.2-0.2,0.3c0.5-0.1,0.8,0.1,1.1,0.4c0.3,0.3,0.6,0.5,1,0.8c0.9,0.7,1.7,1.4,2.6,2
				C228.5,108.2,228.7,108.4,228.7,108.8z M200,120.9c0.3,0,0.5,0,0.7,0c0.9-0.1,1.8-0.1,2.7-0.2c1-0.1,1.8-0.6,2.3-1.6
				c0.3-0.6,0.4-1.3,0.3-2c-0.2-1.6-1.4-2.9-3.1-2.8c-1,0-2,0.1-3,0.1c-0.1,0-0.1,0-0.2,0c0.4,0.4,0.4,0.8,0.4,1.2
				c0,0.2,0,0.3,0,0.5c0.1,1.3,0.1,2.5,0.2,3.8C200.3,120.3,200.3,120.6,200,120.9z M186.4,114.6c0.3,0,0.5,0,0.7-0.1
				c0.7-0.1,1.2-0.6,1.3-1.3c0.1-0.7-0.2-1.4-0.9-1.8c-1-0.5-2-1-3-1.5c0,0,0,0-0.1,0c0.2,0.4,0,0.7-0.1,1c-0.7,1.3-1.3,2.6-2,3.9
				c-0.2,0.3-0.4,0.6-0.8,0.8c0.8,0.4,1.5,0.7,2.3,1.1c-0.2-0.5,0-0.9,0.2-1.3c0.1-0.2,0.2-0.5,0.3-0.7c0.1-0.2,0.2-0.3,0.3-0.5
				c0.1,0.3,0.1,0.6,0.1,0.9c0,0.5,0,1.1,0.1,1.6c0,0.3,0.1,0.6,0.4,0.8c0.5,0.4,1.1,0.6,1.8,0.9
				C186.6,117.1,186.5,115.8,186.4,114.6z M231.7,94.3c-0.5-0.2-0.9-0.4-1.3-0.5c-0.5,1.2-1,2.3-1.5,3.5c0.4-0.1,0.8-0.1,1.1,0.1
				c1.4,0.6,2.7,1.2,4.1,1.7c0.3,0.1,0.7,0.3,0.8,0.8c0.6-1.4,1.1-2.7,1.7-4c-0.4-0.3-0.8-0.6-1.2-0.9c0.3,1-0.1,1.7-0.6,2.4
				c-0.6-0.3-1.1-0.5-1.7-0.7c0.2-0.4,0.3-0.9,0.8-1.1c-0.4-0.2-0.8-0.3-1.2-0.5c-0.2,0.4-0.3,0.8-0.5,1.2c-0.5-0.2-0.9-0.4-1.4-0.6
				C231,94.9,231.2,94.6,231.7,94.3z M192.4,113.3c0.2,0.6,0.2,0.6,0.1,1.3c-0.2,1.1-0.5,2.2-0.7,3.3c-0.1,0.6-0.1,1.2-0.7,1.7
				c1.4,0.3,2.7,0.6,4.1,0.8c0.2-0.4,0.4-0.8,0.6-1.3c-0.9,0.3-1.6,0.2-2.3-0.2c0-0.1,0-0.2,0-0.4c0.3-1.2,0.5-2.4,0.8-3.6
				c0.1-0.4,0.2-0.9,0.6-1.2C194,113.6,193.2,113.5,192.4,113.3z M225.3,112c-0.5,0-0.8-0.4-1-0.7c-0.9-1.1-1.7-2.2-2.6-3.3
				c-0.3-0.3-0.5-0.6-0.4-1.2c-0.7,0.6-1.4,1.1-2.1,1.6c0.6,0,0.9,0.4,1.1,0.8c0.8,1.1,1.7,2.1,2.5,3.2c0.2,0.3,0.5,0.6,0.4,1.1
				C224,113,224.6,112.5,225.3,112z"/>
			<path class="st25" d="M200.9,72.3c8.5,0,17,0,25.5,0c0.2,0,0.4,0,0.5,0c0.6,0,1,0.6,0.7,1.1c-0.1,0.2-0.2,0.4-0.3,0.5
				c-2.6,3.2-5.2,6.5-7.7,9.7c-1.3,1.6-2.6,3.3-3.9,4.9c-0.2,0.3-0.4,0.5-0.8,0.6c-0.5,0.2-1,0.1-1.5-0.2c-1.1-0.8-2.2-1.6-3.2-2.4
				c-2.8-2.1-5.7-4.1-8.5-6.2c-0.6-0.4-1.3-0.4-1.8,0c-3.9,2.9-7.7,5.7-11.6,8.5c-0.3,0.2-0.6,0.4-0.9,0.4c-0.6,0-1-0.2-1.4-0.6
				c-0.7-0.9-1.4-1.8-2.1-2.7c-3.2-4-6.4-8-9.6-12.1c-0.1-0.2-0.2-0.3-0.3-0.5c-0.3-0.6,0.1-1.1,0.7-1.2c0.2,0,0.3,0,0.5,0
				C183.8,72.3,192.3,72.3,200.9,72.3z M188.4,79.4c-1.3,2.3-2.6,4.6-3.9,6.8c0.5,0.8,1.5,1.9,1.7,2.1c2.4-3.8,4.9-7.5,7.3-11.3
				c0-0.1,0.1-0.1,0.1-0.2c0,0,0,0,0,0c0,0,0,0-0.1-0.1c-1.2,0-2.5,0.1-3.8,0c0.3-0.7,0.5-1.3,0.8-1.9c0.3-0.6,0.5-1.2,0.8-1.9
				c-1.2,0-2.4,0-3.5,0c-0.2,0-0.3,0.1-0.3,0.3c-1,1.9-1.9,3.9-2.9,5.8c0,0.1-0.1,0.2-0.1,0.3C185.8,79.4,187.1,79.4,188.4,79.4z
				 M213.4,79.1c-1.3,2.2-2.5,4.4-3.7,6.6c0.8,0.6,1.5,1.1,2.2,1.7c2-3.6,4.1-7.2,6.1-10.9c-1.3,0-2.6,0-3.9,0
				c0.5-1.3,1-2.5,1.6-3.7c-0.2,0-0.3,0-0.4,0c-0.7,0-1.5,0-2.2,0c-0.3,0-0.4,0.1-0.6,0.3c-0.9,1.9-1.9,3.7-2.8,5.6
				c-0.1,0.1-0.1,0.3-0.2,0.5C210.8,79.1,212,79.1,213.4,79.1z M194.5,78.3c-0.1-0.1-0.1-0.2-0.2-0.2c-0.1,0-0.2,0-0.3,0
				c-0.1,0.1-0.2,0.2-0.2,0.3c-1.2,1.9-2.3,3.8-3.5,5.6c-0.3,0.5-0.6,0.9-0.9,1.4c-0.1,0.1-0.1,0.2-0.1,0.3c0,0.1,0,0.2,0.1,0.3
				c0.1,0,0.2,0,0.3,0c0.1,0,0.1-0.1,0.2-0.2c1.6-2.4,3.1-4.9,4.6-7.3C194.4,78.5,194.5,78.4,194.5,78.3z M218.9,78.1
				c-0.1-0.1-0.1-0.2-0.2-0.2c-0.1,0-0.2,0-0.3,0.1c-0.3,0.3-0.5,0.7-0.7,1c-1.2,2-2.4,4-3.6,5.9c-0.2,0.3-0.2,0.4,0,0.5
				c0.2,0.1,0.3,0,0.5-0.3c0.5-0.8,0.9-1.5,1.4-2.3c0.9-1.5,1.7-3.1,2.8-4.5C218.8,78.3,218.9,78.2,218.9,78.1z M208.2,77.9
				c0.1-0.1,0.2-0.1,0.2-0.2c0.7-1,1.3-2.1,2-3.1c0.1-0.2,0.2-0.3,0.3-0.5c0.1-0.2,0.1-0.4-0.1-0.4c-0.2-0.1-0.3,0-0.4,0.2
				c-0.1,0.2-0.2,0.4-0.3,0.6c-0.6,1-1.3,2-1.9,3c-0.1,0.1-0.1,0.2-0.1,0.3C207.8,77.8,207.9,77.9,208.2,77.9z M183.8,77.5
				c0.2,0,0.2-0.2,0.3-0.3c0.6-1.1,1.2-2.2,1.7-3.3c0-0.1,0.1-0.1,0.1-0.2c0-0.1-0.1-0.2-0.1-0.3c-0.1-0.1-0.2-0.1-0.3,0.1
				c-0.1,0.1-0.1,0.2-0.1,0.2c-0.6,1.1-1.1,2.1-1.7,3.2c0,0.1-0.1,0.2-0.1,0.3C183.5,77.3,183.6,77.5,183.8,77.5z"/>
			<path class="st25" d="M202,82.7c0.1,0,0.1,0,0.2,0c0.5-0.1,0.9,0.2,1.3,0.5c0.7,0.5,1.3,1,2,1.5c0.1,0.1,0.2,0.1,0.3,0.2
				c-0.3,0.1-0.6,0.1-0.9,0.1c-0.3,0-0.6,0-0.9,0c-0.3,0-0.6,0-0.9,0c-0.3,0-0.6,0-0.9,0c0,2.3,0,4.5,0,6.8
				c3.8,0.1,7.5,0.6,11.1,1.7c0.2-0.5,0.3-1,0.4-1.5c0.1-0.5,0.2-1,0.3-1.6c0.8,0.1,1.6-0.1,2.3-0.7c-0.2,1.5-0.6,3-0.9,4.4
				c1,0.5,2,0.9,3,1.4c1,0.5,1.9,1,2.9,1.6c2.5-3.6,4-7.7,4.4-12.2c-0.9,0-1.8,0-2.7,0c-0.9,0-1.8,0-2.7,0c0.1-0.1,0.1-0.2,0.1-0.3
				c0.5-0.6,0.9-1.1,1.4-1.7c0.1-0.2,0.3-0.2,0.5-0.2c1,0,2,0,3,0c0.1,0,0.3,0,0.5,0c0-0.2,0-0.3,0-0.5c-0.1-1.2-0.1-2.3-0.4-3.5
				c0-0.1,0-0.3,0.1-0.4c0.5-0.7,1-1.3,1.6-2c0,0,0,0,0.1,0c2,7.2,0.9,18.6-8.2,26.7c-9.1,8.1-22.2,9-32.2,2.6
				c-10.4-6.6-14.5-18.7-11.8-29.2c0.1,0.1,0.1,0.1,0.2,0.2c0.5,0.6,0.9,1.2,1.4,1.8c0.1,0.1,0.2,0.3,0.1,0.5c-0.1,1-0.2,2-0.3,2.9
				c0,0.3,0,0.5,0,0.8c0.2,0,0.3,0,0.5,0c0.9,0,1.7,0,2.6,0c0.4,0,0.6,0.1,0.8,0.4c0.4,0.5,0.8,1,1.2,1.5c0.1,0.1,0.1,0.1,0.2,0.3
				c-1.8,0-3.4,0-5.2,0c0.4,4.5,1.9,8.5,4.4,12.2c1.8-1.2,3.7-2.1,5.8-2.9c-0.4-1.4-0.7-2.8-0.9-4.3c0.7,0.5,1.5,0.7,2.3,0.6
				c0.2,1,0.4,2,0.7,3c1.9-0.5,3.7-1,5.6-1.3c1.9-0.3,3.8-0.4,5.7-0.5c0-2.3,0-4.5,0-6.8c-0.4-0.1-0.8,0-1.2,0c-0.4,0-0.9,0-1.3,0
				c-0.4,0-0.8,0-1.3,0c0.1-0.1,0.2-0.2,0.2-0.2c0.8-0.6,1.7-1.2,2.5-1.8c0.1-0.1,0.3-0.2,0.5-0.2c0.2,0,0.4,0,0.6,0
				c0-0.1,0.1-0.1,0.1-0.1c-0.1-0.5,0.1-0.8,0.5-1c0.2-0.1,0.3-0.2,0.5-0.4c0.4,0.3,0.7,0.5,1.1,0.8c0.1,0,0.1,0.2,0.1,0.2
				C202,82.4,202,82.5,202,82.7z M189.1,95.6c0,0.1,0.1,0.2,0.1,0.3c0.5,1.5,1.1,3,1.9,4.3c1,1.9,2.3,3.6,3.9,5
				c1.3,1.1,2.7,1.9,4.3,2.2c0.1,0,0.3,0,0.5,0.1c0-4.5,0-9,0-13.6C196.2,94.1,192.6,94.6,189.1,95.6z M202,94c0,4.6,0,9.1,0,13.6
				c0.1,0,0.2,0,0.3,0c1.1-0.2,2.1-0.6,3-1.2c1.3-0.9,2.5-2,3.4-3.2c1.7-2.2,2.8-4.6,3.7-7.2c0-0.1,0-0.2,0.1-0.3
				C209.1,94.6,205.6,94.1,202,94z M214.7,96.3c-1.3,3.8-3.1,7.2-5.9,10.1c4.4-1.5,8.1-4,11.1-7.5C218.2,97.8,216.5,97,214.7,96.3z
				 M187.1,96.3c-1.8,0.7-3.5,1.5-5.1,2.5c3,3.5,6.6,6,10.9,7.5C190.1,103.5,188.4,100.1,187.1,96.3z"/>
			<path class="st25" d="M189.1,70.3c1,0.3,2,0.5,3,0.8c0,0,0,0,0,0c-0.1,0-0.3,0-0.4,0c-2.1,0-4.2,0-6.2,0c-0.3,0-0.5,0-0.7-0.2
				c-1.3-0.6-2.6-1.2-3.8-2c-0.1-0.1-0.2-0.1-0.3-0.2c-0.6,0.7-1,1.5-1.5,2.3c-0.8,0-1.6,0-2.5,0c1.6-3.2,3.7-6,6.4-8.3
				c4.4-3.9,9.5-6.1,15.4-6.6c12.9-1.2,22.7,6.7,26.6,15c-0.4,0-0.8,0-1.2,0c-0.4,0-0.8,0-1.2,0c-0.5-0.8-1-1.6-1.5-2.4
				c-0.1,0.1-0.2,0.1-0.3,0.2c-1.2,0.8-2.5,1.5-3.8,2c-0.2,0.1-0.3,0.1-0.5,0.1c-2.2,0-4.4,0-6.7,0c0,0-0.1,0-0.2-0.1
				c0.9-0.2,1.9-0.5,2.8-0.7c0-0.1,0-0.1,0-0.2c-0.9-2.7-2.1-5.3-3.9-7.5c-1-1.3-2.2-2.4-3.6-3.2c-0.9-0.5-1.8-0.9-2.8-1.1
				c-0.1,0-0.1,0-0.2,0c0,4.3,0,8.5,0,12.8c-0.7,0-1.5,0-2.2,0c0-4.3,0-8.5,0-12.8c-0.1,0-0.2,0-0.3,0c-2,0.4-3.6,1.4-5,2.8
				c-1.6,1.5-2.8,3.4-3.8,5.3c-0.6,1.1-1,2.3-1.5,3.5C189.2,70,189.2,70.1,189.1,70.3z M219.9,67c-1.5-1.8-3.2-3.3-5-4.6
				c-1.9-1.3-3.9-2.3-6-3c0.1,0.1,0.2,0.2,0.3,0.3c0.8,0.8,1.5,1.7,2.2,2.7c1.4,2.1,2.4,4.3,3.3,6.6c0,0.1,0.1,0.3,0.2,0.4
				C216.5,68.9,218.2,68.1,219.9,67z M192.9,59.6c-2.9,0.5-9.3,4.9-10.9,7.5c1.6,1,3.3,1.8,5.1,2.5
				C188.4,65.9,190.1,62.4,192.9,59.6z"/>
			<path class="st25" d="M210.7,54.7c-0.8-0.1-1.5-0.2-2.2-0.5c-0.3-0.1-0.6-0.4-0.7-0.7c-0.2-0.6-0.4-1.2-0.6-1.8
				c-0.1-0.4-0.2-0.7-0.4-1.1c0,0.1-0.1,0.3-0.1,0.4c-0.1,0.5-0.2,1.1-0.3,1.6c-0.1,0.4-0.1,0.8,0.2,1.3c-1-0.2-1.9-0.4-2.9-0.6
				c0.5-0.3,0.6-0.8,0.7-1.3c0.3-1.6,0.7-3.3,1-4.9c0.1-0.4,0.1-0.8-0.2-1.2c1,0.2,2,0.4,3,0.6c-0.5,0.3-0.6,0.7-0.7,1.2
				c-0.1,0.7-0.3,1.3-0.4,2c0.1-0.1,0.2-0.1,0.3-0.2c0.6-0.5,1.2-1,1.8-1.5c0.1-0.1,0.2-0.1,0.2-0.2c0.2-0.3,0.3-0.5,0.1-0.8
				c0-0.1-0.1-0.2-0.2-0.3c0.9,0.2,1.8,0.4,2.7,0.5c-1.1,0.9-2.1,1.7-3.1,2.5C209.4,51.3,209.9,53,210.7,54.7z"/>
			<path class="st25" d="M194.5,54c-0.8,0.1-1.4,0.2-2.2,0.4c0.5-0.9,0.2-1.7,0.1-2.5c-0.2-1.1-0.4-2.2-0.5-3.2
				c-0.1-0.7-0.3-1.3-0.8-1.7c0,0,0,0,0-0.1c0.4-0.1,0.9-0.2,1.3-0.2c0,0,0.1,0,0.1,0c0.3,0,0.6-0.2,0.9-0.1
				c0.3,0.1,0.4,0.4,0.7,0.6c1.1,1,2.2,2.1,3.3,3.1c0.1,0.1,0.2,0.2,0.4,0.3c0-0.3-0.1-0.6-0.1-0.8c-0.1-0.7-0.3-1.5-0.4-2.2
				c-0.1-0.6-0.2-1.1-0.8-1.5c0.8-0.1,1.4-0.2,2.1-0.4c-0.4,0.7-0.2,1.5-0.1,2.2c0.3,1.9,0.6,3.7,0.9,5.6c-0.4,0.1-0.7,0-1-0.1
				c-0.8-0.2-1.5-0.6-2.1-1.2c-0.9-0.8-1.7-1.7-2.6-2.5c-0.1-0.1-0.2-0.1-0.3-0.3c0.1,0.4,0.1,0.6,0.1,0.9c0.1,0.7,0.3,1.5,0.4,2.2
				C193.8,53,194,53.5,194.5,54z"/>
			<path class="st25" d="M216.6,57.6c-0.2,0.4-0.4,0.7-0.7,1.1c-0.2-0.1-0.4-0.2-0.7-0.4c0.2-0.4,0.4-0.7,0.6-1.1
				c-0.1-0.1-0.2-0.1-0.3-0.2c-0.4-0.3-0.8-0.7-1.1-1c-0.1-0.1-0.2-0.2-0.1-0.3c0.1-0.4,0.3-0.8,0.4-1.3c0.1,0.2,0.2,0.3,0.2,0.4
				c0.3,0.6,0.8,1.1,1.4,1.5c0.2,0.1,0.4,0.2,0.6,0.2c0.5,0,0.9-0.5,0.7-1c-0.1-0.2-0.2-0.5-0.4-0.7c-0.3-0.4-0.5-0.8-0.8-1.2
				c-0.3-0.5-0.4-1-0.2-1.5c0.2-1.1,1.2-1.7,2.3-1.5c0.3,0.1,0.6,0.2,1,0.3c0.2-0.3,0.4-0.7,0.6-1.1c0.2,0.1,0.4,0.2,0.7,0.4
				c-0.2,0.4-0.4,0.7-0.6,1.1c0.4,0.3,0.7,0.6,1.1,1c-0.2,0.4-0.4,0.7-0.6,1.1c-0.1-0.1-0.1-0.2-0.2-0.3c-0.2-0.3-0.5-0.5-0.7-0.8
				c-0.2-0.1-0.4-0.2-0.7-0.3c-0.3-0.1-0.5,0-0.6,0.2c-0.2,0.2-0.2,0.4,0,0.6c0.1,0.2,0.3,0.4,0.4,0.6c0.3,0.4,0.6,0.8,0.8,1.3
				c0.3,0.6,0.3,1.2,0.1,1.8c-0.4,1-1.4,1.5-2.5,1.3C217.1,57.7,216.9,57.6,216.6,57.6z"/>
			<path class="st25" d="M179.8,52c0.7-0.4,1.5-0.8,2.2-1.2c0.8,0.6,1.6,1.1,2.5,1.7c0-0.1,0-0.2,0-0.3c0-0.5-0.1-1-0.1-1.5
				c0-0.4-0.2-0.8-0.6-0.9c0.2-0.2,1.2-0.8,1.7-1c0,0.3,0,0.7,0.1,1c0.1,1.1,0.1,2.2,0.1,3.3c0,0.2,0.1,0.4,0.2,0.6
				c0.2,0.5,0.5,0.9,0.8,1.4c0.3,0.5,0.6,0.9,1.2,1.1c-0.9,0.5-1.7,1-2.7,1.5c0.2-0.7-0.2-1.2-0.5-1.7c-0.1-0.2-0.3-0.4-0.4-0.7
				c-0.3-0.6-0.7-1.1-1.3-1.4c-0.8-0.5-1.6-1-2.4-1.5C180.4,52.3,180.1,52.2,179.8,52z"/>
			<path class="st24" d="M170.3,98.5c-1.2,0.3-2.5,0.5-3.8,0.8c-0.3-0.7-0.3-1.4,0.1-2.1c0.2-0.2,0.3-0.5,0.5-0.6
				c0.9-0.8,1.8-1.7,2.6-2.5c0.3-0.3,0.7-0.7,0.8-1.2c0.4,0.7,0.7,1.4,1,2c-1.1,1-2.2,2-3.3,3c0,0,0,0,0,0.1c0.1,0,0.3,0,0.4-0.1
				c0.7-0.2,1.5-0.3,2.2-0.5c0.6-0.1,1-0.4,1.3-0.9c0,0,0.1-0.1,0.1-0.1c0.3,0.6,0.7,1.3,1,1.9c-0.4,0.1-0.7,0.4-1,0.7
				c-0.7,0.7-1.4,1.3-2.1,2c-0.1,0.1-0.2,0.2-0.2,0.3c0.4-0.1,0.8-0.1,1.3-0.2c0.6-0.1,1.2-0.2,1.8-0.3c0.5-0.1,0.9-0.3,1.1-0.9
				c0.3,0.6,0.6,1.1,0.9,1.7c-2.3,0.4-4.6,0.7-6.9,1.1c-0.3-0.9-0.3-1.7,0.3-2.4c0.4-0.5,0.9-0.9,1.4-1.3
				C170.1,98.8,170.2,98.7,170.3,98.5C170.3,98.5,170.3,98.5,170.3,98.5z"/>
			<path class="st24" d="M215.5,111c0.5-0.2,1.1-0.4,1.6-0.7c0.1,0.4,0.5,6.4,0.5,6.9c-0.7,0.2-1.4,0.2-2.1-0.3
				c-0.2-0.2-0.4-0.4-0.6-0.6c-0.4-0.5-0.8-1-1.2-1.5c-0.1,0.4,0,0.7,0.1,1c0,0.3,0.1,0.6,0.1,1c0,0.3,0.1,0.6,0.1,0.9
				c0,0.3,0.1,0.6,0.1,1c-0.9,0.2-1.7,0.1-2.3-0.5c-0.1-0.1-0.3-0.3-0.4-0.4c-0.8-1-1.5-1.9-2.3-2.9c-0.3-0.4-0.6-0.7-1.1-0.9
				c0.8-0.3,1.4-0.6,2.1-0.8c0.9,1.2,1.8,2.3,2.7,3.6c0-0.2,0-0.2,0-0.3c-0.1-0.9-0.2-1.8-0.3-2.7c0-0.4-0.2-0.7-0.6-0.9
				c-0.1-0.1-0.2-0.1-0.3-0.2c0.7-0.3,1.4-0.5,2-0.8c0.2,0.4,0.4,0.7,0.7,1c0.6,0.8,1.2,1.5,1.8,2.3c0.1,0.1,0.2,0.2,0.3,0.3
				c0-0.2,0-0.2,0-0.3c-0.1-1-0.2-1.9-0.2-2.9C216.2,111.7,216,111.2,215.5,111C215.5,111,215.5,111,215.5,111z"/>
			<path class="st24" d="M176.9,104.5c0.4,0.1,0.8,0.1,1.2,0.3c1.2,0.5,2.1,1.4,2.5,2.7c0.1,0.5,0.1,1,0,1.6
				c-0.4,1.4-1.8,2.6-3.3,2.5c-1.9,0-3.8-1.8-3.8-3.7C173.6,106.1,175.1,104.6,176.9,104.5z M176.6,110.3c0.4,0,0.8-0.1,1.1-0.4
				c0.6-0.5,1.1-1.1,1.4-1.9c0.1-0.3,0.1-0.6,0.1-0.9c-0.1-0.9-1.1-1.5-2-1.1c-1.1,0.4-1.7,1.3-2,2.4
				C174.9,109.4,175.6,110.3,176.6,110.3z"/>
			<path class="st24" d="M228.7,108.8c0-0.4-0.2-0.6-0.4-0.8c-0.9-0.7-1.7-1.4-2.6-2c-0.3-0.3-0.6-0.5-1-0.8
				c-0.3-0.2-0.6-0.4-1.1-0.4c0.1-0.1,0.1-0.2,0.2-0.3c0.6-0.7,1.1-1.4,1.7-2.1c0.4-0.5,0.9-0.9,1.5-1c1.3-0.4,2.7,0.1,3.6,1.3
				c0.8,1,1,2.4,0.1,3.6c-0.6,0.9-1.3,1.7-2,2.5C228.8,108.8,228.8,108.8,228.7,108.8z M229.3,106.4c0.7-0.6,0.9-1.2,0.6-1.9
				c-0.5-0.9-1.2-1.5-2.2-1.7c-0.8-0.2-1.4,0.2-1.7,1C227,104.7,228.1,105.6,229.3,106.4z"/>
			<path class="st24" d="M200,120.9c0.3-0.3,0.4-0.6,0.3-1c-0.1-1.3-0.1-2.5-0.2-3.8c0-0.2,0-0.3,0-0.5c0-0.4,0-0.9-0.4-1.2
				c0.1,0,0.2,0,0.2,0c1,0,2-0.1,3-0.1c1.7-0.1,2.9,1.2,3.1,2.8c0.1,0.7,0,1.4-0.3,2c-0.5,0.9-1.2,1.5-2.3,1.6
				c-0.9,0.1-1.8,0.1-2.7,0.2C200.5,120.9,200.3,120.9,200,120.9z M202.1,119.7c0.9,0.2,1.5,0,1.8-0.8c0.4-1,0.3-1.9-0.2-2.8
				c-0.3-0.5-1-1-1.8-0.6C202,116.9,202.1,118.3,202.1,119.7z"/>
			<path class="st24" d="M186.4,114.6c0.1,1.3,0.2,2.5,0.6,3.8c-0.7-0.3-1.3-0.5-1.8-0.9c-0.2-0.2-0.4-0.5-0.4-0.8
				c0-0.5-0.1-1-0.1-1.6c0-0.3,0-0.6-0.1-0.9c-0.1,0.2-0.2,0.3-0.3,0.5c-0.1,0.2-0.2,0.5-0.3,0.7c-0.2,0.4-0.4,0.8-0.2,1.3
				c-0.8-0.4-1.5-0.7-2.3-1.1c0.5-0.1,0.7-0.4,0.8-0.8c0.6-1.3,1.3-2.6,2-3.9c0.2-0.3,0.3-0.7,0.1-1c0.1,0,0.1,0,0.1,0
				c1,0.5,2,1,3,1.5c0.7,0.4,1,1.1,0.9,1.8c-0.1,0.7-0.6,1.2-1.3,1.3C186.9,114.5,186.7,114.5,186.4,114.6z M185,113.6
				c0.7,0.2,1.3-0.1,1.5-0.7c0.2-0.5,0-1-0.6-1.2C185.6,112.4,185.3,113,185,113.6z"/>
			<path class="st24" d="M231.7,94.3c-0.5,0.3-0.7,0.6-0.9,1.4c0.4,0.2,0.9,0.4,1.4,0.6c0.2-0.4,0.3-0.8,0.5-1.2
				c0.4,0.2,0.7,0.3,1.2,0.5c-0.5,0.2-0.6,0.7-0.8,1.1c0.6,0.2,1.1,0.5,1.7,0.7c0.5-0.7,0.9-1.4,0.6-2.4c0.4,0.3,0.8,0.6,1.2,0.9
				c-0.6,1.3-1.1,2.6-1.7,4c-0.2-0.5-0.5-0.6-0.8-0.8c-1.4-0.6-2.7-1.2-4.1-1.7c-0.3-0.1-0.7-0.2-1.1-0.1c0.5-1.2,1-2.4,1.5-3.5
				C230.9,93.9,231.3,94.1,231.7,94.3z"/>
			<path class="st24" d="M192.4,113.3c0.8,0.2,1.6,0.3,2.5,0.5c-0.5,0.3-0.5,0.7-0.6,1.2c-0.2,1.2-0.5,2.4-0.8,3.6
				c0,0.1,0,0.2,0,0.4c0.7,0.4,1.5,0.5,2.3,0.2c-0.2,0.5-0.4,0.9-0.6,1.3c-1.3-0.3-2.7-0.6-4.1-0.8c0.6-0.5,0.6-1.1,0.7-1.7
				c0.2-1.1,0.5-2.2,0.7-3.3C192.6,113.9,192.6,113.9,192.4,113.3z"/>
			<path class="st24" d="M225.3,112c-0.7,0.6-1.4,1.1-2.1,1.6c0.1-0.5-0.2-0.8-0.4-1.1c-0.8-1.1-1.7-2.1-2.5-3.2
				c-0.3-0.3-0.5-0.7-1.1-0.8c0.7-0.6,1.4-1.1,2.1-1.6c-0.1,0.5,0.2,0.9,0.4,1.2c0.9,1.1,1.7,2.2,2.6,3.3
				C224.5,111.6,224.8,112,225.3,112z"/>
			<path class="st24" d="M188.4,79.4c-1.3,0-2.6,0-3.9,0c0-0.1,0.1-0.2,0.1-0.3c1-1.9,1.9-3.9,2.9-5.8c0.1-0.1,0.1-0.3,0.3-0.3
				c1.1,0,2.3,0,3.5,0c-0.2,0.7-0.5,1.3-0.8,1.9c-0.2,0.6-0.5,1.2-0.8,1.9c1.3,0,2.5,0,3.8,0c0,0.1,0.1,0.1,0.1,0.1c0,0,0,0,0,0
				c0,0.1-0.1,0.1-0.1,0.2c-2.4,3.8-4.9,7.5-7.3,11.3c-0.3-0.2-1.2-1.3-1.7-2.1C185.8,83.9,187.1,81.7,188.4,79.4z"/>
			<path class="st24" d="M213.4,79.1c-1.3,0-2.6,0-3.9,0c0.1-0.2,0.1-0.3,0.2-0.5c0.9-1.9,1.9-3.7,2.8-5.6c0.1-0.3,0.3-0.3,0.6-0.3
				c0.7,0,1.5,0,2.2,0c0.1,0,0.2,0,0.4,0c-0.5,1.3-1,2.5-1.6,3.7c1.3,0,2.6,0,3.9,0c-2.1,3.7-4.1,7.3-6.1,10.9
				c-0.8-0.6-1.5-1.1-2.2-1.7C210.9,83.4,212.1,81.3,213.4,79.1z"/>
			<path class="st24" d="M194.5,78.3c-0.1,0.1-0.1,0.2-0.1,0.3c-1.5,2.4-2.9,4.9-4.6,7.3c0,0.1-0.1,0.2-0.2,0.2c-0.1,0-0.2,0-0.3,0
				c-0.1,0-0.1-0.2-0.1-0.3c0-0.1,0.1-0.2,0.1-0.3c0.3-0.5,0.6-0.9,0.9-1.4c1.2-1.9,2.3-3.8,3.5-5.6c0.1-0.1,0.1-0.2,0.2-0.3
				c0.1-0.1,0.2-0.1,0.3,0C194.4,78.2,194.5,78.3,194.5,78.3z"/>
			<path class="st24" d="M218.9,78.1c-0.1,0.1-0.1,0.2-0.1,0.2c-1.1,1.4-1.9,3-2.8,4.5c-0.5,0.8-0.9,1.5-1.4,2.3
				c-0.2,0.3-0.3,0.4-0.5,0.3c-0.2-0.1-0.2-0.2,0-0.5c1.2-2,2.4-4,3.6-5.9c0.2-0.4,0.5-0.7,0.7-1c0.1-0.1,0.2-0.1,0.3-0.1
				C218.8,77.9,218.8,78,218.9,78.1z"/>
			<path class="st24" d="M208.2,77.9c-0.2,0-0.4-0.1-0.3-0.3c0-0.1,0.1-0.2,0.1-0.3c0.6-1,1.3-2,1.9-3c0.1-0.2,0.2-0.4,0.3-0.6
				c0.1-0.2,0.2-0.3,0.4-0.2c0.1,0.1,0.2,0.2,0.1,0.4c-0.1,0.2-0.2,0.3-0.3,0.5c-0.7,1.1-1.3,2.1-2,3.1
				C208.3,77.8,208.2,77.9,208.2,77.9z"/>
			<path class="st24" d="M183.8,77.5c-0.2,0-0.3-0.1-0.3-0.3c0-0.1,0.1-0.2,0.1-0.3c0.6-1.1,1.1-2.1,1.7-3.2c0-0.1,0.1-0.2,0.1-0.2
				c0.1-0.1,0.2-0.1,0.3-0.1c0.1,0.1,0.1,0.2,0.1,0.3c0,0.1-0.1,0.1-0.1,0.2c-0.6,1.1-1.2,2.2-1.7,3.3C184,77.3,184,77.5,183.8,77.5
				z"/>
			<path class="st24" d="M189.1,95.6c3.5-1,7-1.6,10.7-1.6c0,4.5,0,9,0,13.6c-0.2,0-0.3,0-0.5-0.1c-1.7-0.3-3.1-1.1-4.3-2.2
				c-1.6-1.4-2.9-3.2-3.9-5c-0.8-1.4-1.4-2.8-1.9-4.3C189.2,95.8,189.2,95.8,189.1,95.6z"/>
			<path class="st24" d="M202,94c3.6,0.1,7.1,0.6,10.5,1.6c0,0.1,0,0.2-0.1,0.3c-0.9,2.6-2,5-3.7,7.2c-1,1.3-2.1,2.4-3.4,3.2
				c-0.9,0.6-1.9,1-3,1.2c-0.1,0-0.2,0-0.3,0C202,103.1,202,98.6,202,94z"/>
			<path class="st24" d="M214.7,96.3c1.8,0.7,3.5,1.5,5.2,2.6c-3,3.5-6.7,6.1-11.1,7.5C211.6,103.5,213.3,100.1,214.7,96.3z"/>
			<path class="st24" d="M187.1,96.3c1.3,3.7,3.1,7.2,5.8,10c-4.3-1.5-7.9-4-10.9-7.5C183.6,97.8,185.3,97,187.1,96.3z"/>
			<path class="st24" d="M219.9,67c-1.6,1.1-3.4,1.9-5.2,2.6c-0.1-0.2-0.1-0.3-0.2-0.4c-0.8-2.3-1.9-4.6-3.3-6.6
				c-0.7-1-1.4-1.9-2.2-2.7c-0.1-0.1-0.2-0.2-0.3-0.3c2.2,0.7,4.2,1.7,6,3C216.7,63.7,218.3,65.2,219.9,67z"/>
			<path class="st24" d="M192.9,59.6c-2.8,2.9-4.6,6.3-5.9,10c-1.8-0.7-3.5-1.5-5.1-2.5C183.6,64.5,190,60.1,192.9,59.6z"/>
			<path class="st25" d="M176.6,110.3c-0.9,0-1.7-0.9-1.5-1.8c0.3-1.1,0.9-1.9,2-2.4c0.9-0.4,1.9,0.1,2,1.1c0,0.3,0,0.6-0.1,0.9
				c-0.2,0.8-0.7,1.4-1.4,1.9C177.3,110.1,177,110.3,176.6,110.3z"/>
			<path class="st25" d="M229.3,106.4c-1.1-0.9-2.2-1.8-3.3-2.6c0.2-0.8,0.9-1.2,1.7-1c1,0.3,1.7,0.8,2.2,1.7
				C230.2,105.3,230,105.9,229.3,106.4z"/>
			<path class="st25" d="M202.1,119.7c-0.1-1.4-0.2-2.8-0.2-4.2c0.9-0.4,1.6,0.1,1.8,0.6c0.5,0.9,0.5,1.9,0.2,2.8
				C203.6,119.7,203,119.9,202.1,119.7z"/>
			<path class="st25" d="M185,113.6c0.3-0.6,0.6-1.3,0.9-1.9c0.6,0.2,0.8,0.7,0.6,1.2C186.3,113.6,185.6,113.9,185,113.6z"/>
		</g>
	</g>
</g>
</svg>
