<?xml version="1.0" encoding="utf-8"?>
<!-- Generator: Adobe Illustrator 21.1.0, SVG Export Plug-In . SVG Version: 6.00 Build 0)  -->
<svg version="1.1" xmlns="http://www.w3.org/2000/svg" xmlns:xlink="http://www.w3.org/1999/xlink" x="0px" y="0px"
	 viewBox="0 0 1080 1630.4" style="enable-background:new 0 0 1080 1630.4;" xml:space="preserve">
<style type="text/css">
	.st0{display:none;}
	.st1{display:inline;opacity:0.1;fill:#FFFFFF;}
	.st2{display:inline;opacity:0.71;}
	.st3{opacity:0.71;}
	.st4{display:inline;}
	.st5{display:inline;fill:#FFFFFF;}
	.st6{display:inline;fill:#EFD932;}
	.st7{fill:none;stroke:#000000;stroke-miterlimit:10;}
	.st8{clip-path:url(#SVGID_10_);fill:none;stroke:#000000;stroke-miterlimit:10;}
	.st9{fill:none;}
	.st10{fill:#FF0000;}
	.st11{fill:#FFE400;}
	.st12{opacity:0.78;}
	.st13{opacity:0.9;}
	.st14{fill:#FFFFFF;}
	.st15{font-family:'BigNoodleTitling';}
	.st16{font-size:16px;}
	.st17{letter-spacing:6;}
	.st18{font-family:'Roboto-Thin';}
	.st19{letter-spacing:9;}
	.st20{letter-spacing:3;}
	.st21{letter-spacing:1;}
	.st22{font-size:14px;}
	.st23{letter-spacing:8;}
	.st24{letter-spacing:2;}
	.st25{fill:#000100;}
	.st26{stroke:#000000;stroke-miterlimit:10;}
	.st27{fill-rule:evenodd;clip-rule:evenodd;}
	.st28{fill-rule:evenodd;clip-rule:evenodd;fill:none;}
	.st29{font-family:'Roboto-Regular';}
	.st30{font-size:13px;}
	.st31{font-size:12px;}
	.st32{fill:none;stroke:#FF0000;stroke-width:3;stroke-miterlimit:10;}
</style>
<g id="Camada_1" class="st0">
	<g class="st4">
		<defs>
			<rect id="SVGID_5_" x="563.5" y="1467.7" width="1095.1" height="212.8"/>
		</defs>
		<clipPath id="SVGID_2_">
			<use xlink:href="#SVGID_5_"  style="overflow:visible;"/>
		</clipPath>
	</g>
	<rect x="563.5" y="617.3" class="st5" width="1077" height="239.8"/>
</g>
<g id="Camada_4">
</g>
<g id="Camada_3">
</g>
<g id="Camada_5">
	<rect x="358.3" y="129.9" class="st7" width="580.6" height="404.5"/>
	<rect x="358.3" y="707.2" class="st7" width="580.6" height="286.5"/>
</g>
<g id="Molde_Principal">
	<g>
		<path class="st11" d="M610,1269.9c1.1-0.6,1-2.5-0.5-2.4c-0.1,0-0.2,0-0.3,0c-0.4-1.3-0.9-2.6-1.3-3.9c-0.8-2.3-1.3-5.2-4.1-5.6
			c-2.6-0.4-2.9,3-3.3,4.8c-0.4,1.9-0.8,3.8-1.2,5.7c-0.7,0.1-1.4,0.1-2.1,0.2c-0.2,0-0.4,0.1-0.5,0.2c0.1-6.7,0.1-13.3,0.2-20
			c0-1.1-1.4-1.7-2.2-0.9c-2.2,2.2-3.5,4.9-4.7,7.7c-0.7,1.7-1.4,3.3-2.3,4.9c-0.2,0.3-1.7-3-1.7-3.1c-0.5-1.1-0.9-2.3-1.4-3.4
			c-0.5-1.3-2.4-1.2-2.5,0.3c-0.5,7.3-1,14.6-1.4,21.9c-0.1,1.6,2.4,1.6,2.5,0c0.3-5.3,0.7-10.6,1-15.9c1.1,2.3,2.6,4.2,4.4,2.7
			c1.5-1.2,2.2-3.3,3-5c0.8-1.9,1.5-3.8,2.6-5.5c-0.1,8.5-0.2,17-0.3,25.5c-0.1,0.2-0.2,0.4-0.2,0.7c0,0.1,0,0.1,0,0.2
			c0.1,0.6,0.5,1.4,1.3,1.3l0.1,0c0.1,0,0.2,0,0.3-0.1c1,0,1.9-1.2,1-2.1c0-2.3,0-4.6,0.1-7c0.2,0.1,0.3,0.1,0.6,0.1
			c0.6-0.1,1.1-0.1,1.7-0.2c-0.3,1.5-0.6,3.1-0.8,4.6c-0.3,1.6,2.2,2.3,2.4,0.7c0.3-1.8,0.7-3.7,1-5.5c2-0.2,4-0.4,6.1-0.6
			c0.7,2.2,1.5,4.4,2.2,6.6c0.5,1.5,3,0.9,2.4-0.7C611.4,1274.1,610.7,1272,610,1269.9z M603.4,1261.1c0.2-0.9,2,3.2,2,3.2
			c0.4,1.2,0.8,2.3,1.2,3.5c-1.6,0.1-3.2,0.3-4.7,0.4C602.4,1265.9,602.9,1263.5,603.4,1261.1z"/>
		<path class="st11" d="M623.1,1263.2c2.4-1.6,4.2-4,2.6-6.7c-2.8-4.7-9.1-0.6-11.7,1.7c-0.6,0.5-0.5,1.2,0,1.7
			c0.5,4.8,0.9,9.7,1.2,14.5c0.1,1.6,2.6,1.6,2.5,0c-0.3-5-0.7-10-1.2-15c1.8-1.6,4-3.2,6.6-2.1c0.5,1.8,0.1,3.1-1.4,3.9
			c-1,0.7-2.1,1.2-3.3,1.6c-1.3,0.4-1.2,2.6,0.3,2.5c3-0.3,5.4,0.4,5.4,3.9c0,2-1.2,4.1-1.9,6c-0.6,1.5,1.9,2.2,2.4,0.7
			c1.1-3,3-6.5,1.5-9.7C625.4,1264.5,624.3,1263.7,623.1,1263.2z"/>
		<path class="st11" d="M655.7,1269c-1.9,0.4-3.9,0.8-5.8,1.3c-2,0.4-6.7,1.7-5.7-2c1-4.1,3.1-8.2,4.6-12.2c0.6-1.5-1.9-2.2-2.4-0.7
			c-1.3,3.4-2.7,6.8-4,10.2c-0.4,1-0.9,2.3-1.1,3.6c-0.3-0.2-0.6-0.2-1-0.2c-1.9,0.4-3.8,0.6-5.8,0.6c-2.7,0-4.5-0.6-3.7-3.6
			c0.8-3.1,2.1-5.9,2.5-9.1c0.2-1.6-2.3-1.6-2.5,0c-0.3,2.6-1.4,5-2.2,7.5c-0.6,1.6-1.3,3.8-0.4,5.5c2.1,3.6,9.5,2.2,12.7,1.5
			c0.2,0,0.3-0.1,0.4-0.2c0.1,0.2,0.1,0.3,0.2,0.5c2.4,4,11.6,0.3,14.8-0.4C658,1271.1,657.3,1268.6,655.7,1269z"/>
		<path class="st11" d="M665.4,1258.2c-3.3-2.3-7.8-0.3-9.4,3c-0.3,0.6-0.1,1.2,0.3,1.5c-0.7,2.4,0.2,5.4,1.9,7.3
			c3,3.2,7.2,0.8,9.1-2.2C669.6,1264.5,668.6,1260.4,665.4,1258.2z M665.8,1265.4c-0.7,2.4-3.3,4.7-5.6,2.8c-1.6-1.3-2-4.6-0.5-6
			c0.5-0.5,0.5-1.2,0.1-1.6C662.6,1258.5,666.9,1261.1,665.8,1265.4z"/>
		<path class="st11" d="M681.1,1249.2c0.8,6.4,1.5,13,0.3,19.4c-0.1,0.7-0.6,4.6-2.2,3.2c-1.4-1.2-2.2-3.2-2.8-4.9
			c-1-2.7-1.7-5.3-3.4-7.7c-0.6-0.8-2-0.9-2.3,0.3c-1.3,5-2.7,9.9-4,14.9c-0.4,1.6,2,2.2,2.4,0.7c1.1-4,2.2-8,3.3-12
			c1.4,2.9,2,6.2,3.7,8.9c0.9,1.4,3.8,4.5,5.6,2.9c2.4-2.1,2.6-7.2,2.8-10.3c0.5-5.1-0.2-10.3-0.9-15.4
			C683.4,1247.6,680.9,1247.6,681.1,1249.2z"/>
		<path class="st11" d="M712.4,1261.4c-3.1-2.6-8.6-0.9-12.3-0.6c0,0-4,0.4-3.2-0.5c1-1.1,2.1-2.1,3.3-3c2-1.5,4.2-2.6,6.5-3.4
			c1.5-0.5,0.9-3-0.7-2.4c-3.9,1.3-7.3,3.4-10.3,6.3c-2,2-3.2,5,0.6,5.8c2.2,0.4,5.2-0.4,7.4-0.6c1.2-0.1,2.5-0.2,3.7-0.3
			c1.3-0.4,2.1,0.3,2.5,1.9c-0.5,0.4-1,0.9-1.5,1.3c-4.1,3.5-8,7.1-11.8,10.9c-1.2,1.2,0.6,2.9,1.8,1.8c3.5-3.5,7.1-6.9,10.9-10.1
			C711.1,1267,715.3,1263.8,712.4,1261.4z"/>
		<path class="st11" d="M719.1,1255.5c-2.8,4.5-5.1,9.2-6.9,14.2c-0.5,1.5,1.9,2.2,2.4,0.7c0.3-1,0.7-1.9,1.1-2.9
			c0.2,0,0.4,0,0.7-0.1c1.2-0.5,2.4-1,3.6-1.5c0.9-0.4,1.8-0.9,2.7-1.2c0.3,1.3,0.6,2.6,0.7,4c0.1,1.6,2.7,1.6,2.5,0
			c-0.4-4.8-1.9-9.3-4.6-13.3C720.8,1254.7,719.7,1254.7,719.1,1255.5z M717.1,1264.4c0.9-2,2-3.9,3.1-5.9c0.7,1.2,1.3,2.5,1.8,3.8
			c-0.4,0.1-0.7,0.3-1.1,0.5C719.6,1263.4,718.4,1263.9,717.1,1264.4z"/>
		<path class="st11" d="M739.8,1236.9l-0.1-0.2c-0.6-0.6-1.5-0.4-2,0.3c-0.9,1.2-0.9,3.1-1.1,4.5c-0.4,2.7-0.5,5.5-0.6,8.3
			c-0.1,4.6,0,9.2-0.4,13.8c-1.9-3.4-3.8-6.7-5.8-10.1c-0.6-1.1-2.4-0.6-2.4,0.6c0.2,5.3,0,10.5-0.8,15.7c-0.2,1.6,2.2,2.3,2.4,0.7
			c0.6-3.8,0.9-7.7,1-11.6c1.7,3.1,3.5,6.1,5.2,9.2c0.5,0.9,2.1,0.8,2.3-0.3c0.7-4.4,0.9-8.9,0.9-13.3c0-2.4,0-4.8,0.1-7.1
			c0.1-2.2-0.2-6.1,0.9-8.4c0.1-0.1,0.2-0.1,0.3-0.2l0.1-0.1C740.3,1238.2,740.3,1237.5,739.8,1236.9z"/>
	</g>
	<g>
		<g>
			<path class="st11" d="M427.5,1035.4c-1.4,0.5-2.8,0.9-4.1,1.4c-0.4-2.6-0.9-5.1-1.3-7.7c-0.2-1.4-2.4-0.8-2.1,0.6
				c0.5,2.6,0.9,5.2,1.4,7.8c-2.1,0.7-4.2,1.4-6.2,2.1c-0.3-1.9-0.7-3.9-0.9-5.8c-0.2-1.4-2.4-1.4-2.2,0c0.3,2.2,0.6,4.4,1,6.5
				c-1.2,0.4-2.4,0.8-3.6,1.2c-1.4,0.5-0.8,2.6,0.6,2.1c1.1-0.4,2.3-0.8,3.4-1.2c0.3,1.7,0.7,3.3,1.1,5c0.3,1.4,2.5,0.8,2.1-0.6
				c-0.4-1.7-0.8-3.4-1.1-5.1c2.1-0.7,4.1-1.4,6.2-2.1c0.5,3,1,5.9,1.5,8.9c0.2,1.4,2.4,0.8,2.1-0.6c-0.5-3-1-6-1.6-9
				c1.5-0.5,2.9-1,4.4-1.5C429.4,1037.1,428.8,1035,427.5,1035.4z"/>
			<path class="st11" d="M438.3,1043.1c-1.2,0.8-2.3,1.2-3.7,1.3c-2.1,0.1-2.2-1.9-2.1-3.4c0.2,0.3,0.6,0.5,1.1,0.4
				c1.7-0.3,3.5-0.5,5.2-0.8c1.4-0.2,0.8-2.4-0.6-2.1c-1.7,0.3-3.5,0.5-5.2,0.8c-0.1,0-0.2,0.1-0.3,0.1c0.3-2.4,1-6.6,3.9-5
				c1.2,0.7,2.4-1.2,1.1-1.9c-1.8-1.1-3.6-0.6-5.2,0.7c-2,1.6-1.9,5-2.2,7.3c-0.2,2.3-0.2,4.4,2,5.7c2.2,1.3,5.3,0.2,7.1-1.1
				C440.6,1044.2,439.5,1042.2,438.3,1043.1z"/>
			<path class="st11" d="M451.3,1027.2c0.4,3.8,0.3,7.6-0.3,11.4c-1.8,0.9-3.1,0.5-3.9-1.1c-0.4-0.6-0.8-1.2-1.1-1.8
				c-0.8-1.3-1.5-2.7-2.1-4.2c-0.5-1-2.2-0.5-2.1,0.6c0.4,4.1-0.1,8-1.4,11.9c-0.5,1.4,1.7,1.9,2.1,0.6c0.9-2.5,1.4-5,1.5-7.6
				c1.6,2.7,3.7,5.1,6.9,4.8c2.2-0.3,2.1-2.1,2.4-3.8c0.6-3.6,0.5-7.2,0.2-10.7C453.4,1025.8,451.1,1025.8,451.3,1027.2z"/>
			<path class="st11" d="M462.9,1034c2.2-1.6,4.2-4,3-6.6c-1.3-3-8.1-0.1-10,0.9c-0.5,0.1-0.9,0.4-0.9,1.1c0.4,4.2,0.7,8.4,1.1,12.6
				c0.1,1.4,2.4,1.4,2.2,0c-0.4-4-0.7-7.9-1.1-11.9c1.7-0.9,3.3-1.4,5.2-1.5c3.9-0.3-2.1,4.4-2.6,4.7c-0.9,0.5-0.6,1.8,0.3,2
				c4.1,1.1,6.5,4.8,6.1,8.9c-0.1,1.4,2.1,1.4,2.2,0C468.8,1039.9,466.6,1036,462.9,1034z"/>
			<path class="st11" d="M470.1,1033.5c0.3,3,0.5,5.9,0.4,8.9c-0.1,1.4,2.2,1.4,2.2,0c0.1-3,0-5.9-0.4-8.9
				C472.1,1032.1,469.9,1032.1,470.1,1033.5z"/>
			<path class="st11" d="M488.4,1024.7c-3.6-2.5-7.6,1.2-9.9,5.1c-0.2,0.1-0.3,0.2-0.4,0.4c-2.7,4.8-2,15,5.8,12.3
				c0.5-0.2,1-0.4,1.4-0.8c0,0.4,0,0.7,0,0.9c0,1.5,0.4,2.8,1.2,4.1c0.7,1.2,2.7,0.1,1.9-1.1c-1.2-1.9-1-4.1-1-6.2
				c1.1-1.8,1.7-3.9,2.1-5.6C490.1,1031.5,490.8,1026.3,488.4,1024.7z M478.6,1036.8c1.8,0.4,4.5-0.1,5.3-0.2
				c0.8-0.1,1.2,0.7,1.4,1.8c-0.2,0.4-0.5,0.7-0.8,1.1C481.7,1042.8,479.1,1039.5,478.6,1036.8z M486.7,1035.6
				c-0.1-0.3-0.3-0.6-0.5-0.8c-0.2-0.3-0.6-0.6-1-0.6c-1.3,0.1-2.6,0.2-3.9,0.3c-2.2,0.2-2-1.4-1.1-3c0.7-1.2,1.6-2.4,2.5-3.4
				c1.6-2,4.9-1,5,1.6C487.8,1031.6,487.4,1033.7,486.7,1035.6z"/>
			<path class="st11" d="M505.5,1030c-1.4,4.4-3.5,8.3-6.4,11.8c-0.9,1.1-3.8,3.9-5.1,0.5c-0.4-1-0.3-2.2-0.3-3.2
				c0-2.9,0.5-5.7,1.3-8.5c0.4-1.4-1.8-2-2.1-0.6c-1.1,4-4,16.5,3.5,16.1c2.7-0.1,4.8-3.2,6.2-5.2c2.3-3.1,3.9-6.7,5.1-10.3
				C508.1,1029.2,505.9,1028.6,505.5,1030z"/>
			<path class="st11" d="M520.7,1040.9c-1.5,0.6-12,3.4-10.7-1c0.1-0.2,0.1-0.4,0.2-0.6c0.2,0.1,0.4,0.2,0.6,0.2c2.2,0,4.5,0,6.7,0
				c1.4,0,1.4-2.2,0-2.2c-2,0-4,0-6,0c1.7-2,4.3-3.3,6.8-3.5c1.4-0.1,1.4-2.4,0-2.2c-4.6,0.4-10,3.8-10.7,8.7
				c-0.9,6.5,10.5,4.1,13.6,2.8C522.6,1042.6,522,1040.4,520.7,1040.9z"/>
			<path class="st11" d="M555.9,1020.3c-0.3-0.5-1-0.7-1.5-0.4c-3.7,2.5-7.1,5.1-10.4,8.1c-1.9,1.7-3.7,3.6-5.5,5.4
				c-1.2,1.3-3.1-5-3.4-5.7c-0.4-0.8-1.8-0.7-2,0.3c-1,4.6-2.4,9.1-4.2,13.5c-0.5,1.3,1.6,1.9,2.1,0.6c1.3-3.3,2.4-6.6,3.3-9.9
				c0.4,1.2,0.8,2.3,1.8,3.2c0.6,0.6,2.4,1.4,3.1,0.6c4.4-4.8,9.2-9.1,14.5-12.9c-0.6,1.6-1.9,3.7-2.2,4.4c-1,2.2-2,4.4-3.1,6.7
				c-2,4.4-4.1,8.9-6.1,13.3c-0.6,1.3,1.3,2.4,1.9,1.1c2.7-5.8,5.3-11.6,8-17.3c1.2-2.7,2.5-5.3,3.7-8
				C556.5,1022.1,556.6,1021.2,555.9,1020.3z"/>
			<path class="st11" d="M549.8,1043.2c-1.4,0-1.4,2.2,0,2.2C551.3,1045.4,551.3,1043.2,549.8,1043.2z"/>
			<path class="st11" d="M467.8,1028.5c1.6,0.9,3.3,1.9,4.9,2.8c1.1,0.6,2.1-1.1,1-1.7c-1.6-0.9-3.3-1.9-4.9-2.8
				C467.7,1026.1,466.7,1027.8,467.8,1028.5z"/>
			<path class="st11" d="M469.3,1033c1.6-2.3,3.3-4.5,4.9-6.8c0.8-1-1-2-1.7-1c-1.6,2.3-3.3,4.5-4.9,6.8
				C466.8,1033,468.6,1034,469.3,1033z"/>
		</g>
	</g>
	<rect x="402.3" y="551.1" class="st9" width="492.5" height="113.8"/>
	<text transform="matrix(1 0 0 1 402.2705 563.0782)"><tspan x="0" y="0" class="st15 st16">yONKERS</tspan><tspan x="40.9" y="0" class="st15 st16 st17"> </tspan><tspan x="49.5" y="0" class="st18 st16">Lorem</tspan><tspan x="94.3" y="0" class="st18 st16 st19"> </tspan><tspan x="107.2" y="0" class="st18 st16">ipsum</tspan><tspan x="150.3" y="0" class="st18 st16 st19"> </tspan><tspan x="163.2" y="0" class="st18 st16">dolor</tspan><tspan x="198.2" y="0" class="st18 st16 st19"> </tspan><tspan x="211.1" y="0" class="st18 st16">sit</tspan><tspan x="227.4" y="0" class="st18 st16 st19"> </tspan><tspan x="240.3" y="0" class="st18 st16">amet,</tspan><tspan x="279.2" y="0" class="st18 st16 st19"> </tspan><tspan x="292" y="0" class="st18 st16">consectetur</tspan><tspan x="374.2" y="0" class="st18 st16 st19"> </tspan><tspan x="387" y="0" class="st18 st16">adipiscing</tspan><tspan x="456.5" y="0" class="st18 st16 st19"> </tspan><tspan x="469.4" y="0" class="st18 st16">elit. </tspan><tspan x="0" y="19.2" class="st18 st16">Pellentesque</tspan><tspan x="87.8" y="19.2" class="st18 st16 st20"> </tspan><tspan x="95.4" y="19.2" class="st18 st16">efficitur</tspan><tspan x="147.4" y="19.2" class="st18 st16 st20"> </tspan><tspan x="155" y="19.2" class="st18 st16">nisl</tspan><tspan x="178.3" y="19.2" class="st18 st16 st20"> </tspan><tspan x="186" y="19.2" class="st18 st16">massa,</tspan><tspan x="236.1" y="19.2" class="st18 st16 st20"> </tspan><tspan x="243.7" y="19.2" class="st18 st16">non</tspan><tspan x="270.1" y="19.2" class="st18 st16 st20"> </tspan><tspan x="277.7" y="19.2" class="st18 st16">vulputate</tspan><tspan x="341.5" y="19.2" class="st18 st16 st20"> </tspan><tspan x="349.2" y="19.2" class="st18 st16">orci</tspan><tspan x="374.7" y="19.2" class="st18 st16 st20"> </tspan><tspan x="382.4" y="19.2" class="st18 st16">mollis</tspan><tspan x="423.4" y="19.2" class="st18 st16 st20"> </tspan><tspan x="431" y="19.2" class="st18 st16">a.</tspan><tspan x="442.9" y="19.2" class="st18 st16 st20"> </tspan><tspan x="450.5" y="19.2" class="st18 st16">Fusce </tspan><tspan x="0" y="38.4" class="st18 st16">feugiat</tspan><tspan x="47.4" y="38.4" class="st18 st16 st21"> </tspan><tspan x="52.9" y="38.4" class="st18 st16">pretium</tspan><tspan x="106.5" y="38.4" class="st18 st16 st21"> </tspan><tspan x="112" y="38.4" class="st18 st16">gravida.</tspan><tspan x="166.1" y="38.4" class="st18 st16 st21"> </tspan><tspan x="171.6" y="38.4" class="st18 st16">Ut</tspan><tspan x="187.3" y="38.4" class="st18 st16 st21"> </tspan><tspan x="192.8" y="38.4" class="st18 st16">urna</tspan><tspan x="224.1" y="38.4" class="st18 st16 st21"> </tspan><tspan x="229.5" y="38.4" class="st18 st16">ligula,</tspan><tspan x="268.4" y="38.4" class="st18 st16 st21"> </tspan><tspan x="273.8" y="38.4" class="st18 st16">luctus</tspan><tspan x="315.8" y="38.4" class="st18 st16 st21"> </tspan><tspan x="321.2" y="38.4" class="st18 st16">nec</tspan><tspan x="346.2" y="38.4" class="st18 st16 st21"> </tspan><tspan x="351.6" y="38.4" class="st18 st16">tincidunt</tspan><tspan x="411.5" y="38.4" class="st18 st16 st21"> </tspan><tspan x="416.9" y="38.4" class="st18 st16">at,</tspan><tspan x="433.4" y="38.4" class="st18 st16 st21"> </tspan><tspan x="438.9" y="38.4" class="st18 st16">pretium </tspan><tspan x="0" y="57.6" class="st18 st16">eget</tspan><tspan x="30" y="57.6" class="st18 st16 st21"> </tspan><tspan x="34.9" y="57.6" class="st18 st16">felis.</tspan><tspan x="66" y="57.6" class="st18 st16 st21"> </tspan><tspan x="71" y="57.6" class="st18 st16">Quisque</tspan><tspan x="127.2" y="57.6" class="st18 st16 st21"> </tspan><tspan x="132.2" y="57.6" class="st18 st16">pharetra</tspan><tspan x="190.4" y="57.6" class="st18 st16 st21"> </tspan><tspan x="195.3" y="57.6" class="st18 st16">purus</tspan><tspan x="234.9" y="57.6" class="st18 st16 st21"> </tspan><tspan x="239.9" y="57.6" class="st18 st16">aliquam</tspan><tspan x="295.2" y="57.6" class="st18 st16 st21"> </tspan><tspan x="300.2" y="57.6" class="st18 st16">pellentesque</tspan><tspan x="387.1" y="57.6" class="st18 st16 st21"> </tspan><tspan x="392" y="57.6" class="st18 st16">condimentum. </tspan><tspan x="0" y="76.8" class="st18 st16">Proin</tspan><tspan x="35.8" y="76.8" class="st18 st16"> </tspan><tspan x="39.5" y="76.8" class="st18 st16">imperdiet</tspan><tspan x="104.4" y="76.8" class="st18 st16"> </tspan><tspan x="108.1" y="76.8" class="st18 st16">massa</tspan><tspan x="155.2" y="76.8" class="st18 st16"> </tspan><tspan x="158.9" y="76.8" class="st18 st16">sed</tspan><tspan x="183.7" y="76.8" class="st18 st16"> </tspan><tspan x="187.3" y="76.8" class="st18 st16">nunc</tspan><tspan x="221.7" y="76.8" class="st18 st16"> </tspan><tspan x="225.3" y="76.8" class="st18 st16">scelerisque,</tspan><tspan x="306" y="76.8" class="st18 st16"> </tspan><tspan x="309.6" y="76.8" class="st18 st16">id</tspan><tspan x="321.7" y="76.8" class="st18 st16"> </tspan><tspan x="325.3" y="76.8" class="st18 st16">lobortis</tspan><tspan x="376.6" y="76.8" class="st18 st16"> </tspan><tspan x="380.3" y="76.8" class="st18 st16">augue</tspan><tspan x="423.1" y="76.8" class="st18 st16"> </tspan><tspan x="426.7" y="76.8" class="st18 st16">interdum. </tspan><tspan x="0" y="96" class="st18 st16">Sed vestibulum dui non sem aliquam, quis scelerisque eros efficitur. </tspan></text>
	<rect x="412.8" y="1061.2" class="st9" width="284.9" height="146"/>
	<text transform="matrix(1 0 0 1 412.8228 1071.7147)"><tspan x="0" y="0" class="st18 st22">Lorem</tspan><tspan x="39.2" y="0" class="st18 st22 st23"> </tspan><tspan x="50.7" y="0" class="st18 st22">ipsum</tspan><tspan x="88.4" y="0" class="st18 st22 st23"> </tspan><tspan x="99.8" y="0" class="st18 st22">dolor</tspan><tspan x="130.5" y="0" class="st18 st22 st23"> </tspan><tspan x="141.9" y="0" class="st18 st22">sit</tspan><tspan x="156.2" y="0" class="st18 st22 st23"> </tspan><tspan x="167.6" y="0" class="st18 st22">amet,</tspan><tspan x="201.7" y="0" class="st18 st22 st23"> </tspan><tspan x="213.1" y="0" class="st18 st22">consectetur </tspan><tspan x="0" y="16.8" class="st18 st22">adipiscing</tspan><tspan x="60.8" y="16.8" class="st18 st22"> </tspan><tspan x="64.2" y="16.8" class="st18 st22">elit.</tspan><tspan x="84.5" y="16.8" class="st18 st22"> </tspan><tspan x="88" y="16.8" class="st18 st22">Pellentesque</tspan><tspan x="164.7" y="16.8" class="st18 st22"> </tspan><tspan x="168.2" y="16.8" class="st18 st22">efficitur</tspan><tspan x="213.7" y="16.8" class="st18 st22"> </tspan><tspan x="217.2" y="16.8" class="st18 st22">nisl</tspan><tspan x="237.6" y="16.8" class="st18 st22"> </tspan><tspan x="241.1" y="16.8" class="st18 st22">massa, </tspan><tspan x="0" y="33.6" class="st18 st22">non</tspan><tspan x="23" y="33.6" class="st18 st22 st17"> </tspan><tspan x="32.9" y="33.6" class="st18 st22">vulputate</tspan><tspan x="88.7" y="33.6" class="st18 st22 st17"> </tspan><tspan x="98.6" y="33.6" class="st18 st22">orci</tspan><tspan x="121" y="33.6" class="st18 st22 st17"> </tspan><tspan x="130.8" y="33.6" class="st18 st22">mollis</tspan><tspan x="166.7" y="33.6" class="st18 st22 st17"> </tspan><tspan x="176.5" y="33.6" class="st18 st22">a.</tspan><tspan x="186.9" y="33.6" class="st18 st22 st17"> </tspan><tspan x="196.8" y="33.6" class="st18 st22">Fusce</tspan><tspan x="233.6" y="33.6" class="st18 st22 st17"> </tspan><tspan x="243.4" y="33.6" class="st18 st22">feugiat </tspan><tspan x="0" y="50.4" class="st18 st22">pretium</tspan><tspan x="46.9" y="50.4" class="st18 st22 st17"> </tspan><tspan x="56.4" y="50.4" class="st18 st22">gravida.</tspan><tspan x="103.8" y="50.4" class="st18 st22 st17"> </tspan><tspan x="113.3" y="50.4" class="st18 st22">Ut</tspan><tspan x="127" y="50.4" class="st18 st22 st17"> </tspan><tspan x="136.5" y="50.4" class="st18 st22">urna</tspan><tspan x="163.9" y="50.4" class="st18 st22 st17"> </tspan><tspan x="173.4" y="50.4" class="st18 st22">ligula,</tspan><tspan x="207.4" y="50.4" class="st18 st22 st17"> </tspan><tspan x="216.9" y="50.4" class="st18 st22">luctus</tspan><tspan x="253.6" y="50.4" class="st18 st22 st17"> </tspan><tspan x="263.1" y="50.4" class="st18 st22">nec </tspan><tspan x="0" y="67.2" class="st18 st22">tiefficitur</tspan><tspan x="52.8" y="67.2" class="st18 st22"> </tspan><tspan x="55.7" y="67.2" class="st18 st22">nisl</tspan><tspan x="76.1" y="67.2" class="st18 st22"> </tspan><tspan x="79" y="67.2" class="st18 st22">massa,</tspan><tspan x="122.9" y="67.2" class="st18 st22"> </tspan><tspan x="125.8" y="67.2" class="st18 st22">non</tspan><tspan x="148.8" y="67.2" class="st18 st22"> </tspan><tspan x="151.7" y="67.2" class="st18 st22">vulputate</tspan><tspan x="207.6" y="67.2" class="st18 st22"> </tspan><tspan x="210.5" y="67.2" class="st18 st22">orci</tspan><tspan x="232.9" y="67.2" class="st18 st22"> </tspan><tspan x="235.8" y="67.2" class="st18 st22">mollis</tspan><tspan x="271.7" y="67.2" class="st18 st22"> </tspan><tspan x="274.6" y="67.2" class="st18 st22">a. </tspan><tspan x="0" y="84" class="st18 st22">Fusce</tspan><tspan x="36.8" y="84" class="st18 st22 st24"> </tspan><tspan x="43" y="84" class="st18 st22">feugiat</tspan><tspan x="84.5" y="84" class="st18 st22 st24"> </tspan><tspan x="90.7" y="84" class="st18 st22">pretium</tspan><tspan x="137.6" y="84" class="st18 st22 st24"> </tspan><tspan x="143.8" y="84" class="st18 st22">gravida.</tspan><tspan x="191.2" y="84" class="st18 st22 st24"> </tspan><tspan x="197.4" y="84" class="st18 st22">Ut</tspan><tspan x="211.2" y="84" class="st18 st22 st24"> </tspan><tspan x="217.3" y="84" class="st18 st22">urna</tspan><tspan x="244.7" y="84" class="st18 st22 st24"> </tspan><tspan x="250.9" y="84" class="st18 st22">ligula, </tspan><tspan x="0" y="100.8" class="st18 st22">luctus nec ti</tspan></text>
	<rect x="579.2" y="1288.9" class="st9" width="284.9" height="146"/>
	<text transform="matrix(1 0 0 1 579.2398 1299.3876)"><tspan x="0" y="0" class="st18 st22">Lorem</tspan><tspan x="39.2" y="0" class="st18 st22 st23"> </tspan><tspan x="50.7" y="0" class="st18 st22">ipsum</tspan><tspan x="88.4" y="0" class="st18 st22 st23"> </tspan><tspan x="99.8" y="0" class="st18 st22">dolor</tspan><tspan x="130.5" y="0" class="st18 st22 st23"> </tspan><tspan x="141.9" y="0" class="st18 st22">sit</tspan><tspan x="156.2" y="0" class="st18 st22 st23"> </tspan><tspan x="167.6" y="0" class="st18 st22">amet,</tspan><tspan x="201.7" y="0" class="st18 st22 st23"> </tspan><tspan x="213.1" y="0" class="st18 st22">consectetur </tspan><tspan x="0" y="16.8" class="st18 st22">adipiscing</tspan><tspan x="60.8" y="16.8" class="st18 st22"> </tspan><tspan x="64.2" y="16.8" class="st18 st22">elit.</tspan><tspan x="84.5" y="16.8" class="st18 st22"> </tspan><tspan x="88" y="16.8" class="st18 st22">Pellentesque</tspan><tspan x="164.7" y="16.8" class="st18 st22"> </tspan><tspan x="168.2" y="16.8" class="st18 st22">efficitur</tspan><tspan x="213.7" y="16.8" class="st18 st22"> </tspan><tspan x="217.2" y="16.8" class="st18 st22">nisl</tspan><tspan x="237.6" y="16.8" class="st18 st22"> </tspan><tspan x="241.1" y="16.8" class="st18 st22">massa, </tspan><tspan x="0" y="33.6" class="st18 st22">non</tspan><tspan x="23" y="33.6" class="st18 st22 st17"> </tspan><tspan x="32.9" y="33.6" class="st18 st22">vulputate</tspan><tspan x="88.7" y="33.6" class="st18 st22 st17"> </tspan><tspan x="98.6" y="33.6" class="st18 st22">orci</tspan><tspan x="121" y="33.6" class="st18 st22 st17"> </tspan><tspan x="130.8" y="33.6" class="st18 st22">mollis</tspan><tspan x="166.7" y="33.6" class="st18 st22 st17"> </tspan><tspan x="176.5" y="33.6" class="st18 st22">a.</tspan><tspan x="186.9" y="33.6" class="st18 st22 st17"> </tspan><tspan x="196.8" y="33.6" class="st18 st22">Fusce</tspan><tspan x="233.6" y="33.6" class="st18 st22 st17"> </tspan><tspan x="243.4" y="33.6" class="st18 st22">feugiat </tspan><tspan x="0" y="50.4" class="st18 st22">pretium</tspan><tspan x="46.9" y="50.4" class="st18 st22 st17"> </tspan><tspan x="56.4" y="50.4" class="st18 st22">gravida.</tspan><tspan x="103.8" y="50.4" class="st18 st22 st17"> </tspan><tspan x="113.3" y="50.4" class="st18 st22">Ut</tspan><tspan x="127" y="50.4" class="st18 st22 st17"> </tspan><tspan x="136.5" y="50.4" class="st18 st22">urna</tspan><tspan x="163.9" y="50.4" class="st18 st22 st17"> </tspan><tspan x="173.4" y="50.4" class="st18 st22">ligula,</tspan><tspan x="207.4" y="50.4" class="st18 st22 st17"> </tspan><tspan x="216.9" y="50.4" class="st18 st22">luctus</tspan><tspan x="253.6" y="50.4" class="st18 st22 st17"> </tspan><tspan x="263.1" y="50.4" class="st18 st22">nec </tspan><tspan x="0" y="67.2" class="st18 st22">tiefficitur</tspan><tspan x="52.8" y="67.2" class="st18 st22"> </tspan><tspan x="55.7" y="67.2" class="st18 st22">nisl</tspan><tspan x="76.1" y="67.2" class="st18 st22"> </tspan><tspan x="79" y="67.2" class="st18 st22">massa,</tspan><tspan x="122.9" y="67.2" class="st18 st22"> </tspan><tspan x="125.8" y="67.2" class="st18 st22">non</tspan><tspan x="148.8" y="67.2" class="st18 st22"> </tspan><tspan x="151.7" y="67.2" class="st18 st22">vulputate</tspan><tspan x="207.6" y="67.2" class="st18 st22"> </tspan><tspan x="210.5" y="67.2" class="st18 st22">orci</tspan><tspan x="232.9" y="67.2" class="st18 st22"> </tspan><tspan x="235.8" y="67.2" class="st18 st22">mollis</tspan><tspan x="271.7" y="67.2" class="st18 st22"> </tspan><tspan x="274.6" y="67.2" class="st18 st22">a. </tspan><tspan x="0" y="84" class="st18 st22">Fusce</tspan><tspan x="36.8" y="84" class="st18 st22 st24"> </tspan><tspan x="43" y="84" class="st18 st22">feugiat</tspan><tspan x="84.5" y="84" class="st18 st22 st24"> </tspan><tspan x="90.7" y="84" class="st18 st22">pretium</tspan><tspan x="137.6" y="84" class="st18 st22 st24"> </tspan><tspan x="143.8" y="84" class="st18 st22">gravida.</tspan><tspan x="191.2" y="84" class="st18 st22 st24"> </tspan><tspan x="197.4" y="84" class="st18 st22">Ut</tspan><tspan x="211.2" y="84" class="st18 st22 st24"> </tspan><tspan x="217.3" y="84" class="st18 st22">urna</tspan><tspan x="244.7" y="84" class="st18 st22 st24"> </tspan><tspan x="250.9" y="84" class="st18 st22">ligula, </tspan><tspan x="0" y="100.8" class="st18 st22">luctus nec ti</tspan></text>
	<g>
		<g>
			<path class="st25" d="M874.5,1098.6c-0.2-1.3-1.3-2.2-2.7-2.5l-113.6-22c-1.5-0.3-2.8,0.2-3.5,1.3c-0.4,0.6-0.9,1.9,0.1,3.6
				l19.6,37.7c0.7,1.3,1.9,2.2,3.3,2.5c1,0.2,1.9,0.1,2.8-0.3l30-14.2c0.1-0.1,0.4-0.1,0.8,0c0.3,0.1,0.5,0.2,0.7,0.3l22.5,24.2
				c0.7,0.7,1.5,1.2,2.5,1.4c1.4,0.3,2.9-0.1,4-1.1l32.2-27.4C874.6,1100.7,874.6,1099.3,874.5,1098.6z"/>
			<path class="st14" d="M774.1,1087.5c1.1,0,2-1.3,2.7-2c1.1-1.1,2.3-2,3.4-3.1c0.5-0.5-0.2-1.1-0.7-0.8c-1.3,0.7-2.5,1.8-3.8,2.7
				c-0.9,0.7-2.3,1.5-2.3,2.7C773.5,1087.3,773.8,1087.5,774.1,1087.5z"/>
			<path class="st14" d="M794.7,1105.2c-2.4,0.7-4.7,2.4-6.8,3.7c-2.2,1.4-4.3,2.9-6.1,4.7c-0.2,0.2,0.1,0.6,0.4,0.4
				c2.2-1.3,4.3-2.8,6.4-4.2c2.1-1.4,4.6-2.5,6.5-4.2C795.2,1105.5,794.9,1105.1,794.7,1105.2z"/>
			<path class="st14" d="M831.5,1092.3c0.3-0.3,0.1-0.9-0.3-0.7c-1.2,0.4-2.2,1.1-3.2,1.8c-0.7,0.5-2.1,1.3-2.3,2.2
				c-0.1,0.2,0.1,0.5,0.4,0.5c1-0.1,1.8-1.2,2.5-1.8C829.6,1093.7,830.6,1093,831.5,1092.3z"/>
			<path class="st14" d="M848.2,1113.7c-2.5,0.8-4.8,3.2-6.8,4.8c-2.4,1.8-5,3.7-6.9,6c-0.1,0.1,0,0.3,0.2,0.2
				c2.7-1.3,5.1-3.3,7.4-5.2c2.1-1.6,5-3.3,6.4-5.5C848.6,1113.8,848.4,1113.6,848.2,1113.7z"/>
			<path class="st14" d="M849.7,1094.1l-12.9-2.5c-1.8,1.1-3.5,2.4-5.1,3.6c-2.2,1.6-5.2,3.8-4.2,6.9c0.4,1.1,1.1,1.7,2.2,2.2
				c1.3,0.5,2.4,0.7,2.3,2.4c-0.1,1.1-0.9,2-1.6,2.8c-1.8,1.9-4.1,3.7-6,5.7l7.2,7.7c0.9-0.8,1.9-1.5,2.8-2.3
				c4.2-3.3,8.8-6.7,12.3-10.9c1.1-1.4,1.9-3,1.5-4.8c-0.2-0.7-0.5-1.5-1.1-2c-1-0.8-2.7-0.7-3.4-1.8c-1.6-2.2,3.9-5.6,5.3-6.6
				C849.3,1094.5,849.5,1094.3,849.7,1094.1z M834.3,1103.1l-0.1-0.2c0.1,0,0.2,0.1,0.3,0.1L834.3,1103.1z M843.5,1110.7
				c0.2-0.2,0.4-0.4,0.7-0.6c-0.4,0.4-0.8,0.8-1.2,1.1C843.1,1111,843.3,1110.8,843.5,1110.7z"/>
			<path class="st14" d="M780.8,1085.4c-2.3,1.4-5.5,3.4-4.8,6.6c0.3,1.2,1,1.8,2,2.3c1.3,0.6,2.4,0.9,2.1,2.6
				c-0.2,1.1-1,1.9-1.8,2.6c-2.3,2.1-5.1,3.9-7.4,6.1l4.8,9.2c1.9-1.3,3.8-2.6,5.8-3.9c4.4-3,9.3-6,13.1-9.9
				c1.2-1.3,2.2-2.9,1.9-4.7c-0.1-0.7-0.4-1.5-1-2.1c-0.9-0.9-2.6-0.9-3.3-2c-1.4-2.3,4.3-5.3,5.8-6.2c0.8-0.5,1.7-1,2.5-1.5
				l-2.2-0.4l-0.1,0.1l0-0.1l-11.6-2.2C784.6,1083,782.6,1084.3,780.8,1085.4z M782.7,1093.4c0-0.1-0.1-0.1-0.1-0.2
				c0.1,0.1,0.2,0.1,0.2,0.1L782.7,1093.4z M791.2,1101.7c0.2-0.2,0.5-0.4,0.7-0.6c-0.4,0.4-0.8,0.7-1.3,1
				C790.8,1102,791,1101.8,791.2,1101.7z"/>
		</g>
		<path d="M771.1,1072.7c16.7-5.1,34.6-6,51.8-3.2c9.1,1.5,18,4.4,26.2,8.8c8.8,4.8,16.8,11.8,24.2,18.4c1.9,1.7,4.8-0.9,2.9-2.6
			c-7.4-6.6-15.3-13.5-23.9-18.5c-8.1-4.7-17.1-7.7-26.2-9.5c-18.3-3.7-37.8-2.7-55.7,2.7C767.9,1069.6,768.7,1073.4,771.1,1072.7z"
			/>
		<path d="M769.3,1083.2c1.5-17.7,4.3-36.3,18.3-48.7c14-12.4,35.4-16.1,53.2-11.7c17,4.2,31.3,17.2,37.1,33.7
			c5.4,15.5-0.8,34.2-10.3,46.8c-1.5,2,1.7,4.1,3.2,2.2c10.3-13.5,16.3-33.1,10.9-49.7c-5.7-17.6-20.8-31-38.4-36.2
			c-18.9-5.6-40.9-1.3-56.5,10.6c-16.4,12.5-19.9,33.7-21.5,52.9C765.2,1085.5,769.1,1085.7,769.3,1083.2z"/>
		<path d="M831.2,1020c1.5-2.8,3.6-4.6,6.7-5.3c3.7-0.9,9.8,1.8,8.9,6.5c-0.5,2.4,3.2,3.7,3.7,1.2c1.1-5.6-2.7-9.7-7.8-11.3
			c-5.9-1.8-12,1.5-14.7,6.7C826.8,1020.1,830,1022.2,831.2,1020z"/>
		<path d="M853.1,1153.3c-1.1-1.7-2.8-2.8-4.5-3.9c-1.4-0.9-2.2-1.6-2.9-3.2c-1.8-4,0.2-6.3,3.7-7.8c5.1-2.1,11.6-4.3,13.8-9.9
			c2.9-7.3-2.2-14-2.4-21.2c-0.2-7.3,5.8-12.5,5.1-19.8c-0.2-2.5-4.1-1.7-3.8,0.8c0.4,4-2,7.1-3.5,10.5c-1.4,3-1.9,6.7-1.6,10
			c0.7,7.9,7.2,16.7-1.5,22.4c-4.9,3.2-12.5,3.5-14.4,9.9c-0.8,2.6,0.6,6.4,2.1,8.6c1.6,2.4,5,3,6.5,5.4
			C851,1157.1,854.4,1155.4,853.1,1153.3z"/>
		<path d="M868.5,1104c-0.8,6,3.7,10,7.8,13.6c2.6,2.3,5.1,4.8,4.9,8.5c-0.1,3-2.1,6-2.6,9c-0.5,2.8,0.8,3.8,2.8,5.2
			c2.2,1.6,3.8,3.7,2,6.4c-1,1.5-2.6,2.8-3.8,4.1c-4.7,4.9-9.8,8.5-16.7,6.6c-2.4-0.7-3.7,3-1.2,3.7c6.6,1.8,12.1,0.1,17.3-4.3
			c4.5-3.7,11.6-9.5,8.3-15.9c-0.6-1.2-1.7-2.3-2.8-3.2c-2.2-1.8-2.1-2.5-1.2-5.3c1.1-3.4,2.4-6.3,1.5-9.9
			c-1.8-7.4-13.4-10.2-12.3-18.4C872.7,1101.8,868.9,1101.6,868.5,1104z"/>
		<path d="M804.1,1109.9c-4,8.8-14.2,14.4-13.4,25.1c0.5,6.3,7.2,11,13.1,8.6c2.3-0.9,0.5-4.4-1.8-3.5c-3.3,1.3-6.3-1.6-7.3-4.5
			c-1.2-3.6,1-7.5,2.9-10.4c3.2-4.9,7.7-8.7,10.2-14.1C808.9,1108.8,805.2,1107.6,804.1,1109.9z"/>
		<path d="M779.7,1144.8c11.7,14.7,32.2,20.3,49.8,13.8c2.4-0.9,0.6-4.3-1.8-3.5c-16,5.9-34.6,0.3-45.1-12.9
			C781.1,1140.2,778.2,1142.8,779.7,1144.8z"/>
		<path d="M779.4,1143c-4.8,13,1.7,26.5,13.9,32.3c6.1,2.9,13.4,3.1,19.6,0.7c3.1-1.2,5.6-4,7.8-6.4c3-3.3,6-6.7,9-10
			c1.7-1.8-0.9-4.8-2.6-2.9c-4.1,4.5-7.9,9.3-12.4,13.4c-4.8,4.5-12.2,4.2-18.1,2.3c-11.8-3.7-17.8-16.8-13.6-28.2
			C784,1141.9,780.3,1140.6,779.4,1143z"/>
		<path d="M780.1,1157.7c10.1,8.7,22.8,13.8,36.1,14.6c2.5,0.1,2.7-3.7,0.2-3.9c-12.7-0.8-24.5-5.6-34.2-13.9
			C780.3,1152.8,778.2,1156,780.1,1157.7z"/>
		<path d="M875.9,1096.4c8.8-0.6,18.9,1.5,25.2,8.1c2.1,2.1,2.9,5.1,2.1,8c-0.7,2.8-4.1,4.1-6.5,4.8c-4.7,1.5-9.6,1.5-14.4,0.7
			c-2.5-0.4-2.7,3.5-0.2,3.9c9.7,1.7,27.1-0.4,25.1-13.9c-0.8-5.5-6.3-9.4-10.9-11.6c-6.4-3-13.2-4.4-20.2-3.9
			C873.7,1092.7,873.4,1096.6,875.9,1096.4z"/>
		<path d="M829.5,1182.9c-1.2,6.4,2.8,11.8,9.3,12.6c2.6,0.3,5.3-0.8,7.2-2.6c1.1-1.1,1.6-2.6,2.3-3.9c1.4-2.9,6.7,0,8.6,0.8
			c2.4,0.9,5.5,2.4,7.5,0c2.2-2.6,2.8-6.5,2.6-9.7c-0.3-3.5-1.5-6.5-3.5-9.3c-1.5-2.2-2.5-2.9-1.4-5.6c0.8-1.9,1.6-3.5,2-5.6
			c0.5-2.5-3.4-2.7-3.9-0.2c-1,5.3-4.7,8.3-0.3,13.1c2.3,2.5,3.2,5.8,3.3,9.1c0,1.9-0.5,3.8-1.4,5.4c-0.4,0.8-4.3-1.1-4.8-1.3
			c-4.3-1.6-8.9-3.3-11.9,1.2c-2,3-3,5.6-7.3,4.6c-3.9-0.9-5-4.9-4.3-8.3C833.9,1180.6,830,1180.5,829.5,1182.9z"/>
		<path d="M739.6,1154.5c-2.2,3.2-5.6,7.4-4.7,11.6c0.8,3.5,5.4,3.1,7.8,4.4c1.3,0.6,0.8,3.9,1.9,5.1c1.5,1.5,3,2.2,5.1,2.5
			c2.8,0.4,8.7-1.1,8.6-4.7c-0.1-2.5-4-2.7-3.9-0.2c0,0.6-4.5,1.1-4.5,1.1c-2.7,0.1-2.7-3.1-3.2-4.7c-0.4-1.2-1.4-2.1-2.6-2.6
			c-1.4-0.7-3-0.9-4.5-1.3c-2.9-0.8,2.4-7.8,3.2-8.9C744.2,1154.6,741,1152.5,739.6,1154.5z"/>
		<path d="M867.8,1120.8c2.3,4.2,1.8,8.8-1.7,12.2c-2,2-4.7,3.2-6.5,5.5c-2.5,3.3-3.2,8.2,1,10.5c1.3,0.7,2.6-1.2,1.3-1.9
			c-7.4-3.9,5.9-11.8,8.1-15.2c2.4-3.6,1.7-8.5-0.2-12.1C869.2,1118.4,867.1,1119.5,867.8,1120.8z"/>
		<path d="M872.1,1140.3c-0.6,1.7-1,3.6-0.9,5.4c0,1.5,2.4,1.6,2.3,0.1c0-1.7,0.2-3.3,0.8-4.8
			C874.9,1139.7,872.7,1138.9,872.1,1140.3z"/>
		<path d="M762.7,1096.9c0.8,10.2-3.9,19.6-6.6,29.2c-2.4,8.5-3.6,17.5-3.4,26.3c0.2,16.2,5.3,37.2,21.6,44.1
			c14.6,6.1,33.2,4.5,46.9-3.3c15.6-8.9,21.7-26.4,26.9-42.5c0.8-2.4-2.9-3.6-3.7-1.2c-4.9,15.4-10.4,31.5-24.9,40.3
			c-12.9,7.8-30,8.2-43.9,3.1c-8.8-3.3-13-12-15.7-20.4c-2.7-8-3.5-16.6-3.2-25c0.3-8.6,2.1-17,4.7-25.2c2.7-8.2,5.9-16.3,5.3-25.1
			C766.5,1094.7,762.6,1094.4,762.7,1096.9z"/>
		<path d="M759.4,1084.2c-1.8,4.1-5,6.8-9.1,8.5c-2.8,1.1-5.7,2-8.1,3.9c-2.3,1.9-2.5,4.7-2.2,7.4c0.4,3.1,0.7,5.1-0.8,8
			c-1.2,2.5-3.3,4.5-5.4,6.3c-5,4.5-12.6,8.9-9.6,17c2,5.5,7.7,8.1,12.9,6.5c-0.3,2.3-1.4,4.6-1.3,7.1c0.1,2.2,1.4,3.8,3,5.2
			c1.3,1.1,2.7,1.5,4.2,1.6c0.4-1.4,0.4-2.8-0.9-4.1c-1.4-0.3-2.3-1.4-2.4-3.6c-0.1-3.3,1.8-6.1,1.2-9.6c-0.2-1.2-1.8-2-2.8-1.3
			c-3.7,2.4-8,1.6-10.1-2.5c-2.2-4.2,1.6-7.9,4.5-10.2c4.8-3.9,9.7-7.7,11.4-13.9c0.9-3.3-0.9-6.5-0.1-9.6c0.7-2.5,5.1-3.5,7.2-4.3
			c5.5-2,9.5-5.7,11.9-11.1C764.1,1083.2,760.4,1082,759.4,1084.2z"/>
		<path d="M780.6,1177.6c-2.3,2.6-3.6,5.7-4.1,9.1c-0.4,2.5,3.5,2.7,3.9,0.2c0.4-2.7,1.7-5.1,3.5-7.2
			C785.4,1177.9,782.2,1175.7,780.6,1177.6z"/>
		<path d="M772.5,1137.8c-0.9,1.3-1.5,2.7-1.9,4.2c-0.1,0.5,0.6,0.7,0.7,0.2c0.4-1.5,1-2.8,1.9-4.1
			C773.5,1137.8,772.8,1137.4,772.5,1137.8z"/>
		<path d="M775.3,1141.4c-0.9,1.6-1.8,3.3-2.6,4.9c-0.2,0.4,0.4,0.9,0.6,0.4c0.9-1.6,1.8-3.3,2.6-4.9
			C776.2,1141.4,775.5,1140.9,775.3,1141.4z"/>
		<path d="M778.9,1136.7c-0.2,1-0.5,2-0.7,3.1c-0.1,0.5,0.6,0.7,0.7,0.2c0.2-1,0.5-2,0.7-3.1C779.7,1136.4,779,1136.2,778.9,1136.7z
			"/>
		<path d="M790.2,1141.3c0,0.8-0.1,1.6-0.1,2.3c0,0.5,0.8,0.5,0.8,0c0-0.8,0.1-1.6,0.1-2.3C791,1140.8,790.2,1140.8,790.2,1141.3z"
			/>
		<path d="M803.8,1147.9c0,0.8,0.1,1.6,0.1,2.4c0,0.5,0.8,0.5,0.8,0c0-0.8-0.1-1.6-0.1-2.4C804.6,1147.5,803.8,1147.4,803.8,1147.9z
			"/>
		<path d="M812.8,1149.6c-0.1,0.9-0.1,1.8-0.2,2.7c0,0.5,0.8,0.5,0.8,0c0.1-0.9,0.1-1.8,0.2-2.7
			C813.6,1149.2,812.8,1149.1,812.8,1149.6z"/>
		<path d="M818.6,1150.3c0,0.5-0.1,1-0.1,1.6c0,0.5,0.8,0.5,0.8,0c0-0.5,0.1-1,0.1-1.6C819.4,1149.9,818.6,1149.8,818.6,1150.3z"/>
		<path d="M825.7,1149.4c0.2,0.5,0.5,1.1,0.7,1.6c0.2,0.5,0.9,0.1,0.7-0.4c-0.2-0.5-0.5-1.1-0.7-1.6
			C826.2,1148.6,825.5,1148.9,825.7,1149.4z"/>
		<path d="M832.7,1150.7c0.8,0.8,1.3,1.8,1.5,2.9c0.1,0.5,0.9,0.3,0.8-0.2c-0.2-1.2-0.8-2.3-1.7-3.3
			C832.9,1149.9,832.3,1150.4,832.7,1150.7z"/>
		<path d="M833.4,1158.2c0,0.6-0.1,1.3-0.1,1.9c0,0.5,0.8,0.5,0.8,0c0-0.6,0.1-1.3,0.1-1.9C834.2,1157.8,833.4,1157.7,833.4,1158.2z
			"/>
		<path d="M828.4,1152.6c0.2,0.4,0.4,0.8,0.6,1.3c0.2,0.5,0.9,0.1,0.7-0.4c-0.2-0.4-0.4-0.8-0.6-1.3
			C828.9,1151.8,828.2,1152.1,828.4,1152.6z"/>
		<path d="M815.7,1153.4c0.1,0.8,0.2,1.6,0.3,2.3c0.1,0.5,0.8,0.3,0.8-0.2c-0.1-0.8-0.2-1.6-0.3-2.3
			C816.4,1152.7,815.6,1152.9,815.7,1153.4z"/>
		<path d="M809.1,1152.5c0,0.8-0.1,1.6-0.1,2.3c0,0.5,0.8,0.5,0.8,0c0-0.8,0.1-1.6,0.1-2.3C809.9,1152.1,809.1,1152,809.1,1152.5z"
			/>
		<path d="M797.5,1148.2c-0.3,0.9-0.6,1.8-0.9,2.7c-0.2,0.5,0.6,0.7,0.7,0.2c0.3-0.9,0.6-1.8,0.9-2.7
			C798.4,1148,797.7,1147.8,797.5,1148.2z"/>
		<path d="M793,1146.8c-0.2,0.6-0.3,1.3-0.5,1.9c-0.1,0.5,0.6,0.7,0.7,0.2c0.2-0.6,0.3-1.3,0.5-1.9
			C793.8,1146.6,793.1,1146.3,793,1146.8z"/>
		<path d="M785.1,1138.9c-0.2,0.4-0.4,0.7-0.6,1.1c-0.2,0.4,0.4,0.9,0.6,0.4c0.2-0.4,0.4-0.7,0.6-1.1
			C785.9,1138.9,785.3,1138.5,785.1,1138.9z"/>
		<path d="M773.4,1150.8c-0.2,1.2-0.5,2.3-0.7,3.5c-0.1,0.5,0.6,0.7,0.7,0.2c0.2-1.2,0.5-2.3,0.7-3.5
			C774.2,1150.6,773.5,1150.3,773.4,1150.8z"/>
		<path d="M769.5,1148.9c-0.5,0.6-0.7,1.5-0.5,2.2c0.1,0.5,0.9,0.3,0.8-0.2c-0.1-0.6,0-1.2,0.4-1.6
			C770.4,1148.9,769.8,1148.5,769.5,1148.9z"/>
		<path d="M800,1065.1c-2.2-13.7,10.5-23.8,23.3-22.7c6.8,0.6,13.1,4.3,17.7,9.2c5.6,6.1,6,13.3,2.9,20.7c-1,2.3,2.7,3.5,3.7,1.2
			c3.4-8.1,2.9-15.5-2.2-22.7c-4.8-6.8-12.7-10.9-20.7-12.2c-15.8-2.7-31,11.2-28.5,27.3C796.6,1068.4,800.4,1067.6,800,1065.1z"/>
		<path d="M799.3,1057.4c15.8-2.2,31.7-0.3,46.6,5.4c2.4,0.9,3.6-2.8,1.2-3.7c-15.6-6-32.2-7.8-48.7-5.6
			C796,1054,796.8,1057.8,799.3,1057.4z"/>
		<path d="M803.1,1061.3c0.1,0.1,0.2,0.2,0.2,0.3c0.7,0.8,2,0.9,2.8,0.2c0.8-0.7,0.9-2,0.2-2.8c-0.1-0.1-0.2-0.2-0.2-0.3
			c-0.7-0.8-2-0.9-2.8-0.2C802.5,1059.2,802.4,1060.5,803.1,1061.3z"/>
		<path d="M813.6,1062.4c0.2,0,0.3,0,0.5,0c1.1,0.1,2-0.8,2.1-1.8c0.1-1.1-0.8-2-1.8-2.1c-0.2,0-0.3,0-0.5,0c-1.1-0.1-2,0.8-2.1,1.8
			C811.7,1061.4,812.5,1062.4,813.6,1062.4z"/>
		<path d="M824.1,1064.3c0.2,0,0.3,0,0.5,0c1.1,0.1,2-0.8,2.1-1.8c0.1-1.1-0.8-2-1.8-2.1c-0.2,0-0.3,0-0.5,0c-1.1-0.1-2,0.8-2.1,1.8
			C822.2,1063.3,823.1,1064.3,824.1,1064.3z"/>
		<path d="M834.2,1066.5c2.5,0.1,2.7-3.8,0.2-3.9C831.9,1062.4,831.7,1066.3,834.2,1066.5z"/>
		<path d="M840.1,1068.4c2.5,0.1,2.7-3.8,0.2-3.9S837.5,1068.2,840.1,1068.4z"/>
		<path d="M832.1,1084.9c7.6-1,15,0,22.1,2.8c2.3,0.9,3.6-2.8,1.2-3.7c-7.8-3-15.9-4-24.2-2.9
			C828.7,1081.4,829.6,1085.2,832.1,1084.9z"/>
		<path d="M813.6,1077.6c-6.7-3.5-13.8-5.5-21.3-6.1c-2.5-0.2-2.7,3.7-0.2,3.9c6.8,0.6,13.3,2.4,19.4,5.5
			C813.6,1082,815.8,1078.7,813.6,1077.6z"/>
		<path d="M750.5,1102.4c-1.4,0.5-1.8,1.1-2.1,2.6c-0.1,0.8,1,3.8,1,4.2c0.1,2.9-2.7,5.2-4.7,6.7c-4.3,3.3-10,6.7-8.3,13.1
			c0.4,1.4,2.7,1,2.3-0.5c-1.8-6.6,6.7-9.5,10.4-13.3c1.2-1.3,2-2.8,2.5-4.5c0.1-0.4-0.1-6.2-0.6-6
			C752.4,1104.2,751.9,1101.9,750.5,1102.4z"/>
		<path d="M751,1124.3c-1.8,1.2-3,2.8-3.5,5c-0.7,3,2.1,7-2.2,8.5c-1.4,0.5-0.9,2.8,0.5,2.3c2.1-0.7,3.4-2,4.2-4.1
			c0.4-1.1,0.2-2.4,0-3.5c-0.6-2.4-0.1-4.6,2.1-6C753.3,1125.5,752.3,1123.4,751,1124.3z"/>
		<path d="M746.3,1160.2c-0.8,0.9-1.2,2.1-0.9,3.3c0.2,0.6,0.7,1,1.4,0.9c0.6-0.1,1.1-0.8,0.9-1.4c0-0.1-0.1-0.2-0.1-0.4
			c0,0.2,0-0.4,0-0.1c0-0.1,0.1-0.2,0.1-0.4c-0.1,0.2,0.2-0.3,0.1-0.1c0.4-0.5,0.5-1.1,0.1-1.7
			C747.5,1159.8,746.7,1159.7,746.3,1160.2z"/>
		<path d="M845.5,1166.5c0.6,3.2-3.5,6.2-4.5,9.1c-0.8,2.5-0.1,5.3,1.3,7.5c0.8,1.3,2.9,0.2,2.1-1.1c-2.5-4-0.8-7.1,1.7-10.3
			c1.4-1.7,2.1-3.5,1.7-5.7C847.5,1164.6,845.2,1165.1,845.5,1166.5z"/>
		<path d="M852,1177.6c-1.2-3.8,0-6.2,1.7-9.5c0.9-1.8,0.1-4.1,0-5.9c-0.1-1.5-2.4-1-2.3,0.5c0.2,2.1,0.6,4.1-0.7,6
			c-0.6,0.9-1,1.9-1.3,3c-0.7,2.1-0.4,4.4,0.3,6.5C850.2,1179.5,852.5,1179,852,1177.6z"/>
		<path d="M767.2,1116c3.4,8.8,13.1,12.3,21.4,8c1.3-0.7,0.3-2.8-1.1-2.1c-7.3,3.7-15.4,0.6-18.3-7
			C768.7,1113.6,766.6,1114.7,767.2,1116z"/>
		<path d="M768.4,1128.5c1.9,0.6,3.9,1,6,1c1.5,0,1.6-2.3,0.1-2.3c-1.8,0-3.6-0.3-5.3-0.9C767.7,1125.8,767,1128,768.4,1128.5z"/>
		<path d="M825.9,1129.8c1.5,3.4,4.6,5.9,8.2,6.6c1.5,0.3,2.2-1.9,0.7-2.2c-3.1-0.6-5.6-2.6-6.9-5.5
			C827.3,1127.3,825.2,1128.4,825.9,1129.8z"/>
		<path d="M760.8,1153c0.6,8.5,3.6,18,12.8,20.3c1.5,0.4,2.2-1.8,0.7-2.2c-8.2-2.1-10.7-10.5-11.2-18
			C763.1,1151.6,760.7,1151.5,760.8,1153z"/>
		<path d="M760.4,1160.6c1.4-1.3,3-2.2,4.8-2.7c1.4-0.4,1-2.7-0.5-2.3c-2.2,0.6-4.2,1.7-5.9,3.2
			C757.7,1159.9,759.3,1161.7,760.4,1160.6z"/>
		<path d="M762.4,1164.6c0.8-1.1,1.9-1.9,3.1-2.4c0.6-0.2,1-0.7,0.9-1.4c-0.1-0.6-0.8-1.1-1.4-0.9c-1.9,0.6-3.5,1.7-4.6,3.4
			C759.6,1164.6,761.5,1165.9,762.4,1164.6z"/>
		<path d="M764.5,1170.2c1.2-1,2.5-2,3.7-3c1.2-0.9-0.4-2.7-1.6-1.7c-1.2,1-2.5,2-3.7,3C761.8,1169.4,763.3,1171.1,764.5,1170.2z"/>
		<path d="M767.2,1173.3c1.1-1.6,2.7-2.9,4.6-3.6c1.4-0.5,0.9-2.8-0.5-2.3c-2.5,0.9-4.5,2.4-6,4.6
			C764.4,1173.3,766.4,1174.6,767.2,1173.3z"/>
		<path d="M789.4,1066.3c1.3-25.3,22.1-45.2,47.5-45.3c1.5,0,1.6-2.3,0.1-2.3c-26.6,0.1-48.6,20.9-50,47.5
			C786.9,1067.6,789.3,1067.8,789.4,1066.3z"/>
		<path d="M840.8,1023.4c4.1,2.8,7.7,6.1,10.4,10.3c2.8,4.3,3.4,9.2,4.7,14c1.5,5.4,2.7,10.3,2.6,15.9c-0.1,5.6-1.2,11.1-2.2,16.6
			c-0.3,1.5,2.1,1.6,2.3,0.1c1.1-6,2.1-11.9,2.2-18c0.1-5.8-1.5-11-3-16.5c-1.4-5.1-2.2-9.7-5.2-14.2c-2.7-4.1-6.5-7.4-10.5-10.2
			C840.8,1020.6,839.5,1022.6,840.8,1023.4z"/>
	</g>
	<g>
		<path class="st25" d="M543.3,1297.9c-0.6-1.1-1.9-1.7-3.4-1.5L425.8,1312c-1.5,0.2-2.6,1.1-2.9,2.3c-0.2,0.7-0.2,2,1.2,3.4
			l30.5,29.3c1,1,2.5,1.5,3.9,1.3c1-0.1,1.9-0.6,2.5-1.2l23.7-23c0.1-0.1,0.4-0.2,0.7-0.3c0.3,0,0.6,0,0.7,0.1l28.9,15.6
			c0.9,0.5,1.8,0.6,2.8,0.5c1.4-0.2,2.7-1,3.4-2.3l21.6-36.1C544.1,1299.8,543.7,1298.5,543.3,1297.9z"/>
		<path class="st14" d="M445.1,1319.5c1-0.3,1.5-1.9,1.9-2.8c0.6-1.4,1.6-2.6,2.2-4c0.3-0.6-0.5-1-0.9-0.5c-1,1.1-1.8,2.5-2.7,3.7
			c-0.6,0.9-1.7,2.1-1.3,3.3C444.5,1319.5,444.8,1319.5,445.1,1319.5z"/>
		<path class="st14" d="M470.2,1329.6c-2.1,1.5-3.7,3.7-5.2,5.7c-1.6,2-3.1,4.1-4.3,6.4c-0.2,0.3,0.3,0.5,0.5,0.3
			c1.7-1.9,3.2-4,4.7-6c1.6-2,3.5-3.8,4.8-6C470.8,1329.7,470.4,1329.4,470.2,1329.6z"/>
		<path class="st14" d="M500.8,1305.7c0.2-0.3-0.2-0.9-0.5-0.6c-0.9,0.8-1.7,1.7-2.4,2.7c-0.5,0.7-1.6,1.9-1.5,2.8
			c0,0.2,0.3,0.4,0.5,0.3c0.9-0.4,1.3-1.7,1.8-2.5C499.4,1307.6,500.1,1306.7,500.8,1305.7z"/>
		<path class="st14" d="M523.3,1320.5c-2.1,1.6-3.5,4.6-4.9,6.7c-1.7,2.5-3.5,5-4.6,7.9c-0.1,0.2,0.1,0.3,0.2,0.2
			c2.1-2.1,3.7-4.7,5.4-7.2c1.4-2.2,3.7-4.7,4.3-7.2C523.8,1320.5,523.5,1320.4,523.3,1320.5z"/>
		<path class="st14" d="M518.5,1301.6l-13,1.8c-1.3,1.6-2.5,3.4-3.6,5c-1.5,2.2-3.7,5.3-1.8,7.9c0.7,1,1.6,1.3,2.8,1.3
			c1.4,0.1,2.5-0.1,2.9,1.5c0.3,1.1-0.2,2.2-0.6,3.1c-1.1,2.4-2.6,4.8-3.8,7.2l9.3,5c0.6-1,1.3-2,1.9-3c2.9-4.5,6.2-9.2,8.1-14.2
			c0.6-1.6,0.9-3.5-0.1-5c-0.4-0.6-1-1.2-1.7-1.5c-1.2-0.5-2.7,0.2-3.8-0.6c-2.2-1.6,1.9-6.6,2.8-7.9
			C518.2,1302,518.4,1301.8,518.5,1301.6z M506.9,1315l-0.2-0.2c0.1,0,0.2,0,0.3,0L506.9,1315z M517.9,1319.2
			c0.1-0.3,0.3-0.5,0.4-0.8c-0.2,0.5-0.5,1-0.8,1.5C517.7,1319.6,517.8,1319.4,517.9,1319.2z"/>
		<path class="st14" d="M450.7,1315.4c-1.7,2.1-4.1,5-2.4,7.7c0.6,1,1.5,1.4,2.7,1.6c1.4,0.2,2.5,0.1,2.8,1.7
			c0.2,1.1-0.3,2.1-0.8,3.1c-1.5,2.7-3.6,5.3-5,8.1l7.5,7.2c1.4-1.9,2.8-3.7,4.2-5.5c3.2-4.2,6.9-8.7,9.2-13.5
			c0.8-1.6,1.1-3.4,0.3-5c-0.3-0.7-0.9-1.3-1.6-1.6c-1.1-0.6-2.7,0-3.7-0.9c-2.1-1.7,2.4-6.4,3.4-7.7c0.6-0.8,1.2-1.5,1.9-2.2
			l-2.2,0.3l-0.1,0.1l0-0.1l-11.7,1.6C453.5,1311.9,452.1,1313.7,450.7,1315.4z M455.1,1322.3l-0.2-0.2c0.1,0,0.2,0,0.3,0
			L455.1,1322.3z M465.8,1327.3c0.2-0.3,0.3-0.5,0.5-0.8c-0.3,0.5-0.6,0.9-0.9,1.4C465.5,1327.8,465.7,1327.6,465.8,1327.3z"/>
		<path d="M433.4,1365.8c5.4,18.1,17.5,36,34.4,45.2c15,8.1,34.7,6,49.2-2.1c14.9-8.3,23.6-24.5,22.1-41.5
			c-0.9-10.6-8.8-18.2-10.4-28.5c-1.9-11.9-1.5-24.5-2.1-36.6c-0.1-2.3-3.6-1.8-3.5,0.5c0.5,10.7,1,21.3,1.7,32
			c0.3,4.3,0.9,8.4,2.5,12.4c1.7,4.4,4.8,8.2,6.6,12.6c6.6,16.6-2.4,35.4-16.5,44.8c-13.6,9-32.3,10.5-47,3.6
			c-16.7-7.8-28.5-26.8-33.6-43.8C436,1362.2,432.8,1363.7,433.4,1365.8z"/>
		<path d="M484.4,1326c4.3,5.4,8.3,11.1,12,16.9c1.7,2.8,4.7,6.6,4.6,10.1c0,5-10,4.2-12.8,3.3c-2.2-0.7-3.6,2.6-1.4,3.3
			c5.3,1.7,19.4,1.2,17.7-7.8c-0.9-4.5-3.8-8.6-6.2-12.4c-3.4-5.4-7.2-10.6-11.1-15.6C485.8,1322,483,1324.2,484.4,1326z"/>
		<path d="M441.6,1365.9c1.5,4.6,0.3,9,4.7,12.1c1,0.7,2.7,1.1,3.8,0.6c1.3-0.5,4.4-4.3,5.4-4.1c-0.5-0.5-1-1-1.5-1.5
			c0.3,4.9,1,9.6,4.9,13c2.9,2.4,7.1,2.4,10,0.2c-1-0.4-1.9-0.8-2.9-1.2c0.8,3,3.3,4.3,6.4,3.6c3.5-0.8,4.4-5.1,4.9-8
			c-1.2-0.2-2.4-0.3-3.5-0.5c-1.1,10.2,11.5-1.1,13.9-3.2c2.4-2.2,7.7-7.2,11.2-6c3.1,1,5.5,1.8,8.8,1.7c5-0.1,11-1.8,9.6-8
			c-0.8,0.6-1.6,1.3-2.4,1.9c2.5,0.7,5,1.4,7.5,2c1.1,0.3,2.3-0.2,2.4-1.4c0.6-5.4,0.1-13.7,3.4-18.2c1.4-1.8-1.5-4-2.8-2.2
			c-3.9,5.3-3.4,13.6-4.1,19.9c0.8-0.5,1.6-0.9,2.4-1.4c-2.5-0.7-5-1.4-7.5-2c-1.2-0.3-2.8,0.4-2.4,1.9c0.9,4.1-4.5,3.9-6.6,4
			c-3,0.2-5.3-1-8.1-1.9c-3.1-1-6.7,1.8-9.1,3.3c-3,1.9-5.4,4.4-8.1,6.7c-0.9,0.8-4.7,3.3-4.7,3.2c0.2-2.3-3.1-2.7-3.5-0.5
			c-0.1,1-0.4,1.9-0.7,2.9c-1.2,2.5-2.4,3-3.6,1.6c-0.3-1.3-1.7-2-2.9-1.2c-6.6,5-8.9-6.9-9.2-10.9c-0.1-0.8-0.8-1.4-1.5-1.5
			c-1.8-0.4-3.6,0.1-4.7,1.8c-0.7,1.6-2.1,2-4.2,1.3c-0.8-1.4-1.1-2.8-1.2-4.4c-0.2-1.8-0.5-3.4-1-5.1
			C444.1,1362.3,440.9,1363.7,441.6,1365.9z"/>
		<path d="M451.4,1287.4c5-5.7,12.7-8,20-5.8c5.5,1.6,10.2,3.7,16.1,3.6c11.3-0.2,21.9-5.3,28.8-14.3c1.4-1.8-1.4-4-2.8-2.2
			c-8.2,10.8-22.6,15.5-35.5,11.5c-5.6-1.8-10.2-3.6-16.2-2.6c-5.2,0.9-9.7,3.8-13.1,7.7C447,1287,449.9,1289.2,451.4,1287.4z"/>
		<path d="M445.7,1256.2c5.4-5.1,12-7.2,19.3-6.3c6,0.7,8.7-2.9,13.2-6.1c13.6-9.4,29.2-3.2,42.6,3.2c3.5,1.7,6.3,4,7.9,7.6
			c1.8,4.1-1.4,7.1-3.2,10.3c-2.3,4-0.4,7.5,2.2,10.8c5,6.2,8.1,13.2,5.7,21.2c-0.8,2.5-0.8,4.8-0.3,7.4c0.6,3.3,2.9,7.3,0.8,10.5
			c-1.2,1.9,1.6,4.1,2.8,2.2c3.8-5.9-1.2-11.6-0.3-17.8c0.5-3.6,1.7-6.5,1.3-10.2c-0.3-3.6-1.9-7-3.7-10.1c-1.7-3-6.5-6.9-6.2-10.6
			c0.2-2.8,3.6-5.7,4.5-8.6c1.7-5.9-2.8-11.3-7.3-14.3c-6.1-4.1-14.1-6.8-21.1-8.7c-7-1.9-13.9-1.7-20.7,0.6
			c-3.6,1.2-6.8,3.3-9.8,5.6c-1.9,1.5-3.2,3.2-5.8,3.7c-1.9,0.4-4.5-0.4-6.5-0.4c-6.6-0.1-13,2.8-17.8,7.3
			C441.8,1255,444,1257.8,445.7,1256.2z"/>
		<path d="M440.7,1261.4c-7.6-2-15.3-0.1-20.8,5.5c-2.3,2.3-3.8,5.2-4.9,8.2c-1,3-3.9,3.7-6.5,5.4c-5.9,3.9-9,9.4-8.6,16.5
			c0.4,7.6,3.3,16.8,8.6,22.3c1.6,1.6,4.4-0.5,2.8-2.2c-4.6-4.9-6.2-11.3-7.5-17.7c-1.5-7.7,1.7-12.7,7.9-16.8
			c1.5-1,4.6-1.9,5.7-3.4c0.4-0.5,0.5-1.5,0.6-2.1c0.4-2.1,1.5-4.2,2.7-5.9c4.3-6.4,12.3-8.3,19.4-6.4
			C442.5,1265.5,442.9,1262,440.7,1261.4z"/>
		<path d="M429.3,1325.7c-1.8-9.2-15.2-11-21-4.3c-7.4,8.5-1.6,21.7,6.8,26.8c0-0.9,0-1.9,0-2.8c-9.2,8.8-9.6,23.5,0.2,32.3
			c4.4,4,9.9,6.5,15.9,5.2c4.9-1.1,8.5-5.6,8.2-10.6c-0.1-2.3-3.7-1.8-3.5,0.5c0.3,5.4-5.6,7.3-9.9,6.8c-4.6-0.6-8.4-4.2-11.1-7.7
			c-5.5-7.3-4-17.5,2.4-23.6c0.7-0.7,1-2.2,0-2.8c-5.8-3.5-9.2-9.4-8.5-16.3c0.4-4.3,3.1-6.7,7-7.7c4.1-1,9.1,0,10,4.8
			C426.2,1328.4,429.7,1328,429.3,1325.7z"/>
		<path d="M528.9,1349.6c4.5,4.9,13,4.4,16.1-1.9c3.9-7.8-0.5-15.3-7.5-19.2c0.3,0.8,0.6,1.6,1,2.3c1.8-5.1,0.9-10.3-2.8-14.3
			c-1.5-1.7-4.3,0.5-2.8,2.2c2.8,3.1,3.7,6.8,2.3,10.7c-0.4,1,0.1,1.8,1,2.3c4.4,2.5,7.3,6.5,6.7,11.6c-0.7,5.3-7.3,8.1-11.1,4
			C530.2,1345.7,527.4,1347.9,528.9,1349.6z"/>
		<path d="M424.8,1326.3c0.7,3.7,2,6.9,4.3,9.9c0.4,0.5,1,0.7,1.6,0.7c2.6-0.3,4.5-2,5.1-4.7c1-4.6-1.9-7.9-3.4-12
			c-0.1,0.6-0.1,1.2-0.2,1.8c2.4-3.3,6-6.5,3.8-10.7c-0.9-1.8-2.7-3-3.7-4.8c-1.1-2.1,5.3-4.5,6.6-5.5c1.5-1.2,2.3-3,2.8-4.8
			c0.2-0.7,0.3-1.4,0.3-2.1c0-0.8,3.1-0.9,3.5-1c1.3-0.2,2.9-0.8,3.8-1.9c0.8-1,2.2-3.7,0.3-3.2c2.2-0.6,0.8-3.9-1.4-3.3
			c-0.1,0-0.3,0.1-0.4,0.1c-0.6,0.2-1,0.9-1.1,1.4c-0.1,0.7-0.1,1.1,0.1,1.8c0.3,1.5-4.4,1.9-5.2,2.1c-1.2,0.3-3,1.3-3.2,2.8
			c-0.3,2-0.1,3-1.2,4.7c-1,1.5-3.5,2.3-5,3.1c-1.7,0.9-3.3,2.4-3.5,4.4c-0.2,1.8,0.7,3.4,1.7,4.8c0.6,0.8,1.4,1.6,2.1,2.4
			c2,2.3-1.9,6-3,7.6c-1.2,1.6,0.9,4.3,1.6,5.7c0.5,0.8,0.9,1.7,1.2,2.6c0.9,1.9,0.5,3.5-1.1,4.8c-1.5-2-2.3-4.6-2.7-7.1
			C427.9,1323.6,424.4,1324.1,424.8,1326.3z"/>
		<path d="M445.4,1252.2c-5.1-4.9-11.8-7-18.8-6.2c-1.7,0.2-2.1,2.8-0.4,3.4c2.1,0.8,3.6,2.1,4.5,4.1c0.6-0.8,1.3-1.6,1.9-2.5
			c-6.4-1.3-12.5-0.1-18,3.5c-0.9,0.6-0.9,2.3,0,2.8c1.4,0.8,8.6,4.4,7.4,6.7c-1,2.1,2.3,3.4,3.3,1.4c2.4-5.2-5-8.9-8.6-10.9
			c0,0.9,0,1.9,0,2.8c4.7-3,9.9-3.8,15.3-2.7c1.3,0.3,2.4-1.3,1.9-2.5c-1.4-3-3.4-4.9-6.5-6c-0.1,1.1-0.3,2.3-0.4,3.4
			c6.2-0.7,11.7,1.2,16.2,5.5C444.9,1256.6,447.1,1253.7,445.4,1252.2z"/>
		<path d="M505.2,1278.3c0.1,1,0.3,2,0.4,3c0.1,0.6,0.5,1.2,1.1,1.4c3,0.9,4.9,2.7,6.1,5.7c0.9,2.3-0.6,4.8,0.4,7
			c0.6,1.5,2.1,2.1,3.6,2.6c3.6,1.2,4.7,4.3,5.8,7.6c0.7,2.2,4,0.8,3.3-1.4c-0.9-2.8-2-5.3-4.1-7.4c-0.8-0.8-1.6-1.2-2.6-1.7
			c-0.7-0.2-1.4-0.5-2.1-0.7c-0.9-0.3-0.3-2.9-0.4-3.7c-0.1-2.7-1-4.9-2.5-7.1c-1.7-2.5-5.1-2.8-5.5-5.8
			C508.4,1275.5,504.9,1276,505.2,1278.3z"/>
		<path d="M492.1,1388.8c5.9-3.4,12.2-5.3,19-5.8c2.3-0.2,1.8-3.7-0.5-3.5c-7.1,0.5-13.7,2.5-19.9,6.1
			C488.7,1386.7,490.1,1389.9,492.1,1388.8z"/>
		<path d="M486.6,1385.8c1.7,1.3,2.8,3,3.4,5c0.7,2.2,4,0.8,3.3-1.4c-0.8-2.6-2.4-4.8-4.6-6.4C487,1381.6,484.8,1384.4,486.6,1385.8
			z"/>
		<path d="M430,1367.6l1.8-0.2c-0.6-4.5-4.7-7.6-9.2-7c-4.5,0.6-7.6,4.7-7,9.2c0.6,4.5,4.7,7.6,9.2,7c4.5-0.6,7.6-4.7,7-9.2
			L430,1367.6l-1.8,0.2c0.2,1.3-0.2,2.5-0.9,3.4c-0.7,0.9-1.8,1.6-3,1.8c-1.3,0.2-2.5-0.2-3.4-0.9c-0.9-0.7-1.6-1.8-1.8-3
			c-0.2-1.3,0.2-2.5,0.9-3.4c0.7-0.9,1.8-1.6,3-1.8c1.3-0.2,2.5,0.2,3.4,0.9c0.9,0.7,1.6,1.8,1.8,3L430,1367.6z"/>
		<path d="M497.4,1298.8c7.9-6.9,16.4-11.5,27-7.9c2.7,0.9,4.4-3.2,1.7-4.1c-12.2-4.1-22.3,0.4-31.5,8.5
			C492.5,1297.2,495.2,1300.7,497.4,1298.8z"/>
		<path d="M471.4,1297.7c-10.4-2.1-21.9-3.8-30.6,3.7c-2.2,1.9,0.6,5.4,2.7,3.5c7.8-6.7,18.1-4.7,27.3-2.8
			C473.6,1302.7,474.2,1298.3,471.4,1297.7z"/>
		<path d="M460.2,1272.8c4.8-5.6,13.1,0.7,18.6,2c5.6,1.4,11.8-1.3,17.3-2c1.7-0.2,1.3-2.9-0.4-2.6c-3.6,0.5-7.2,1.4-10.8,2
			c-5.2,0.9-9.4-1.2-14-3.1c-4.4-1.8-9.5-1.7-12.8,2.1C457,1272.4,459.1,1274.1,460.2,1272.8z"/>
		<path d="M476.4,1259.3c9.3,1.8,18.4-0.1,26.2-5.4c1.4-1-0.2-3.1-1.6-2.1c-7.3,4.8-15.7,6.4-24.2,4.8
			C475.1,1256.3,474.8,1259,476.4,1259.3z"/>
		<path d="M506.3,1260.1c1.1-0.1,2.1,1,1.9,2.1c-0.3,1.7,2.4,2.1,2.6,0.4c0.5-2.8-2.1-5.4-4.9-5.1
			C504.2,1257.6,504.6,1260.3,506.3,1260.1z"/>
		<path d="M415.3,1292c-4.7,1.5-5,6.8-4.7,10.9c0.1,1.7,2.8,1.3,2.6-0.4c-0.2-2.9-0.4-7,3.1-8.1C418,1294,416.9,1291.5,415.3,1292z"
			/>
		<path d="M420.6,1299c-0.8,1.9-1.2,3.8-1.3,5.8c-0.1,1.7,2.6,2.1,2.6,0.4c0.1-1.8,0.5-3.5,1.1-5.2
			C423.8,1298.5,421.3,1297.4,420.6,1299z"/>
		<path d="M427.5,1283.5c0.7-4,5.8-4.8,8.7-6.7c2.6-1.7,4.4-3.7,4.4-6.9c-0.5,0.5-1,1-1.5,1.5c0.6,0,1.3,0.1,1.9,0.1
			c1.7,0.1,2.1-2.5,0.4-2.6c-0.6,0-1.3-0.1-1.9-0.1c-0.9-0.1-1.5,0.6-1.5,1.5c0,4-5.6,5.4-8.4,7c-2.4,1.3-4.1,3.2-4.6,5.9
			C424.5,1284.9,427.2,1285.2,427.5,1283.5z"/>
		<path d="M415.2,1331.4c2.8-3.6,7.3,1.5,3.4,3.9c-0.8,0.5-0.6,2,0.3,2.3c1.3,0.4,2.3,1,3,2.2c0.9,1.5-0.5,3.5-2.3,2.8
			c-1.6-0.7-2.6,1.8-1,2.5c2.6,1.1,5.2-0.5,6.1-3.1c1-3.2-2.1-5.9-4.8-6.8c0.1,0.8,0.2,1.5,0.3,2.3c2.9-1.8,3.4-5.5,1.4-8.2
			c-2.1-2.9-6.6-1.9-8.5,0.6C412,1331.1,414.1,1332.7,415.2,1331.4z"/>
		<path d="M446.9,1350c2.5,3.3,5.4,5.8,9.8,5.9c4.4,0.1,8.3-3.3,11.4-5.9c1.3-1.1-0.3-3.2-1.6-2.1c-2.6,2.3-5.2,4.4-8.6,5.3
			c-3.8,0.9-6.7-2.1-8.8-4.8C447.9,1346.9,445.8,1348.6,446.9,1350z"/>
		<path d="M473.2,1400.4c1.5,1.2,3.1,2.4,4.6,3.6c1.4,1.1,3-1.1,1.6-2.1c-1.5-1.2-3.1-2.4-4.6-3.6
			C473.5,1397.2,471.8,1399.3,473.2,1400.4z"/>
		<path d="M485.4,1403.8c1.3,0.8,2.6,1.6,3.9,2.5c0.6,0.4,1.4,0.4,1.9-0.3c0.4-0.5,0.4-1.5-0.3-1.9c-1.3-0.8-2.6-1.6-3.9-2.5
			c-0.6-0.4-1.4-0.4-1.9,0.3C484.7,1402.4,484.8,1403.4,485.4,1403.8z"/>
		<path d="M499.3,1405.2c1.6,0.2,3.2,0.4,4.8,0.7c1.7,0.2,2.1-2.4,0.4-2.6c-1.6-0.2-3.2-0.4-4.8-0.7
			C498,1402.3,497.6,1405,499.3,1405.2z"/>
		<path d="M514.4,1392.7c0.8,0.8,2.2,1,3.2,0.5c0.7-0.3,1-1.1,0.7-1.8c-0.3-0.7-1.1-1-1.8-0.7c-0.3,0.2,0.2,0-0.1,0.1
			c-0.4,0.1,0.2,0-0.1,0c0.2,0-0.1,0-0.1-0.1c0.2,0.1-0.1-0.1-0.1-0.1c-0.5-0.5-1.5-0.3-1.9,0.3
			C513.6,1391.5,513.9,1392.2,514.4,1392.7z"/>
		<path d="M526,1369.9c0.6,0.9,0.9,2,0.9,3c0,0.7,0.4,1.4,1.1,1.5c0.6,0.1,1.5-0.4,1.5-1.1c0-1.8-0.4-3.5-1.4-5
			c-0.4-0.6-1.3-0.6-1.9-0.2C525.6,1368.5,525.6,1369.3,526,1369.9z"/>
		<path d="M523.2,1381c0.2,1.4,0.4,2.7,0.6,4.1c0.2,1.7,2.9,1.3,2.6-0.4c-0.2-1.4-0.4-2.7-0.6-4.1
			C525.6,1378.9,522.9,1379.3,523.2,1381z"/>
		<path d="M517.2,1376.4c0.1,0.8,0.2,1.6,0.3,2.4c0.1,0.7,0.8,1.2,1.5,1.1c0.7-0.1,1.2-0.8,1.1-1.5c-0.1-0.8-0.2-1.6-0.3-2.4
			c-0.1-0.7-0.8-1.2-1.5-1.1C517.6,1375,517.1,1375.7,517.2,1376.4z"/>
		<path d="M500.6,1393.7c1,1.3,1.9,2.5,2.9,3.8c1,1.4,3.2-0.3,2.1-1.6c-1-1.3-1.9-2.5-2.9-3.8
			C501.6,1390.7,499.5,1392.3,500.6,1393.7z"/>
		<path d="M460.2,1396.8c0.7,0.9,1.4,1.8,2.2,2.7c1.1,1.3,3.2-0.3,2.1-1.6c-0.7-0.9-1.4-1.8-2.2-2.7
			C461.2,1393.8,459.1,1395.5,460.2,1396.8z"/>
	</g>
	<g>
		<path d="M609,1268.5c1.1-0.6,1-2.5-0.5-2.4c-0.1,0-0.2,0-0.3,0c-0.4-1.3-0.9-2.6-1.3-3.9c-0.8-2.3-1.3-5.2-4.1-5.6
			c-2.6-0.4-2.9,3-3.3,4.8c-0.4,1.9-0.8,3.8-1.2,5.7c-0.7,0.1-1.4,0.1-2.1,0.2c-0.2,0-0.4,0.1-0.5,0.2c0.1-6.7,0.1-13.3,0.2-20
			c0-1.1-1.4-1.7-2.2-0.9c-2.2,2.2-3.5,4.9-4.7,7.7c-0.7,1.7-1.4,3.3-2.3,4.9c-0.2,0.3-1.7-3-1.7-3.1c-0.5-1.1-0.9-2.3-1.4-3.4
			c-0.5-1.3-2.4-1.2-2.5,0.3c-0.5,7.3-1,14.6-1.4,21.9c-0.1,1.6,2.4,1.6,2.5,0c0.3-5.3,0.7-10.6,1-15.9c1.1,2.3,2.6,4.2,4.4,2.7
			c1.5-1.2,2.2-3.3,3-5c0.8-1.9,1.5-3.8,2.6-5.5c-0.1,8.5-0.2,17-0.3,25.5c-0.1,0.2-0.2,0.4-0.2,0.7c0,0.1,0,0.1,0,0.2
			c0.1,0.6,0.5,1.4,1.3,1.3l0.1,0c0.1,0,0.2,0,0.3-0.1c1,0,1.9-1.2,1-2.1c0-2.3,0-4.6,0.1-7c0.2,0.1,0.3,0.1,0.6,0.1
			c0.6-0.1,1.1-0.1,1.7-0.2c-0.3,1.5-0.6,3.1-0.8,4.6c-0.3,1.6,2.2,2.3,2.4,0.7c0.3-1.8,0.7-3.7,1-5.5c2-0.2,4-0.4,6.1-0.6
			c0.7,2.2,1.5,4.4,2.2,6.6c0.5,1.5,3,0.9,2.4-0.7C610.4,1272.7,609.7,1270.6,609,1268.5z M602.3,1259.7c0.2-0.9,2,3.2,2,3.2
			c0.4,1.2,0.8,2.3,1.2,3.5c-1.6,0.1-3.2,0.3-4.7,0.4C601.3,1264.4,601.8,1262.1,602.3,1259.7z"/>
		<path d="M622.1,1261.7c2.4-1.6,4.2-4,2.6-6.7c-2.8-4.7-9.1-0.6-11.7,1.7c-0.6,0.5-0.5,1.2,0,1.7c0.5,4.8,0.9,9.7,1.2,14.5
			c0.1,1.6,2.6,1.6,2.5,0c-0.3-5-0.7-10-1.2-15c1.8-1.6,4-3.2,6.6-2.1c0.5,1.8,0.1,3.1-1.4,3.9c-1,0.7-2.1,1.2-3.3,1.6
			c-1.3,0.4-1.2,2.6,0.3,2.5c3-0.3,5.4,0.4,5.4,3.9c0,2-1.2,4.1-1.9,6c-0.6,1.5,1.9,2.2,2.4,0.7c1.1-3,3-6.5,1.5-9.7
			C624.3,1263.1,623.3,1262.2,622.1,1261.7z"/>
		<path d="M654.7,1267.6c-1.9,0.4-3.9,0.8-5.8,1.3c-2,0.4-6.7,1.7-5.7-2c1-4.1,3.1-8.2,4.6-12.2c0.6-1.5-1.9-2.2-2.4-0.7
			c-1.3,3.4-2.7,6.8-4,10.2c-0.4,1-0.9,2.3-1.1,3.6c-0.3-0.2-0.6-0.2-1-0.2c-1.9,0.4-3.8,0.6-5.8,0.6c-2.7,0-4.5-0.6-3.7-3.6
			c0.8-3.1,2.1-5.9,2.5-9.1c0.2-1.6-2.3-1.6-2.5,0c-0.3,2.6-1.4,5-2.2,7.5c-0.6,1.6-1.3,3.8-0.4,5.5c2.1,3.6,9.5,2.2,12.7,1.5
			c0.2,0,0.3-0.1,0.4-0.2c0.1,0.2,0.1,0.3,0.2,0.5c2.4,4,11.6,0.3,14.8-0.4C657,1269.6,656.3,1267.2,654.7,1267.6z"/>
		<path d="M664.4,1256.7c-3.3-2.3-7.8-0.3-9.4,3c-0.3,0.6-0.1,1.2,0.3,1.5c-0.7,2.4,0.2,5.4,1.9,7.3c3,3.2,7.2,0.8,9.1-2.2
			C668.5,1263.1,667.5,1259,664.4,1256.7z M664.7,1264c-0.7,2.4-3.3,4.7-5.6,2.8c-1.6-1.3-2-4.6-0.5-6c0.5-0.5,0.5-1.2,0.1-1.6
			C661.5,1257,665.9,1259.7,664.7,1264z"/>
		<path d="M680.1,1247.8c0.8,6.4,1.5,13,0.3,19.4c-0.1,0.7-0.6,4.6-2.2,3.2c-1.4-1.2-2.2-3.2-2.8-4.9c-1-2.7-1.7-5.3-3.4-7.7
			c-0.6-0.8-2-0.9-2.3,0.3c-1.3,5-2.7,9.9-4,14.9c-0.4,1.6,2,2.2,2.4,0.7c1.1-4,2.2-8,3.3-12c1.4,2.9,2,6.2,3.7,8.9
			c0.9,1.4,3.8,4.5,5.6,2.9c2.4-2.1,2.6-7.2,2.8-10.3c0.5-5.1-0.2-10.3-0.9-15.4C682.4,1246.2,679.9,1246.2,680.1,1247.8z"/>
		<path d="M711.3,1259.9c-3.1-2.6-8.6-0.9-12.3-0.6c0,0-4,0.4-3.2-0.5c1-1.1,2.1-2.1,3.3-3c2-1.5,4.2-2.6,6.5-3.4
			c1.5-0.5,0.9-3-0.7-2.4c-3.9,1.3-7.3,3.4-10.3,6.3c-2,2-3.2,5,0.6,5.8c2.2,0.4,5.2-0.4,7.4-0.6c1.2-0.1,2.5-0.2,3.7-0.3
			c1.3-0.4,2.1,0.3,2.5,1.9c-0.5,0.4-1,0.9-1.5,1.3c-4.1,3.5-8,7.1-11.8,10.9c-1.2,1.2,0.6,2.9,1.8,1.8c3.5-3.5,7.1-6.9,10.9-10.1
			C710.1,1265.6,714.2,1262.4,711.3,1259.9z"/>
		<path d="M718.1,1254.1c-2.8,4.5-5.1,9.2-6.9,14.2c-0.5,1.5,1.9,2.2,2.4,0.7c0.3-1,0.7-1.9,1.1-2.9c0.2,0,0.4,0,0.7-0.1
			c1.2-0.5,2.4-1,3.6-1.5c0.9-0.4,1.8-0.9,2.7-1.2c0.3,1.3,0.6,2.6,0.7,4c0.1,1.6,2.7,1.6,2.5,0c-0.4-4.8-1.9-9.3-4.6-13.3
			C719.7,1253.3,718.6,1253.2,718.1,1254.1z M716.1,1263c0.9-2,2-3.9,3.1-5.9c0.7,1.2,1.3,2.5,1.8,3.8c-0.4,0.1-0.7,0.3-1.1,0.5
			C718.6,1261.9,717.3,1262.5,716.1,1263z"/>
		<path d="M738.8,1235.5l-0.1-0.2c-0.6-0.6-1.5-0.4-2,0.3c-0.9,1.2-0.9,3.1-1.1,4.5c-0.4,2.7-0.5,5.5-0.6,8.3
			c-0.1,4.6,0,9.2-0.4,13.8c-1.9-3.4-3.8-6.7-5.8-10.1c-0.6-1.1-2.4-0.6-2.4,0.6c0.2,5.3,0,10.5-0.8,15.7c-0.2,1.6,2.2,2.3,2.4,0.7
			c0.6-3.8,0.9-7.7,1-11.6c1.7,3.1,3.5,6.1,5.2,9.2c0.5,0.9,2.1,0.8,2.3-0.3c0.7-4.4,0.9-8.9,0.9-13.3c0-2.4,0-4.8,0.1-7.1
			c0.1-2.2-0.2-6.1,0.9-8.4c0.1-0.1,0.2-0.1,0.3-0.2l0.1-0.1C739.2,1236.8,739.2,1236.1,738.8,1235.5z"/>
	</g>
	<g>
		<path d="M426.5,1034.5c-1.4,0.5-2.8,0.9-4.1,1.4c-0.4-2.6-0.9-5.1-1.3-7.7c-0.2-1.4-2.4-0.8-2.1,0.6c0.5,2.6,0.9,5.2,1.4,7.8
			c-2.1,0.7-4.2,1.4-6.2,2.1c-0.3-1.9-0.7-3.9-0.9-5.8c-0.2-1.4-2.4-1.4-2.2,0c0.3,2.2,0.6,4.4,1,6.5c-1.2,0.4-2.4,0.8-3.6,1.2
			c-1.4,0.5-0.8,2.6,0.6,2.1c1.1-0.4,2.3-0.8,3.4-1.2c0.3,1.7,0.7,3.3,1.1,5c0.3,1.4,2.5,0.8,2.1-0.6c-0.4-1.7-0.8-3.4-1.1-5.1
			c2.1-0.7,4.1-1.4,6.2-2.1c0.5,3,1,5.9,1.5,8.9c0.2,1.4,2.4,0.8,2.1-0.6c-0.5-3-1-6-1.6-9c1.5-0.5,2.9-1,4.4-1.5
			C428.5,1036.2,427.9,1034,426.5,1034.5z"/>
		<path d="M437.4,1042.1c-1.2,0.8-2.3,1.2-3.7,1.3c-2.1,0.1-2.2-1.9-2.1-3.4c0.2,0.3,0.6,0.5,1.1,0.4c1.7-0.3,3.5-0.5,5.2-0.8
			c1.4-0.2,0.8-2.4-0.6-2.1c-1.7,0.3-3.5,0.5-5.2,0.8c-0.1,0-0.2,0.1-0.3,0.1c0.3-2.4,1-6.6,3.9-5c1.2,0.7,2.4-1.2,1.1-1.9
			c-1.8-1.1-3.6-0.6-5.2,0.7c-2,1.6-1.9,5-2.2,7.3c-0.2,2.3-0.2,4.4,2,5.7c2.2,1.3,5.3,0.2,7.1-1.1
			C439.7,1043.2,438.6,1041.3,437.4,1042.1z"/>
		<path d="M450.3,1026.2c0.4,3.8,0.3,7.6-0.3,11.4c-1.8,0.9-3.1,0.5-3.9-1.1c-0.4-0.6-0.8-1.2-1.1-1.8c-0.8-1.3-1.5-2.7-2.1-4.2
			c-0.5-1-2.2-0.5-2.1,0.6c0.4,4.1-0.1,8-1.4,11.9c-0.5,1.4,1.7,1.9,2.1,0.6c0.9-2.5,1.4-5,1.5-7.6c1.6,2.7,3.7,5.1,6.9,4.8
			c2.2-0.3,2.1-2.1,2.4-3.8c0.6-3.6,0.5-7.2,0.2-10.7C452.4,1024.8,450.2,1024.8,450.3,1026.2z"/>
		<path d="M461.9,1033.1c2.2-1.6,4.2-4,3-6.6c-1.3-3-8.1-0.1-10,0.9c-0.5,0.1-0.9,0.4-0.9,1.1c0.4,4.2,0.7,8.4,1.1,12.6
			c0.1,1.4,2.4,1.4,2.2,0c-0.4-4-0.7-7.9-1.1-11.9c1.7-0.9,3.3-1.4,5.2-1.5c3.9-0.3-2.1,4.4-2.6,4.7c-0.9,0.5-0.6,1.8,0.3,2
			c4.1,1.1,6.5,4.8,6.1,8.9c-0.1,1.4,2.1,1.4,2.2,0C467.9,1039,465.6,1035,461.9,1033.1z"/>
		<path d="M469.1,1032.6c0.3,3,0.5,5.9,0.4,8.9c-0.1,1.4,2.2,1.4,2.2,0c0.1-3,0-5.9-0.4-8.9C471.2,1031.2,468.9,1031.1,469.1,1032.6
			z"/>
		<path d="M487.4,1023.7c-3.6-2.5-7.6,1.2-9.9,5.1c-0.2,0.1-0.3,0.2-0.4,0.4c-2.7,4.8-2,15,5.8,12.3c0.5-0.2,1-0.4,1.4-0.8
			c0,0.4,0,0.7,0,0.9c0,1.5,0.4,2.8,1.2,4.1c0.7,1.2,2.7,0.1,1.9-1.1c-1.2-1.9-1-4.1-1-6.2c1.1-1.8,1.7-3.9,2.1-5.6
			C489.1,1030.5,489.9,1025.4,487.4,1023.7z M477.7,1035.8c1.8,0.4,4.5-0.1,5.3-0.2c0.8-0.1,1.2,0.7,1.4,1.8
			c-0.2,0.4-0.5,0.7-0.8,1.1C480.8,1041.8,478.1,1038.6,477.7,1035.8z M485.7,1034.6c-0.1-0.3-0.3-0.6-0.5-0.8
			c-0.2-0.3-0.6-0.6-1-0.6c-1.3,0.1-2.6,0.2-3.9,0.3c-2.2,0.2-2-1.4-1.1-3c0.7-1.2,1.6-2.4,2.5-3.4c1.6-2,4.9-1,5,1.6
			C486.8,1030.6,486.5,1032.7,485.7,1034.6z"/>
		<path d="M504.5,1029c-1.4,4.4-3.5,8.3-6.4,11.8c-0.9,1.1-3.8,3.9-5.1,0.5c-0.4-1-0.3-2.2-0.3-3.2c0-2.9,0.5-5.7,1.3-8.5
			c0.4-1.4-1.8-2-2.1-0.6c-1.1,4-4,16.5,3.5,16.1c2.7-0.1,4.8-3.2,6.2-5.2c2.3-3.1,3.9-6.7,5.1-10.3
			C507.1,1028.2,505,1027.6,504.5,1029z"/>
		<path d="M519.7,1040c-1.5,0.6-12,3.4-10.7-1c0.1-0.2,0.1-0.4,0.2-0.6c0.2,0.1,0.4,0.2,0.6,0.2c2.2,0,4.5,0,6.7,0
			c1.4,0,1.4-2.2,0-2.2c-2,0-4,0-6,0c1.7-2,4.3-3.3,6.8-3.5c1.4-0.1,1.4-2.4,0-2.2c-4.6,0.4-10,3.8-10.7,8.7
			c-0.9,6.5,10.5,4.1,13.6,2.8C521.6,1041.6,521,1039.4,519.7,1040z"/>
		<path d="M555,1019.3c-0.3-0.5-1-0.7-1.5-0.4c-3.7,2.5-7.1,5.1-10.4,8.1c-1.9,1.7-3.7,3.6-5.5,5.4c-1.2,1.3-3.1-5-3.4-5.7
			c-0.4-0.8-1.8-0.7-2,0.3c-1,4.6-2.4,9.1-4.2,13.5c-0.5,1.3,1.6,1.9,2.1,0.6c1.3-3.3,2.4-6.6,3.3-9.9c0.4,1.2,0.8,2.3,1.8,3.2
			c0.6,0.6,2.4,1.4,3.1,0.6c4.4-4.8,9.2-9.1,14.5-12.9c-0.6,1.6-1.9,3.7-2.2,4.4c-1,2.2-2,4.4-3.1,6.7c-2,4.4-4.1,8.9-6.1,13.3
			c-0.6,1.3,1.3,2.4,1.9,1.1c2.7-5.8,5.3-11.6,8-17.3c1.2-2.7,2.5-5.3,3.7-8C555.5,1021.1,555.6,1020.3,555,1019.3z"/>
		<path d="M548.9,1042.2c-1.4,0-1.4,2.2,0,2.2C550.3,1044.4,550.3,1042.2,548.9,1042.2z"/>
		<path d="M466.8,1027.5c1.6,0.9,3.3,1.9,4.9,2.8c1.1,0.6,2.1-1.1,1-1.7c-1.6-0.9-3.3-1.9-4.9-2.8
			C466.7,1025.2,465.7,1026.9,466.8,1027.5z"/>
		<path d="M468.4,1032c1.6-2.3,3.3-4.5,4.9-6.8c0.8-1-1-2-1.7-1c-1.6,2.3-3.3,4.5-4.9,6.8C465.9,1032.1,467.6,1033.1,468.4,1032z"/>
	</g>
	<line class="st7" x1="452" y1="687.1" x2="845" y2="687.1"/>
	<g>
		<g>
			<path class="st11" d="M738.5,1038.7c1.3-6,0.1-12.8-0.9-18.8c-0.9,0.4-1.9,0.9-2.8,1.3c2.6,2.1,5.2,4.1,7.7,6.2
				c2.3,1.9,4.6,4.2,7.5,5.1c1,0.3,1.8-0.9,1.3-1.7c-1.5-2.5-4.2-4.1-6.5-5.9c-2.6-2-5.2-4.1-7.8-6.1c-1.4-1.1-3,0.1-2.7,1.8
				c1.1,6,1,12.2,2.2,18.2C736.8,1039.6,738.3,1039.6,738.5,1038.7L738.5,1038.7z"/>
		</g>
	</g>
	<g>
		<g>
			<path class="st11" d="M750.9,1032.4c5.4-2.3,10.4-6.5,15.3-9.8c-0.8-0.4-1.7-0.9-2.5-1.3c0,2.3-0.3,4.4-0.8,6.6
				c-0.5,2.1-1.4,3.9-1.5,6.1c0,0.9,1,1.2,1.6,0.7c3.4-3,3.8-9.2,3.9-13.5c0-1.2-1.5-1.9-2.5-1.3c-4.9,3.3-10.6,6.4-14.7,10.6
				C749,1031.2,749.8,1032.9,750.9,1032.4L750.9,1032.4z"/>
		</g>
	</g>
	<g>
		<g>
			<path class="st11" d="M736.2,1038.1c-4.4,4-8.1,8.9-11.6,13.7c-0.8,1.2,0.6,2.4,1.8,2.1c6.7-1.8,13-4.8,18.4-9.3
				c1.4-1.2,0-3.7-1.6-2.5c-5.4,4.1-11.2,7.1-17.7,8.9c0.6,0.7,1.2,1.4,1.8,2.1c3.3-4.7,7.1-8.9,10.8-13.4
				C739.1,1038.6,737.5,1037,736.2,1038.1L736.2,1038.1z"/>
		</g>
	</g>
	<g>
		<g>
			<path class="st11" d="M742.6,1044.2c-0.5,4.2,0.1,8.6,0.8,12.7c0.3,1.7,0.3,6,2.9,6.2c3,0.2,4.2-4.3,5.3-6.4
				c1.6-3.3,4.6-8.1,4-11.8c-0.1-0.7-1-0.8-1.5-0.4c-1.8,1.6-2.2,3.8-3.1,6c-1.2,2.8-2.5,5.6-3.9,8.3c-0.8,1.6,0.3,2.1-0.1,0.2
				c-0.4-1.9-0.7-3.9-1-5.9c-0.4-2.9-0.5-5.9-0.8-8.9C744.9,1042.5,742.8,1042.6,742.6,1044.2L742.6,1044.2z"/>
		</g>
	</g>
	<g>
		<g>
			<path class="st11" d="M753.9,1047.2c5.2,0,10.3-1.6,15.2-3.2c1.1-0.4,1.5-1.9,0.6-2.7c-2.9-2.7-5.9-5.4-8.9-8.1
				c-1.6-1.4-3.7,1-2.2,2.4c3,2.7,5.9,5.4,8.9,8c0.2-0.9,0.4-1.8,0.6-2.7c-4.8,1.6-9.7,2.5-14.6,3.8
				C752.2,1045.2,752.6,1047.2,753.9,1047.2L753.9,1047.2z"/>
		</g>
	</g>
	<g>
		<g>
			<path class="st11" d="M901.9,1045c4.5-2.5,8.2-6,12.4-8.8c-0.7-0.3-1.3-0.5-2-0.8c0.7,2.4,1.3,4.7,1.5,7.1c0.2,2-0.7,4.4,0.5,6.1
				c0.3,0.5,0.9,0.6,1.3,0.2c1.7-1.5,1.2-4.3,1.1-6.4c-0.1-2.7-0.8-5.4-1.8-7.8c-0.4-1-1.5-1.3-2.3-0.5c-3.8,3.4-8.1,6-11.7,9.6
				C900.2,1044.3,901.1,1045.4,901.9,1045L901.9,1045z"/>
		</g>
	</g>
	<g>
		<g>
			<path class="st11" d="M901.5,1044c-1.2-1.2-3-1.6-4.6-2.1c-1.9-0.6-3.8-1.2-5.7-1.8c-1.3-0.4-2.3,1.2-1.6,2.3
				c2.5,3.7,5.6,6.7,9.2,9.2c1.6,1.1,3-1.6,1.4-2.6c-3.2-2.2-5.9-5-8.1-8.2c-0.5,0.8-1.1,1.5-1.6,2.3c1.9,0.6,3.8,1.2,5.7,1.8
				c1.6,0.5,3.2,1.1,4.9,0.8C901.8,1045.4,902,1044.5,901.5,1044L901.5,1044z"/>
		</g>
	</g>
	<g>
		<g>
			<path class="st11" d="M898.4,1049.8c-2.8,3.2-5.2,6.8-7.7,10.2c-0.8,1.1,0.6,2.3,1.7,2.1c5.1-1.3,10.2-2.9,15.1-4.8
				c1.7-0.7,0.9-3.4-0.8-2.7c-4.9,1.9-10,3.5-15.1,4.8c0.6,0.7,1.1,1.4,1.7,2.1c2.4-3.3,5-6.6,7-10.2
				C901,1050,899.3,1048.7,898.4,1049.8L898.4,1049.8z"/>
		</g>
	</g>
	<g>
		<g>
			<path class="st11" d="M905.4,1057.5c2.6,4.5,8,8.1,12.3,10.9c0.9,0.6,1.9-0.1,2.2-1c0.8-2.3,1-4.8,0.5-7.2
				c-0.4-2-1.1-5.3-3.4-5.8c-0.5-0.1-1.2,0.1-1.2,0.7c-0.3,1.7,0.9,3,1.4,4.6c0.7,2.3,0.5,4.7-0.2,7c0.7-0.3,1.4-0.6,2.2-1
				c-2.2-1.5-4.3-3-6.3-4.8c-2-1.7-3.7-3.7-5.8-5.2C906,1055.1,904.9,1056.5,905.4,1057.5L905.4,1057.5z"/>
		</g>
	</g>
	<g>
		<g>
			<path class="st11" d="M917,1056.7c3.4-0.7,6.8-1.5,10.1-2.3c1.1-0.3,1.4-1.8,0.6-2.5c-3.3-2.8-7.2-4.6-11.4-5.3
				c-2-0.3-2.7,2.7-0.7,3c3.7,0.6,7.1,2.1,10.1,4.5c0.2-0.8,0.4-1.7,0.6-2.5c-3.3,0.8-6.7,1.6-10,2.6
				C914.6,1054.6,915.4,1057,917,1056.7L917,1056.7z"/>
		</g>
	</g>
	<g>
		<g>
			<path class="st11" d="M885,1168.9c1.7-0.8,3-2.3,4.3-3.6c1.4-1.4,2.8-2.9,4.2-4.3c-0.9-0.3-1.7-0.7-2.6-1
				c0.6,3.3,0.7,6.6,0.7,9.9c0,1.9,2.7,1.7,2.9-0.1c0.3-3.3,0-6.7-0.5-9.9c-0.2-1.2-1.6-2-2.6-1c-1.4,1.4-2.8,2.9-4.2,4.3
				c-1.3,1.4-2.8,2.8-3.5,4.6C883.1,1168.7,884.3,1169.2,885,1168.9L885,1168.9z"/>
		</g>
	</g>
	<g>
		<g>
			<path class="st11" d="M884.9,1167.3c-1.3-1.1-2.8-1.5-4.5-1.9c-2.2-0.6-4.5-1.2-6.7-1.8c-1.5-0.4-2.3,1.5-1.3,2.5
				c3,3.3,6.5,5.8,10.6,7.7c1.7,0.8,3.1-1.8,1.4-2.5c-3.8-1.8-7.1-4.2-9.9-7.3c-0.4,0.8-0.9,1.7-1.3,2.5c2,0.5,3.9,1,5.9,1.6
				c1.9,0.5,3.7,1.2,5.6,0.8C885.1,1168.6,885.3,1167.7,884.9,1167.3L884.9,1167.3z"/>
		</g>
	</g>
	<g>
		<g>
			<path class="st11" d="M882.4,1171.9c-2.6,2.2-5,4.6-7.5,7c-0.5,0.5-0.5,1.5,0,1.9c1.6,1.2,3.1,1.1,5,0.6c3.7-1,7.3-2.4,11-3.5
				c1.7-0.5,0.9-3.2-0.8-2.7c-2.2,0.7-4.4,1.4-6.6,2.2c-1.4,0.5-5.3,2.5-6.7,1.5c0,0.6,0,1.3,0,1.9c2.4-2.4,5-4.7,7.3-7.1
				C885.2,1172.4,883.6,1170.9,882.4,1171.9L882.4,1171.9z"/>
		</g>
	</g>
	<g>
		<g>
			<path class="st11" d="M890.1,1178c1.9,3.1,4.5,5.6,7.5,7.5c0.9,0.5,1.9-0.1,2.2-1c1-3.4,0.9-7-0.3-10.3c-0.7-1.8-3.5-0.9-2.8,0.9
				c1.1,2.9,1.2,5.8,0.3,8.7c0.7-0.3,1.4-0.6,2.2-1c-2.6-1.7-4.8-3.8-6.5-6.5C891.6,1174.9,889.1,1176.4,890.1,1178L890.1,1178z"/>
		</g>
	</g>
	<g>
		<g>
			<path class="st11" d="M893.5,1169.9c3.8,1.1,7.9,1.5,11.8,2.1c-0.2-0.9-0.3-1.8-0.5-2.8c-2.3,1.5-5.9,2.9-7,5.5
				c-0.2,0.6,0.4,1.2,0.9,1.2c2.7,0.1,5.5-2.7,7.7-4.1c1-0.7,0.9-2.6-0.5-2.8c-4-0.6-8.1-1.3-12.2-1.4
				C892.5,1167.6,892.3,1169.6,893.5,1169.9L893.5,1169.9z"/>
		</g>
	</g>
	<g>
		<g>
			<path class="st11" d="M567.6,1202.5c-10.1,7.8-19.9,16-29.4,24.5c-0.5,0.4-0.6,1.4-0.2,1.9c1.3,1.5,2.3,1.8,4.3,2
				c4.7,0.4,9.7,0.1,14.4,0.1c-0.4-0.9-0.8-1.8-1.2-2.7c-5.6,6.4-10.7,13.2-15.3,20.3c-0.9,1.4,1,2.9,2.2,2.1
				c11.3-7.3,22-15.4,32.1-24.3c1-0.8,0.2-2.2-0.8-2.5c-4.4-1.6-8.7-2.5-13.3-2.9c-1.9-0.2-1.9,2.7-0.3,3.1c3,0.9,3.9-2.9,4.8-5
				c2.3-5.5,4-11.3,5.5-17c0.5-1.9-2.4-2.6-2.9-0.7c-0.5,2.1-5.8,19.9-6.6,19.6c-0.1,1-0.2,2.1-0.3,3.1c4.3,0.3,8.4,1.2,12.5,2.7
				c-0.3-0.8-0.5-1.7-0.8-2.5c-9.9,8.7-20.5,16.6-31.6,23.7c0.7,0.7,1.5,1.4,2.2,2.1c4.5-6.9,9.4-13.4,14.8-19.7
				c0.9-1.1,0.2-2.6-1.2-2.7c-2.4,0-4.8,0-7.2,0c-1.8,0-7.5,0.9-8.7-0.6c-0.1,0.6-0.1,1.3-0.2,1.9c9.4-8.4,19-16.6,28.7-24.7
				C570.2,1203.5,568.7,1201.7,567.6,1202.5L567.6,1202.5z"/>
		</g>
	</g>
	<g>
		<g>
			<path class="st11" d="M516.4,1198.4c-3.1,7-6.3,13.9-10.1,20.5c-0.6,1.1,0.5,2.6,1.8,2.1c3.3-1.2,6.6-2.5,9.9-3.8
				c-0.7-0.5-1.4-0.9-2-1.4c0.3,6.6-3.3,12.8-2,19.4c0.2,1.2,2.1,1.3,2.5,0.3c4-8.9,9.9-17.2,15.4-25.2c0.5-0.7-0.1-2-0.9-2.1
				c-3.2-0.5-6.2-0.4-9.3,0.1c0.7,0.5,1.3,0.9,2,1.4c-0.8-6.5-1.1-13-0.8-19.5c0.1-1.5-2.2-1.9-2.8-0.7c-3.1,5.7-7.1,11.9-8.6,18.3
				c-0.3,1.2,1.2,1.7,1.9,0.8c3.8-5.3,6.2-11.9,9.3-17.7c-0.9-0.2-1.9-0.4-2.8-0.7c-0.3,6.5,0,13,0.8,19.5c0.1,1.1,1,1.6,2,1.4
				c2.7-0.5,5-0.6,7.7-0.2c-0.3-0.7-0.6-1.4-0.9-2.1c-5.6,8.2-10.1,16.8-15.3,25.2c0.9,0.2,1.7,0.4,2.6,0.6c0.1-6.5,2.7-12.6,2.5-19
				c0-1-1.1-1.8-2-1.4c-3.3,1.3-6.6,2.5-9.8,3.9c0.6,0.7,1.2,1.4,1.8,2.1c3.8-6.8,7.1-13.7,9.5-21.1
				C518.8,1198.1,516.9,1197.3,516.4,1198.4L516.4,1198.4z"/>
		</g>
	</g>
	<text transform="matrix(1 0 0 1 626.6132 363.6664)" class="st29 st30">FOTO10</text>
	<text transform="matrix(1 0 0 1 626.6132 857.8452)" class="st29 st30">FOTO11</text>
	<text transform="matrix(1 0 0 1 475.2237 81.7494)" class="st29 st22">SOBRE</text>
	<text transform="matrix(1 0 0 1 605.8904 81.7494)" class="st29 st22">CONTATO</text>
	<text transform="matrix(1 0 0 1 749.5566 81.7494)" class="st29 st22">CARRINHO</text>
	<g>
		<text transform="matrix(1 0 0 1 161.9737 274.1662)" class="st10 st29 st30">o que  yonkers</text>
	</g>
	<g>
		<text transform="matrix(1 0 0 1 161.9737 232.9996)" class="st29 st30">loja</text>
	</g>
	<g class="st13">
		<text transform="matrix(1 0 0 1 161.9738 183.6662)" class="st29 st30">INCIO</text>
	</g>
	<text transform="matrix(1 0 0 1 161.9737 300.1663)" class="st29 st30">art gallery</text>
	<text transform="matrix(1 0 0 1 161.9737 341.6662)" class="st29 st30">season 1</text>
	<g>
		<text transform="matrix(1 0 0 1 161.9737 363.6662)" class="st29 st30">season 2</text>
	</g>
	<text transform="matrix(1 0 0 1 384.8603 1541.1846)" class="st29 st30">newsletter</text>
	<text transform="matrix(1 0 0 1 417.6917 1591.1616)" class="st29 st31">2017 Yonkers. Todos os direitos reservados.</text>
	<line class="st7" x1="162" y1="250.2" x2="232.4" y2="250.2"/>
	<line class="st7" x1="162" y1="313.7" x2="232.4" y2="313.7"/>
	<line class="st7" x1="162" y1="376.7" x2="232.4" y2="376.7"/>
	<line class="st7" x1="162" y1="207.2" x2="232.4" y2="207.2"/>
	<line class="st7" x1="162" y1="1476.8" x2="922.6" y2="1476.8"/>
	<line class="st26" x1="559.8" y1="71.4" x2="559.8" y2="82.4"/>
	<line class="st26" x1="712.2" y1="71.4" x2="712.2" y2="82.4"/>
	<rect x="475.2" y="1517.3" class="st7" width="144" height="34.3"/>
	<polygon points="630.1,1516.8 630.1,1552.1 696.7,1552.1 696.7,1551.6 696.7,1516.8 	"/>
	<text transform="matrix(1 0 0 1 640.9614 1538.257)" class="st14 st29 st30">enviar</text>
	<g>
		<g>
			<path d="M182.9,394.7c0,6.8,0,13.5,0,20.3c-0.3,0.8-0.9,1.1-1.8,1.1c-1.5,0-3.1,0-4.6,0c-0.2,0-0.3,0-0.5,0c0-2.9,0-5.7,0-8.6
				c0.8,0,1.7,0,2.5,0c0.2,0,0.4,0,0.4-0.3c0.1-0.9,0.2-1.9,0.4-2.8c0-0.3-0.1-0.4-0.3-0.4c-0.8,0-1.6,0-2.4,0c-0.2,0-0.4,0-0.6,0
				c0-0.9,0-1.7,0-2.5c0-0.8,0.4-1.2,1.2-1.2c0.6,0,1.2,0,1.8,0c0.3,0,0.4-0.1,0.4-0.4c0-0.8,0-1.6,0-2.4c0-0.3-0.1-0.4-0.4-0.4
				c-0.9,0-1.9-0.1-2.8-0.1c-1.9,0.1-3.4,1.3-3.7,3.1c-0.2,1-0.1,2-0.2,3c0,0.2,0,0.5,0,0.7c-0.9,0-1.7,0-2.5,0
				c-0.3,0-0.5,0.1-0.4,0.4c0,0.7,0,1.4,0,2.1c0,1,0,1,1,1c0.6,0,1.3,0,1.9,0c0,2.9,0,5.7,0,8.6c-0.2,0-0.4,0-0.6,0
				c-3.2,0-6.3,0-9.5,0c-0.9,0-1.5-0.2-1.8-1.1c0-6.8,0-13.5,0-20.3c0.2-0.5,0.6-0.9,1.1-1.1c6.8,0,13.5,0,20.3,0
				C182.4,393.8,182.7,394.2,182.9,394.7z"/>
			<path class="st14" d="M161.6,393.6c-0.5,0.2-0.9,0.6-1.1,1.1c0-0.4,0-0.7,0-1.1C160.8,393.6,161.2,393.6,161.6,393.6z"/>
			<path class="st14" d="M182.9,394.7c-0.2-0.5-0.6-0.9-1.1-1.1c0.4,0,0.7,0,1.1,0C182.9,394,182.9,394.3,182.9,394.7z"/>
		</g>
		<g>
			<path d="M204.5,416c-1.5,0-3,0-4.5,0c-3.4,0.1-6.4-2.4-6.7-6c0-0.2,0-0.5,0-0.7c0-3,0-6,0-9c0-3.5,2.5-6.3,6-6.7
				c0.2,0,0.5,0,0.7,0c3,0,6.1,0,9.1,0c3.5,0,6.3,2.5,6.7,6c0,0.2,0,0.4,0,0.7c0,3,0,6.1,0,9.1c0,3.5-2.6,6.3-6,6.6
				c-1,0.1-2,0-2.9,0C206,416,205.2,416,204.5,416z M204.5,414c1.5,0,3,0,4.4,0c0.4,0,0.7,0,1.1-0.1c2.2-0.5,3.7-2.3,3.7-4.6
				c0-3,0-6,0-9c0-0.3,0-0.7-0.1-1c-0.5-2.2-2.3-3.7-4.6-3.7c-3,0-6,0-9,0c-0.3,0-0.7,0-1,0.1c-2.2,0.5-3.7,2.3-3.7,4.6c0,3,0,6,0,9
				c0,0.3,0,0.7,0.1,1c0.5,2.2,2.3,3.7,4.6,3.7C201.5,414,203,414,204.5,414z"/>
			<path d="M204.5,410.9c-3.4,0-6.1-2.8-6.1-6.1c0-3.4,2.8-6.1,6.2-6.1c3.4,0,6.1,2.8,6.1,6.2C210.6,408.2,207.8,410.9,204.5,410.9z
				 M208.6,404.8c0-2.2-1.8-4.1-4.1-4.1c-2.2,0-4.1,1.8-4.1,4.1c0,2.3,1.8,4.1,4.1,4.1C206.7,408.9,208.6,407,208.6,404.8z"/>
			<path d="M211.4,398.7c0,0.5-0.4,0.9-0.9,0.9c-0.5,0-0.9-0.4-0.9-0.9c0-0.5,0.4-0.9,0.9-0.9C211,397.8,211.4,398.2,211.4,398.7z"
				/>
		</g>
	</g>
	<g>
		<path class="st27" d="M202.6,43.6c22.4,0,40.9,18.2,40.8,41c-0.1,22.7-18.7,40.7-41,40.6c-22.2-0.1-40.6-18.1-40.6-40.9
			C161.8,61.6,180.2,43.6,202.6,43.6z M164.5,92.6c3.1,15.7,17.6,30.5,37.6,30.8c20.4,0.3,35.4-14.6,38.6-30.8
			c-3.1-1-6.1-1.9-9.2-2.9c-1.4,6.8-4.6,12.5-9.9,17c-5.3,4.5-11.4,6.8-18.4,7c-6.5,0.1-12.4-1.7-17.6-5.4
			c-6.4-4.6-10.3-10.8-11.9-18.6C170.6,90.7,167.6,91.6,164.5,92.6z M202.5,73.8c-8.6,0-17.1,0-25.7,0c-0.2,0-0.3,0-0.5,0
			c-0.7,0-1,0.6-0.7,1.2c0.1,0.2,0.2,0.4,0.3,0.5c3.2,4,6.4,8,9.6,12.1c0.7,0.9,1.4,1.8,2.1,2.7c0.4,0.4,0.8,0.7,1.4,0.6
			c0.4,0,0.7-0.2,0.9-0.4c3.9-2.8,7.7-5.7,11.6-8.5c0.5-0.4,1.2-0.4,1.8,0c2.8,2.1,5.7,4.1,8.5,6.2c1.1,0.8,2.2,1.6,3.2,2.4
			c0.5,0.3,0.9,0.4,1.5,0.2c0.3-0.1,0.5-0.3,0.8-0.6c1.3-1.6,2.6-3.3,3.9-4.9c2.6-3.2,5.2-6.5,7.7-9.7c0.1-0.2,0.2-0.3,0.3-0.5
			c0.2-0.6-0.1-1.1-0.7-1.1c-0.2,0-0.4,0-0.5,0C219.6,73.8,211,73.8,202.5,73.8z M203.7,84.2c0-0.1,0-0.3,0-0.4c0-0.1,0-0.2-0.1-0.2
			c-0.3-0.3-0.7-0.5-1.1-0.8c-0.2,0.1-0.3,0.3-0.5,0.4c-0.4,0.2-0.6,0.5-0.5,1c0,0,0,0-0.1,0.1c-0.2,0-0.4,0-0.6,0
			c-0.2,0-0.3,0-0.5,0.2c-0.8,0.6-1.7,1.2-2.5,1.8c-0.1,0-0.1,0.1-0.2,0.2c0.5,0,0.9,0,1.3,0c0.4,0,0.9,0,1.3,0c0.4,0,0.8,0,1.2,0
			c0,2.3,0,4.5,0,6.8c-1.9,0.1-3.8,0.2-5.7,0.5c-1.9,0.3-3.7,0.7-5.6,1.3c-0.2-1-0.4-2-0.7-3c-0.8,0.1-1.6-0.1-2.3-0.6
			c0.2,1.5,0.5,2.9,0.9,4.3c-2,0.8-4,1.7-5.8,2.9c-2.6-3.7-4.1-7.7-4.4-12.2c1.7,0,3.4,0,5.2,0c-0.1-0.1-0.1-0.2-0.2-0.3
			c-0.4-0.5-0.8-1-1.2-1.5c-0.2-0.3-0.5-0.4-0.8-0.4c-0.9,0-1.7,0-2.6,0c-0.1,0-0.3,0-0.5,0c0-0.3,0-0.5,0-0.8c0.1-1,0.2-2,0.3-2.9
			c0-0.2,0-0.3-0.1-0.5c-0.5-0.6-0.9-1.2-1.4-1.8c-0.1-0.1-0.1-0.1-0.2-0.2c-2.7,10.6,1.4,22.6,11.8,29.2c10,6.3,23.2,5.5,32.2-2.6
			c9.2-8.2,10.3-19.6,8.2-26.7c0,0-0.1,0-0.1,0c-0.5,0.7-1.1,1.3-1.6,2c-0.1,0.1-0.1,0.3-0.1,0.4c0.2,1.1,0.3,2.3,0.4,3.5
			c0,0.1,0,0.3,0,0.5c-0.2,0-0.3,0-0.5,0c-1,0-2,0-3,0c-0.2,0-0.4,0.1-0.5,0.2c-0.4,0.6-0.9,1.1-1.4,1.7c-0.1,0.1-0.1,0.2-0.1,0.3
			c0.9,0,1.8,0,2.7,0c0.9,0,1.8,0,2.7,0c-0.4,4.5-1.9,8.5-4.4,12.2c-1-0.5-1.9-1.1-2.9-1.6c-1-0.5-2-0.9-3-1.4
			c0.4-1.4,0.7-2.8,0.9-4.4c-0.7,0.6-1.5,0.7-2.3,0.7c-0.1,0.6-0.2,1.1-0.3,1.6c-0.1,0.5-0.2,1-0.4,1.5c-3.7-1.1-7.4-1.6-11.1-1.7
			c0-2.3,0-4.6,0-6.8c0.3,0,0.6,0,0.9,0c0.3,0,0.6,0,0.9,0c0.3,0,0.6,0,0.9,0c0.3,0,0.6,0.1,0.9-0.1c-0.1-0.1-0.2-0.2-0.3-0.2
			c-0.7-0.5-1.3-1-2-1.5c-0.4-0.3-0.8-0.6-1.3-0.5C203.8,84.2,203.8,84.2,203.7,84.2z M190.8,71.8c0-0.2,0.1-0.3,0.1-0.4
			c0.4-1.2,0.9-2.4,1.5-3.5c1-2,2.2-3.8,3.8-5.3c1.4-1.4,3-2.4,5-2.8c0.1,0,0.2,0,0.3,0c0,4.3,0,8.5,0,12.8c0.7,0,1.5,0,2.2,0
			c0-4.3,0-8.5,0-12.8c0.1,0,0.2,0,0.2,0c1,0.2,1.9,0.6,2.8,1.1c1.4,0.8,2.6,2,3.6,3.2c1.8,2.3,3,4.8,3.9,7.5c0,0,0,0.1,0,0.2
			c-0.9,0.2-1.9,0.5-2.8,0.7c0.1,0,0.1,0.1,0.2,0.1c2.2,0,4.4,0,6.7,0c0.2,0,0.3-0.1,0.5-0.1c1.3-0.6,2.6-1.2,3.8-2
			c0.1-0.1,0.2-0.1,0.3-0.2c0.5,0.8,1,1.6,1.5,2.4c0.4,0,0.8,0,1.2,0c0.4,0,0.8,0,1.2,0c-3.9-8.3-13.7-16.1-26.6-15
			c-5.8,0.5-11,2.8-15.4,6.6c-2.7,2.3-4.8,5.1-6.4,8.3c0.9,0,1.7,0,2.5,0c0.5-0.8,0.9-1.6,1.5-2.3c0.1,0.1,0.2,0.1,0.3,0.2
			c1.2,0.8,2.5,1.4,3.8,2c0.2,0.1,0.5,0.2,0.7,0.2c2.1,0,4.2,0,6.2,0c0.1,0,0.3,0,0.4,0c0,0,0,0,0,0C192.8,72.3,191.8,72,190.8,71.8
			z M212.3,56.2c-0.8-1.7-1.3-3.4-2-5c1-0.8,2-1.7,3.1-2.5c-0.9-0.2-1.8-0.4-2.7-0.5c0.1,0.1,0.1,0.2,0.2,0.3
			c0.2,0.3,0.1,0.5-0.1,0.8c-0.1,0.1-0.2,0.2-0.2,0.2c-0.6,0.5-1.2,1-1.8,1.5c-0.1,0.1-0.1,0.1-0.3,0.2c0.1-0.7,0.3-1.4,0.4-2
			c0.1-0.5,0.2-0.9,0.7-1.2c-1-0.2-2-0.4-3-0.6c0.3,0.4,0.3,0.8,0.2,1.2c-0.3,1.6-0.7,3.3-1,4.9c-0.1,0.5-0.2,1-0.7,1.3
			c1,0.2,1.9,0.4,2.9,0.6c-0.3-0.4-0.3-0.9-0.2-1.3c0.1-0.5,0.2-1.1,0.3-1.6c0-0.1,0.1-0.3,0.1-0.4c0.2,0.4,0.3,0.7,0.4,1.1
			c0.2,0.6,0.4,1.2,0.6,1.8c0.1,0.3,0.4,0.6,0.7,0.7C210.8,56,211.6,56,212.3,56.2z M196.1,55.5c-0.5-0.4-0.7-0.9-0.8-1.5
			c-0.1-0.7-0.3-1.5-0.4-2.2c0-0.3-0.1-0.5-0.1-0.9c0.2,0.1,0.2,0.2,0.3,0.3c0.9,0.8,1.7,1.7,2.6,2.5c0.6,0.6,1.3,1,2.1,1.2
			c0.3,0.1,0.6,0.2,1,0.1c-0.3-1.9-0.6-3.7-0.9-5.6c-0.1-0.7-0.3-1.4,0.1-2.2c-0.7,0.1-1.4,0.2-2.1,0.4c0.6,0.4,0.7,1,0.8,1.5
			c0.1,0.7,0.2,1.5,0.4,2.2c0,0.2,0.1,0.5,0.1,0.8c-0.2-0.2-0.3-0.2-0.4-0.3c-1.1-1-2.2-2.1-3.3-3.1c-0.2-0.2-0.4-0.5-0.7-0.6
			c-0.3-0.1-0.6,0-0.9,0.1c0,0-0.1,0-0.1,0c-0.4,0.1-0.9,0.1-1.3,0.2c0,0.1,0,0.1,0,0.1c0.5,0.4,0.7,1,0.8,1.7
			c0.2,1.1,0.4,2.2,0.5,3.2c0.1,0.8,0.4,1.6-0.1,2.5C194.7,55.7,195.4,55.6,196.1,55.5z M218.3,59.1c0.3,0.1,0.5,0.1,0.7,0.2
			c1.1,0.2,2-0.3,2.5-1.3c0.3-0.6,0.2-1.2-0.1-1.8c-0.2-0.4-0.5-0.8-0.8-1.3c-0.1-0.2-0.3-0.4-0.4-0.6c-0.1-0.2-0.1-0.4,0-0.6
			c0.2-0.2,0.4-0.3,0.6-0.2c0.2,0.1,0.5,0.2,0.7,0.3c0.3,0.2,0.5,0.5,0.7,0.8c0.1,0.1,0.1,0.2,0.2,0.3c0.2-0.4,0.4-0.7,0.6-1.1
			c-0.4-0.3-0.7-0.7-1.1-1c0.2-0.4,0.4-0.7,0.6-1.1c-0.2-0.1-0.4-0.3-0.7-0.4c-0.2,0.4-0.4,0.7-0.6,1.1c-0.3-0.1-0.6-0.2-1-0.3
			c-1.1-0.2-2.1,0.4-2.3,1.5c-0.1,0.5,0,1,0.2,1.5c0.2,0.4,0.5,0.8,0.8,1.2c0.1,0.2,0.3,0.4,0.4,0.7c0.2,0.5-0.2,1-0.7,1
			c-0.2,0-0.4-0.1-0.6-0.2c-0.6-0.3-1.1-0.8-1.4-1.5c-0.1-0.1-0.1-0.2-0.2-0.4c-0.2,0.5-0.3,0.9-0.4,1.3c0,0.1,0,0.2,0.1,0.3
			c0.4,0.3,0.8,0.7,1.1,1c0.1,0.1,0.2,0.1,0.3,0.2c-0.2,0.4-0.4,0.7-0.6,1.1c0.2,0.1,0.4,0.3,0.7,0.4
			C217.8,59.8,218,59.4,218.3,59.1z M181.4,53.5c0.3,0.2,0.6,0.3,0.9,0.5c0.8,0.5,1.6,1,2.4,1.5c0.6,0.3,1,0.8,1.3,1.4
			c0.1,0.2,0.3,0.4,0.4,0.7c0.3,0.5,0.7,1,0.5,1.7c0.9-0.5,1.8-1,2.7-1.5c-0.6-0.2-0.9-0.6-1.2-1.1c-0.3-0.5-0.5-0.9-0.8-1.4
			c-0.1-0.2-0.2-0.4-0.2-0.6c-0.1-1.1-0.1-2.2-0.1-3.3c0-0.3,0-0.7-0.1-1c-0.4,0.1-1.5,0.7-1.7,1c0.4,0.1,0.6,0.5,0.6,0.9
			c0,0.5,0.1,1,0.1,1.5c0,0.1,0,0.2,0,0.3c-0.9-0.6-1.7-1.2-2.5-1.7C182.9,52.7,182.1,53.1,181.4,53.5z"/>
		<path class="st28" d="M164.5,92.6c3.1-1,6.1-1.9,9.2-2.9c1.6,7.8,5.5,14,11.9,18.6c5.2,3.8,11.2,5.6,17.6,5.4
			c6.9-0.1,13.1-2.5,18.4-7c5.3-4.5,8.5-10.2,9.9-17c3.1,1,6.1,1.9,9.2,2.9c-3.2,16.2-18.2,31-38.6,30.8
			C182,123.2,167.6,108.4,164.5,92.6z M171.9,100C171.9,100,172,100,171.9,100c-0.1,0.2-0.2,0.3-0.4,0.4c-0.5,0.4-0.9,0.9-1.4,1.3
			c-0.6,0.7-0.6,1.5-0.3,2.4c2.3-0.4,4.6-0.7,6.9-1.1c-0.3-0.6-0.6-1.1-0.9-1.7c-0.2,0.6-0.6,0.8-1.1,0.9c-0.6,0.1-1.2,0.2-1.8,0.3
			c-0.4,0.1-0.8,0.1-1.3,0.2c0-0.2,0.1-0.2,0.2-0.3c0.7-0.7,1.4-1.3,2.1-2c0.3-0.3,0.6-0.6,1-0.7c-0.3-0.7-0.7-1.3-1-1.9
			c-0.1,0.1-0.1,0.1-0.1,0.1c-0.2,0.6-0.7,0.8-1.3,0.9c-0.7,0.1-1.5,0.3-2.2,0.5c-0.1,0-0.3,0-0.4,0.1c0,0,0,0,0-0.1
			c1.1-1,2.2-2,3.3-3c-0.3-0.7-0.7-1.3-1-2c-0.1,0.6-0.5,0.9-0.8,1.2c-0.9,0.8-1.8,1.7-2.6,2.5c-0.2,0.2-0.4,0.4-0.5,0.6
			c-0.4,0.7-0.4,1.4-0.1,2.1C169.5,100.5,170.7,100.3,171.9,100z M217.1,112.5C217.1,112.5,217.1,112.5,217.1,112.5
			c0.5,0.3,0.7,0.7,0.7,1.2c0.1,1,0.2,1.9,0.2,2.9c0,0.1,0,0.1,0,0.3c-0.1-0.2-0.2-0.2-0.3-0.3c-0.6-0.8-1.2-1.5-1.8-2.3
			c-0.2-0.3-0.4-0.6-0.7-1c-0.6,0.2-1.3,0.5-2,0.8c0.1,0.1,0.2,0.2,0.3,0.2c0.3,0.2,0.5,0.5,0.6,0.9c0.1,0.9,0.2,1.8,0.3,2.7
			c0,0.1,0,0.2,0,0.3c-0.9-1.2-1.8-2.4-2.7-3.6c-0.7,0.3-1.4,0.5-2.1,0.8c0.5,0.2,0.8,0.5,1.1,0.9c0.8,1,1.5,1.9,2.3,2.9
			c0.1,0.1,0.2,0.3,0.4,0.4c0.7,0.7,1.4,0.7,2.3,0.5c0-0.3-0.1-0.7-0.1-1c0-0.3-0.1-0.6-0.1-0.9c0-0.3-0.1-0.6-0.1-1
			c0-0.3-0.1-0.6-0.1-1c0.4,0.5,0.8,1,1.2,1.5c0.2,0.2,0.3,0.4,0.6,0.6c0.6,0.5,1.3,0.5,2.1,0.3c0.1-0.5-0.3-6.6-0.5-6.9
			C218.2,112,217.7,112.3,217.1,112.5z M178.6,106c-1.8,0-3.4,1.6-3.4,3.4c0,1.9,1.8,3.7,3.8,3.7c1.5,0,2.9-1.1,3.3-2.5
			c0.1-0.5,0.2-1,0-1.6c-0.4-1.3-1.3-2.2-2.5-2.7C179.4,106.2,179,106.1,178.6,106z M230.4,110.3c0.1,0,0.1,0,0.1-0.1
			c0.7-0.8,1.3-1.7,2-2.5c0.9-1.2,0.7-2.6-0.1-3.6c-0.9-1.1-2.3-1.6-3.6-1.3c-0.6,0.2-1.1,0.6-1.5,1c-0.6,0.7-1.2,1.4-1.7,2.1
			c-0.1,0.1-0.1,0.2-0.2,0.3c0.5-0.1,0.8,0.1,1.1,0.4c0.3,0.3,0.6,0.5,1,0.8c0.9,0.7,1.7,1.4,2.6,2
			C230.2,109.7,230.4,109.9,230.4,110.3z M201.6,122.4c0.3,0,0.5,0,0.7,0c0.9-0.1,1.8-0.1,2.7-0.2c1-0.1,1.8-0.6,2.3-1.6
			c0.3-0.6,0.4-1.3,0.3-2c-0.2-1.6-1.4-2.9-3.1-2.8c-1,0-2,0.1-3,0.1c-0.1,0-0.1,0-0.2,0c0.4,0.4,0.4,0.8,0.4,1.2c0,0.2,0,0.3,0,0.5
			c0.1,1.3,0.1,2.5,0.2,3.8C202,121.8,201.9,122.1,201.6,122.4z M188.1,116.1c0.3,0,0.5,0,0.7-0.1c0.7-0.1,1.2-0.6,1.3-1.3
			c0.1-0.7-0.2-1.4-0.9-1.8c-1-0.5-2-1-3-1.5c0,0,0,0-0.1,0c0.2,0.4,0,0.7-0.1,1c-0.7,1.3-1.3,2.6-2,3.9c-0.2,0.3-0.4,0.6-0.8,0.8
			c0.8,0.4,1.5,0.7,2.3,1.1c-0.2-0.5,0-0.9,0.2-1.3c0.1-0.2,0.2-0.5,0.3-0.7c0.1-0.2,0.2-0.3,0.3-0.5c0.1,0.3,0.1,0.6,0.1,0.9
			c0,0.5,0,1.1,0.1,1.6c0,0.3,0.1,0.6,0.4,0.8c0.5,0.4,1.1,0.6,1.8,0.9C188.2,118.6,188.1,117.3,188.1,116.1z M233.4,95.8
			c-0.5-0.2-0.9-0.4-1.3-0.5c-0.5,1.2-1,2.3-1.5,3.5c0.4-0.1,0.8-0.1,1.1,0.1c1.4,0.6,2.7,1.2,4.1,1.7c0.3,0.1,0.7,0.3,0.8,0.8
			c0.6-1.4,1.1-2.7,1.7-4c-0.4-0.3-0.8-0.6-1.2-0.9c0.3,1-0.1,1.7-0.6,2.4c-0.6-0.3-1.1-0.5-1.7-0.7c0.2-0.4,0.3-0.9,0.8-1.1
			c-0.4-0.2-0.8-0.3-1.2-0.5c-0.2,0.4-0.3,0.8-0.5,1.2c-0.5-0.2-0.9-0.4-1.4-0.6C232.6,96.4,232.8,96.1,233.4,95.8z M194.1,114.8
			c0.2,0.6,0.2,0.6,0.1,1.3c-0.2,1.1-0.5,2.2-0.7,3.3c-0.1,0.6-0.1,1.2-0.7,1.7c1.4,0.3,2.7,0.6,4.1,0.8c0.2-0.4,0.4-0.8,0.6-1.3
			c-0.9,0.3-1.6,0.2-2.3-0.2c0-0.1,0-0.2,0-0.4c0.3-1.2,0.5-2.4,0.8-3.6c0.1-0.4,0.2-0.9,0.6-1.2C195.7,115.1,194.9,115,194.1,114.8
			z M227,113.5c-0.5,0-0.8-0.4-1-0.7c-0.9-1.1-1.7-2.2-2.6-3.3c-0.3-0.3-0.5-0.6-0.4-1.2c-0.7,0.6-1.4,1.1-2.1,1.6
			c0.6,0,0.9,0.4,1.1,0.8c0.8,1.1,1.7,2.1,2.5,3.2c0.2,0.3,0.5,0.6,0.4,1.1C225.6,114.5,226.3,114,227,113.5z"/>
		<path class="st28" d="M202.5,73.8c8.5,0,17,0,25.5,0c0.2,0,0.4,0,0.5,0c0.6,0,1,0.6,0.7,1.1c-0.1,0.2-0.2,0.4-0.3,0.5
			c-2.6,3.2-5.2,6.5-7.7,9.7c-1.3,1.6-2.6,3.3-3.9,4.9c-0.2,0.3-0.4,0.5-0.8,0.6c-0.5,0.2-1,0.1-1.5-0.2c-1.1-0.8-2.2-1.6-3.2-2.4
			c-2.8-2.1-5.7-4.1-8.5-6.2c-0.6-0.4-1.3-0.4-1.8,0c-3.9,2.9-7.7,5.7-11.6,8.5c-0.3,0.2-0.6,0.4-0.9,0.4c-0.6,0-1-0.2-1.4-0.6
			c-0.7-0.9-1.4-1.8-2.1-2.7c-3.2-4-6.4-8-9.6-12.1c-0.1-0.2-0.2-0.3-0.3-0.5c-0.3-0.6,0.1-1.1,0.7-1.2c0.2,0,0.3,0,0.5,0
			C185.4,73.8,194,73.8,202.5,73.8z M190,80.9c-1.3,2.3-2.6,4.6-3.9,6.8c0.5,0.8,1.5,1.9,1.7,2.1c2.4-3.8,4.9-7.5,7.3-11.3
			c0-0.1,0.1-0.1,0.1-0.2c0,0,0,0,0,0c0,0,0,0-0.1-0.1c-1.2,0-2.5,0.1-3.8,0c0.3-0.7,0.5-1.3,0.8-1.9c0.3-0.6,0.5-1.2,0.8-1.9
			c-1.2,0-2.4,0-3.5,0c-0.2,0-0.3,0.1-0.3,0.3c-1,1.9-1.9,3.9-2.9,5.8c0,0.1-0.1,0.2-0.1,0.3C187.5,80.9,188.7,80.9,190,80.9z
			 M215,80.6c-1.3,2.2-2.5,4.4-3.7,6.6c0.8,0.6,1.5,1.1,2.2,1.7c2-3.6,4.1-7.2,6.1-10.9c-1.3,0-2.6,0-3.9,0c0.5-1.3,1-2.5,1.6-3.7
			c-0.2,0-0.3,0-0.4,0c-0.7,0-1.5,0-2.2,0c-0.3,0-0.4,0.1-0.6,0.3c-0.9,1.9-1.9,3.7-2.8,5.6c-0.1,0.1-0.1,0.3-0.2,0.5
			C212.4,80.6,213.7,80.6,215,80.6z M196.2,79.8c-0.1-0.1-0.1-0.2-0.2-0.2c-0.1,0-0.2,0-0.3,0c-0.1,0.1-0.2,0.2-0.2,0.3
			c-1.2,1.9-2.3,3.8-3.5,5.6c-0.3,0.5-0.6,0.9-0.9,1.4c-0.1,0.1-0.1,0.2-0.1,0.3c0,0.1,0,0.2,0.1,0.3c0.1,0,0.2,0,0.3,0
			c0.1,0,0.1-0.1,0.2-0.2c1.6-2.4,3.1-4.9,4.6-7.3C196.1,80,196.1,79.9,196.2,79.8z M220.6,79.6c-0.1-0.1-0.1-0.2-0.2-0.2
			c-0.1,0-0.2,0-0.3,0.1c-0.3,0.3-0.5,0.7-0.7,1c-1.2,2-2.4,4-3.6,5.9c-0.2,0.3-0.2,0.4,0,0.5c0.2,0.1,0.3,0,0.5-0.3
			c0.5-0.8,0.9-1.5,1.4-2.3c0.9-1.5,1.7-3.1,2.8-4.5C220.5,79.8,220.5,79.7,220.6,79.6z M209.8,79.4c0.1-0.1,0.2-0.1,0.2-0.2
			c0.7-1,1.3-2.1,2-3.1c0.1-0.2,0.2-0.3,0.3-0.5c0.1-0.2,0.1-0.4-0.1-0.4c-0.2-0.1-0.3,0-0.4,0.2c-0.1,0.2-0.2,0.4-0.3,0.6
			c-0.6,1-1.3,2-1.9,3c-0.1,0.1-0.1,0.2-0.1,0.3C209.5,79.3,209.6,79.4,209.8,79.4z M185.4,79c0.2,0,0.2-0.2,0.3-0.3
			c0.6-1.1,1.2-2.2,1.7-3.3c0-0.1,0.1-0.1,0.1-0.2c0-0.1-0.1-0.2-0.1-0.3c-0.1-0.1-0.2-0.1-0.3,0.1c-0.1,0.1-0.1,0.2-0.1,0.2
			c-0.6,1.1-1.1,2.1-1.7,3.2c0,0.1-0.1,0.2-0.1,0.3C185.1,78.8,185.3,79,185.4,79z"/>
		<path class="st28" d="M203.7,84.2c0.1,0,0.1,0,0.2,0c0.5-0.1,0.9,0.2,1.3,0.5c0.7,0.5,1.3,1,2,1.5c0.1,0.1,0.2,0.1,0.3,0.2
			c-0.3,0.1-0.6,0.1-0.9,0.1c-0.3,0-0.6,0-0.9,0c-0.3,0-0.6,0-0.9,0c-0.3,0-0.6,0-0.9,0c0,2.3,0,4.5,0,6.8c3.8,0.1,7.5,0.6,11.1,1.7
			c0.2-0.5,0.3-1,0.4-1.5c0.1-0.5,0.2-1,0.3-1.6c0.8,0.1,1.6-0.1,2.3-0.7c-0.2,1.5-0.6,3-0.9,4.4c1,0.5,2,0.9,3,1.4
			c1,0.5,1.9,1,2.9,1.6c2.5-3.6,4-7.7,4.4-12.2c-0.9,0-1.8,0-2.7,0c-0.9,0-1.8,0-2.7,0c0.1-0.1,0.1-0.2,0.1-0.3
			c0.5-0.6,0.9-1.1,1.4-1.7c0.1-0.2,0.3-0.2,0.5-0.2c1,0,2,0,3,0c0.1,0,0.3,0,0.5,0c0-0.2,0-0.3,0-0.5c-0.1-1.2-0.1-2.3-0.4-3.5
			c0-0.1,0-0.3,0.1-0.4c0.5-0.7,1-1.3,1.6-2c0,0,0,0,0.1,0c2,7.2,0.9,18.6-8.2,26.7c-9.1,8.1-22.2,9-32.2,2.6
			c-10.4-6.6-14.5-18.7-11.8-29.2c0.1,0.1,0.1,0.1,0.2,0.2c0.5,0.6,0.9,1.2,1.4,1.8c0.1,0.1,0.2,0.3,0.1,0.5c-0.1,1-0.2,2-0.3,2.9
			c0,0.3,0,0.5,0,0.8c0.2,0,0.3,0,0.5,0c0.9,0,1.7,0,2.6,0c0.4,0,0.6,0.1,0.8,0.4c0.4,0.5,0.8,1,1.2,1.5c0.1,0.1,0.1,0.1,0.2,0.3
			c-1.8,0-3.4,0-5.2,0c0.4,4.5,1.9,8.5,4.4,12.2c1.8-1.2,3.7-2.1,5.8-2.9c-0.4-1.4-0.7-2.8-0.9-4.3c0.7,0.5,1.5,0.7,2.3,0.6
			c0.2,1,0.4,2,0.7,3c1.9-0.5,3.7-1,5.6-1.3c1.9-0.3,3.8-0.4,5.7-0.5c0-2.3,0-4.5,0-6.8c-0.4-0.1-0.8,0-1.2,0c-0.4,0-0.9,0-1.3,0
			c-0.4,0-0.8,0-1.3,0c0.1-0.1,0.2-0.2,0.2-0.2c0.8-0.6,1.7-1.2,2.5-1.8c0.1-0.1,0.3-0.2,0.5-0.2c0.2,0,0.4,0,0.6,0
			c0-0.1,0.1-0.1,0.1-0.1c-0.1-0.5,0.1-0.8,0.5-1c0.2-0.1,0.3-0.2,0.5-0.4c0.4,0.3,0.7,0.5,1.1,0.8c0.1,0,0.1,0.2,0.1,0.2
			C203.7,83.9,203.7,84,203.7,84.2z M190.8,97.1c0,0.1,0.1,0.2,0.1,0.3c0.5,1.5,1.1,3,1.9,4.3c1,1.9,2.3,3.6,3.9,5
			c1.3,1.1,2.7,1.9,4.3,2.2c0.1,0,0.3,0,0.5,0.1c0-4.5,0-9,0-13.6C197.8,95.6,194.3,96.1,190.8,97.1z M203.7,95.5
			c0,4.6,0,9.1,0,13.6c0.1,0,0.2,0,0.3,0c1.1-0.2,2.1-0.6,3-1.2c1.3-0.9,2.5-2,3.4-3.2c1.7-2.2,2.8-4.6,3.7-7.2c0-0.1,0-0.2,0.1-0.3
			C210.8,96.1,207.3,95.6,203.7,95.5z M216.3,97.8c-1.3,3.8-3.1,7.2-5.9,10.1c4.4-1.5,8.1-4,11.1-7.5
			C219.8,99.3,218.1,98.5,216.3,97.8z M188.7,97.8c-1.8,0.7-3.5,1.5-5.1,2.5c3,3.5,6.6,6,10.9,7.5C191.8,105,190,101.6,188.7,97.8z"
			/>
		<path class="st28" d="M190.8,71.8c1,0.3,2,0.5,3,0.8c0,0,0,0,0,0c-0.1,0-0.3,0-0.4,0c-2.1,0-4.2,0-6.2,0c-0.3,0-0.5,0-0.7-0.2
			c-1.3-0.6-2.6-1.2-3.8-2c-0.1-0.1-0.2-0.1-0.3-0.2c-0.6,0.7-1,1.5-1.5,2.3c-0.8,0-1.6,0-2.5,0c1.6-3.2,3.7-6,6.4-8.3
			c4.4-3.9,9.5-6.1,15.4-6.6c12.9-1.2,22.7,6.7,26.6,15c-0.4,0-0.8,0-1.2,0c-0.4,0-0.8,0-1.2,0c-0.5-0.8-1-1.6-1.5-2.4
			c-0.1,0.1-0.2,0.1-0.3,0.2c-1.2,0.8-2.5,1.5-3.8,2c-0.2,0.1-0.3,0.1-0.5,0.1c-2.2,0-4.4,0-6.7,0c0,0-0.1,0-0.2-0.1
			c0.9-0.2,1.9-0.5,2.8-0.7c0-0.1,0-0.1,0-0.2c-0.9-2.7-2.1-5.3-3.9-7.5c-1-1.3-2.2-2.4-3.6-3.2c-0.9-0.5-1.8-0.9-2.8-1.1
			c-0.1,0-0.1,0-0.2,0c0,4.3,0,8.5,0,12.8c-0.7,0-1.5,0-2.2,0c0-4.3,0-8.5,0-12.8c-0.1,0-0.2,0-0.3,0c-2,0.4-3.6,1.4-5,2.8
			c-1.6,1.5-2.8,3.4-3.8,5.3c-0.6,1.1-1,2.3-1.5,3.5C190.9,71.5,190.8,71.6,190.8,71.8z M221.5,68.5c-1.5-1.8-3.2-3.3-5-4.6
			c-1.9-1.3-3.9-2.3-6-3c0.1,0.1,0.2,0.2,0.3,0.3c0.8,0.8,1.5,1.7,2.2,2.7c1.4,2.1,2.4,4.3,3.3,6.6c0,0.1,0.1,0.3,0.2,0.4
			C218.1,70.4,219.8,69.6,221.5,68.5z M194.6,61.1c-2.9,0.5-9.3,4.9-10.9,7.5c1.6,1,3.3,1.8,5.1,2.5C190,67.4,191.7,63.9,194.6,61.1
			z"/>
		<path class="st28" d="M212.3,56.2c-0.8-0.1-1.5-0.2-2.2-0.5c-0.3-0.1-0.6-0.4-0.7-0.7c-0.2-0.6-0.4-1.2-0.6-1.8
			c-0.1-0.4-0.2-0.7-0.4-1.1c0,0.1-0.1,0.3-0.1,0.4c-0.1,0.5-0.2,1.1-0.3,1.6c-0.1,0.4-0.1,0.8,0.2,1.3c-1-0.2-1.9-0.4-2.9-0.6
			c0.5-0.3,0.6-0.8,0.7-1.3c0.3-1.6,0.7-3.3,1-4.9c0.1-0.4,0.1-0.8-0.2-1.2c1,0.2,2,0.4,3,0.6c-0.5,0.3-0.6,0.7-0.7,1.2
			c-0.1,0.7-0.3,1.3-0.4,2c0.1-0.1,0.2-0.1,0.3-0.2c0.6-0.5,1.2-1,1.8-1.5c0.1-0.1,0.2-0.1,0.2-0.2c0.2-0.3,0.3-0.5,0.1-0.8
			c0-0.1-0.1-0.2-0.2-0.3c0.9,0.2,1.8,0.4,2.7,0.5c-1.1,0.9-2.1,1.7-3.1,2.5C211,52.8,211.6,54.5,212.3,56.2z"/>
		<path class="st28" d="M196.1,55.5c-0.8,0.1-1.4,0.2-2.2,0.4c0.5-0.9,0.2-1.7,0.1-2.5c-0.2-1.1-0.4-2.2-0.5-3.2
			c-0.1-0.7-0.3-1.3-0.8-1.7c0,0,0,0,0-0.1c0.4-0.1,0.9-0.2,1.3-0.2c0,0,0.1,0,0.1,0c0.3,0,0.6-0.2,0.9-0.1c0.3,0.1,0.4,0.4,0.7,0.6
			c1.1,1,2.2,2.1,3.3,3.1c0.1,0.1,0.2,0.2,0.4,0.3c0-0.3-0.1-0.6-0.1-0.8c-0.1-0.7-0.3-1.5-0.4-2.2c-0.1-0.6-0.2-1.1-0.8-1.5
			c0.8-0.1,1.4-0.2,2.1-0.4c-0.4,0.7-0.2,1.5-0.1,2.2c0.3,1.9,0.6,3.7,0.9,5.6c-0.4,0.1-0.7,0-1-0.1c-0.8-0.2-1.5-0.6-2.1-1.2
			c-0.9-0.8-1.7-1.7-2.6-2.5c-0.1-0.1-0.2-0.1-0.3-0.3c0.1,0.4,0.1,0.6,0.1,0.9c0.1,0.7,0.3,1.5,0.4,2.2
			C195.5,54.5,195.6,55,196.1,55.5z"/>
		<path class="st28" d="M218.3,59.1c-0.2,0.4-0.4,0.7-0.7,1.1c-0.2-0.1-0.4-0.2-0.7-0.4c0.2-0.4,0.4-0.7,0.6-1.1
			c-0.1-0.1-0.2-0.1-0.3-0.2c-0.4-0.3-0.8-0.7-1.1-1c-0.1-0.1-0.2-0.2-0.1-0.3c0.1-0.4,0.3-0.8,0.4-1.3c0.1,0.2,0.2,0.3,0.2,0.4
			c0.3,0.6,0.8,1.1,1.4,1.5c0.2,0.1,0.4,0.2,0.6,0.2c0.5,0,0.9-0.5,0.7-1c-0.1-0.2-0.2-0.5-0.4-0.7c-0.3-0.4-0.5-0.8-0.8-1.2
			c-0.3-0.5-0.4-1-0.2-1.5c0.2-1.1,1.2-1.7,2.3-1.5c0.3,0.1,0.6,0.2,1,0.3c0.2-0.3,0.4-0.7,0.6-1.1c0.2,0.1,0.4,0.2,0.7,0.4
			c-0.2,0.4-0.4,0.7-0.6,1.1c0.4,0.3,0.7,0.6,1.1,1c-0.2,0.4-0.4,0.7-0.6,1.1c-0.1-0.1-0.1-0.2-0.2-0.3c-0.2-0.3-0.5-0.5-0.7-0.8
			c-0.2-0.1-0.4-0.2-0.7-0.3c-0.3-0.1-0.5,0-0.6,0.2c-0.2,0.2-0.2,0.4,0,0.6c0.1,0.2,0.3,0.4,0.4,0.6c0.3,0.4,0.6,0.8,0.8,1.3
			c0.3,0.6,0.3,1.2,0.1,1.8c-0.4,1-1.4,1.5-2.5,1.3C218.8,59.2,218.5,59.1,218.3,59.1z"/>
		<path class="st28" d="M181.4,53.5c0.7-0.4,1.5-0.8,2.2-1.2c0.8,0.6,1.6,1.1,2.5,1.7c0-0.1,0-0.2,0-0.3c0-0.5-0.1-1-0.1-1.5
			c0-0.4-0.2-0.8-0.6-0.9c0.2-0.2,1.2-0.8,1.7-1c0,0.3,0,0.7,0.1,1c0.1,1.1,0.1,2.2,0.1,3.3c0,0.2,0.1,0.4,0.2,0.6
			c0.2,0.5,0.5,0.9,0.8,1.4c0.3,0.5,0.6,0.9,1.2,1.1c-0.9,0.5-1.7,1-2.7,1.5c0.2-0.7-0.2-1.2-0.5-1.7c-0.1-0.2-0.3-0.4-0.4-0.7
			c-0.3-0.6-0.7-1.1-1.3-1.4c-0.8-0.5-1.6-1-2.4-1.5C182,53.8,181.7,53.7,181.4,53.5z"/>
		<path class="st27" d="M171.9,100c-1.2,0.3-2.5,0.5-3.8,0.8c-0.3-0.7-0.3-1.4,0.1-2.1c0.2-0.2,0.3-0.5,0.5-0.6
			c0.9-0.8,1.8-1.7,2.6-2.5c0.3-0.3,0.7-0.7,0.8-1.2c0.4,0.7,0.7,1.4,1,2c-1.1,1-2.2,2-3.3,3c0,0,0,0,0,0.1c0.1,0,0.3,0,0.4-0.1
			c0.7-0.2,1.5-0.3,2.2-0.5c0.6-0.1,1-0.4,1.3-0.9c0,0,0.1-0.1,0.1-0.1c0.3,0.6,0.7,1.3,1,1.9c-0.4,0.1-0.7,0.4-1,0.7
			c-0.7,0.7-1.4,1.3-2.1,2c-0.1,0.1-0.2,0.2-0.2,0.3c0.4-0.1,0.8-0.1,1.3-0.2c0.6-0.1,1.2-0.2,1.8-0.3c0.5-0.1,0.9-0.3,1.1-0.9
			c0.3,0.6,0.6,1.1,0.9,1.7c-2.3,0.4-4.6,0.7-6.9,1.1c-0.3-0.9-0.3-1.7,0.3-2.4c0.4-0.5,0.9-0.9,1.4-1.3
			C171.7,100.3,171.8,100.2,171.9,100C172,100,171.9,100,171.9,100z"/>
		<path class="st27" d="M217.1,112.5c0.5-0.2,1.1-0.4,1.6-0.7c0.1,0.4,0.5,6.4,0.5,6.9c-0.7,0.2-1.4,0.2-2.1-0.3
			c-0.2-0.2-0.4-0.4-0.6-0.6c-0.4-0.5-0.8-1-1.2-1.5c-0.1,0.4,0,0.7,0.1,1c0,0.3,0.1,0.6,0.1,1c0,0.3,0.1,0.6,0.1,0.9
			c0,0.3,0.1,0.6,0.1,1c-0.9,0.2-1.7,0.1-2.3-0.5c-0.1-0.1-0.3-0.3-0.4-0.4c-0.8-1-1.5-1.9-2.3-2.9c-0.3-0.4-0.6-0.7-1.1-0.9
			c0.8-0.3,1.4-0.6,2.1-0.8c0.9,1.2,1.8,2.3,2.7,3.6c0-0.2,0-0.2,0-0.3c-0.1-0.9-0.2-1.8-0.3-2.7c0-0.4-0.2-0.7-0.6-0.9
			c-0.1-0.1-0.2-0.1-0.3-0.2c0.7-0.3,1.4-0.5,2-0.8c0.2,0.4,0.4,0.7,0.7,1c0.6,0.8,1.2,1.5,1.8,2.3c0.1,0.1,0.2,0.2,0.3,0.3
			c0-0.2,0-0.2,0-0.3c-0.1-1-0.2-1.9-0.2-2.9C217.8,113.2,217.7,112.7,217.1,112.5C217.1,112.5,217.1,112.5,217.1,112.5z"/>
		<path class="st27" d="M178.6,106c0.4,0.1,0.8,0.1,1.2,0.3c1.2,0.5,2.1,1.4,2.5,2.7c0.1,0.5,0.1,1,0,1.6c-0.4,1.4-1.8,2.6-3.3,2.5
			c-1.9,0-3.8-1.8-3.8-3.7C175.2,107.6,176.8,106.1,178.6,106z M178.2,111.8c0.4,0,0.8-0.1,1.1-0.4c0.6-0.5,1.1-1.1,1.4-1.9
			c0.1-0.3,0.1-0.6,0.1-0.9c-0.1-0.9-1.1-1.5-2-1.1c-1.1,0.4-1.7,1.3-2,2.4C176.5,110.9,177.3,111.8,178.2,111.8z"/>
		<path class="st27" d="M230.4,110.3c0-0.4-0.2-0.6-0.4-0.8c-0.9-0.7-1.7-1.4-2.6-2c-0.3-0.3-0.6-0.5-1-0.8
			c-0.3-0.2-0.6-0.4-1.1-0.4c0.1-0.1,0.1-0.2,0.2-0.3c0.6-0.7,1.1-1.4,1.7-2.1c0.4-0.5,0.9-0.9,1.5-1c1.3-0.4,2.7,0.1,3.6,1.3
			c0.8,1,1,2.4,0.1,3.6c-0.6,0.9-1.3,1.7-2,2.5C230.5,110.3,230.4,110.3,230.4,110.3z M230.9,107.9c0.7-0.6,0.9-1.2,0.6-1.9
			c-0.5-0.9-1.2-1.5-2.2-1.7c-0.8-0.2-1.4,0.2-1.7,1C228.7,106.2,229.8,107.1,230.9,107.9z"/>
		<path class="st27" d="M201.6,122.4c0.3-0.3,0.4-0.6,0.3-1c-0.1-1.3-0.1-2.5-0.2-3.8c0-0.2,0-0.3,0-0.5c0-0.4,0-0.9-0.4-1.2
			c0.1,0,0.2,0,0.2,0c1,0,2-0.1,3-0.1c1.7-0.1,2.9,1.2,3.1,2.8c0.1,0.7,0,1.4-0.3,2c-0.5,0.9-1.2,1.5-2.3,1.6
			c-0.9,0.1-1.8,0.1-2.7,0.2C202.1,122.4,201.9,122.4,201.6,122.4z M203.8,121.2c0.9,0.2,1.5,0,1.8-0.8c0.4-1,0.3-1.9-0.2-2.8
			c-0.3-0.5-1-1-1.8-0.6C203.6,118.4,203.7,119.8,203.8,121.2z"/>
		<path class="st27" d="M188.1,116.1c0.1,1.3,0.2,2.5,0.6,3.8c-0.7-0.3-1.3-0.5-1.8-0.9c-0.2-0.2-0.4-0.5-0.4-0.8
			c0-0.5-0.1-1-0.1-1.6c0-0.3,0-0.6-0.1-0.9c-0.1,0.2-0.2,0.3-0.3,0.5c-0.1,0.2-0.2,0.5-0.3,0.7c-0.2,0.4-0.4,0.8-0.2,1.3
			c-0.8-0.4-1.5-0.7-2.3-1.1c0.5-0.1,0.7-0.4,0.8-0.8c0.6-1.3,1.3-2.6,2-3.9c0.2-0.3,0.3-0.7,0.1-1c0.1,0,0.1,0,0.1,0
			c1,0.5,2,1,3,1.5c0.7,0.4,1,1.1,0.9,1.8c-0.1,0.7-0.6,1.2-1.3,1.3C188.6,116,188.3,116,188.1,116.1z M186.6,115.1
			c0.7,0.2,1.3-0.1,1.5-0.7c0.2-0.5,0-1-0.6-1.2C187.2,113.9,186.9,114.5,186.6,115.1z"/>
		<path class="st27" d="M233.4,95.8c-0.5,0.3-0.7,0.6-0.9,1.4c0.4,0.2,0.9,0.4,1.4,0.6c0.2-0.4,0.3-0.8,0.5-1.2
			c0.4,0.2,0.7,0.3,1.2,0.5c-0.5,0.2-0.6,0.7-0.8,1.1c0.6,0.2,1.1,0.5,1.7,0.7c0.5-0.7,0.9-1.4,0.6-2.4c0.4,0.3,0.8,0.6,1.2,0.9
			c-0.6,1.3-1.1,2.6-1.7,4c-0.2-0.5-0.5-0.6-0.8-0.8c-1.4-0.6-2.7-1.2-4.1-1.7c-0.3-0.1-0.7-0.2-1.1-0.1c0.5-1.2,1-2.4,1.5-3.5
			C232.5,95.4,232.9,95.6,233.4,95.8z"/>
		<path class="st27" d="M194.1,114.8c0.8,0.2,1.6,0.3,2.5,0.5c-0.5,0.3-0.5,0.7-0.6,1.2c-0.2,1.2-0.5,2.4-0.8,3.6c0,0.1,0,0.2,0,0.4
			c0.7,0.4,1.5,0.5,2.3,0.2c-0.2,0.5-0.4,0.9-0.6,1.3c-1.3-0.3-2.7-0.6-4.1-0.8c0.6-0.5,0.6-1.1,0.7-1.7c0.2-1.1,0.5-2.2,0.7-3.3
			C194.3,115.4,194.3,115.4,194.1,114.8z"/>
		<path class="st27" d="M227,113.5c-0.7,0.6-1.4,1.1-2.1,1.6c0.1-0.5-0.2-0.8-0.4-1.1c-0.8-1.1-1.7-2.1-2.5-3.2
			c-0.3-0.3-0.5-0.7-1.1-0.8c0.7-0.6,1.4-1.1,2.1-1.6c-0.1,0.5,0.2,0.9,0.4,1.2c0.9,1.1,1.7,2.2,2.6,3.3
			C226.2,113.1,226.4,113.5,227,113.5z"/>
		<path class="st27" d="M190,80.9c-1.3,0-2.6,0-3.9,0c0-0.1,0.1-0.2,0.1-0.3c1-1.9,1.9-3.9,2.9-5.8c0.1-0.1,0.1-0.3,0.3-0.3
			c1.1,0,2.3,0,3.5,0c-0.2,0.7-0.5,1.3-0.8,1.9c-0.2,0.6-0.5,1.2-0.8,1.9c1.3,0,2.5,0,3.8,0c0,0.1,0.1,0.1,0.1,0.1c0,0,0,0,0,0
			c0,0.1-0.1,0.1-0.1,0.2c-2.4,3.8-4.9,7.5-7.3,11.3c-0.3-0.2-1.2-1.3-1.7-2.1C187.4,85.4,188.7,83.2,190,80.9z"/>
		<path class="st27" d="M215,80.6c-1.3,0-2.6,0-3.9,0c0.1-0.2,0.1-0.3,0.2-0.5c0.9-1.9,1.9-3.7,2.8-5.6c0.1-0.3,0.3-0.3,0.6-0.3
			c0.7,0,1.5,0,2.2,0c0.1,0,0.2,0,0.4,0c-0.5,1.3-1,2.5-1.6,3.7c1.3,0,2.6,0,3.9,0c-2.1,3.7-4.1,7.3-6.1,10.9
			c-0.8-0.6-1.5-1.1-2.2-1.7C212.5,84.9,213.7,82.8,215,80.6z"/>
		<path class="st27" d="M196.2,79.8c-0.1,0.1-0.1,0.2-0.1,0.3c-1.5,2.4-2.9,4.9-4.6,7.3c0,0.1-0.1,0.2-0.2,0.2c-0.1,0-0.2,0-0.3,0
			c-0.1,0-0.1-0.2-0.1-0.3c0-0.1,0.1-0.2,0.1-0.3c0.3-0.5,0.6-0.9,0.9-1.4c1.2-1.9,2.3-3.8,3.5-5.6c0.1-0.1,0.1-0.2,0.2-0.3
			c0.1-0.1,0.2-0.1,0.3,0C196.1,79.7,196.1,79.8,196.2,79.8z"/>
		<path class="st27" d="M220.6,79.6c-0.1,0.1-0.1,0.2-0.1,0.2c-1.1,1.4-1.9,3-2.8,4.5c-0.5,0.8-0.9,1.5-1.4,2.3
			c-0.2,0.3-0.3,0.4-0.5,0.3c-0.2-0.1-0.2-0.2,0-0.5c1.2-2,2.4-4,3.6-5.9c0.2-0.4,0.5-0.7,0.7-1c0.1-0.1,0.2-0.1,0.3-0.1
			C220.4,79.4,220.5,79.5,220.6,79.6z"/>
		<path class="st27" d="M209.8,79.4c-0.2,0-0.4-0.1-0.3-0.3c0-0.1,0.1-0.2,0.1-0.3c0.6-1,1.3-2,1.9-3c0.1-0.2,0.2-0.4,0.3-0.6
			c0.1-0.2,0.2-0.3,0.4-0.2c0.1,0.1,0.2,0.2,0.1,0.4c-0.1,0.2-0.2,0.3-0.3,0.5c-0.7,1.1-1.3,2.1-2,3.1
			C210,79.3,209.9,79.4,209.8,79.4z"/>
		<path class="st27" d="M185.4,79c-0.2,0-0.3-0.1-0.3-0.3c0-0.1,0.1-0.2,0.1-0.3c0.6-1.1,1.1-2.1,1.7-3.2c0-0.1,0.1-0.2,0.1-0.2
			c0.1-0.1,0.2-0.1,0.3-0.1c0.1,0.1,0.1,0.2,0.1,0.3c0,0.1-0.1,0.1-0.1,0.2c-0.6,1.1-1.2,2.2-1.7,3.3C185.7,78.8,185.6,79,185.4,79z
			"/>
		<path class="st27" d="M190.8,97.1c3.5-1,7-1.6,10.7-1.6c0,4.5,0,9,0,13.6c-0.2,0-0.3,0-0.5-0.1c-1.7-0.3-3.1-1.1-4.3-2.2
			c-1.6-1.4-2.9-3.2-3.9-5c-0.8-1.4-1.4-2.8-1.9-4.3C190.8,97.3,190.8,97.3,190.8,97.1z"/>
		<path class="st27" d="M203.7,95.5c3.6,0.1,7.1,0.6,10.5,1.6c0,0.1,0,0.2-0.1,0.3c-0.9,2.6-2,5-3.7,7.2c-1,1.3-2.1,2.4-3.4,3.2
			c-0.9,0.6-1.9,1-3,1.2c-0.1,0-0.2,0-0.3,0C203.7,104.6,203.7,100.1,203.7,95.5z"/>
		<path class="st27" d="M216.3,97.8c1.8,0.7,3.5,1.5,5.2,2.6c-3,3.5-6.7,6.1-11.1,7.5C213.2,105,215,101.6,216.3,97.8z"/>
		<path class="st27" d="M188.7,97.8c1.3,3.7,3.1,7.2,5.8,10c-4.3-1.5-7.9-4-10.9-7.5C185.2,99.3,186.9,98.5,188.7,97.8z"/>
		<path class="st27" d="M221.5,68.5c-1.6,1.1-3.4,1.9-5.2,2.6c-0.1-0.2-0.1-0.3-0.2-0.4c-0.8-2.3-1.9-4.6-3.3-6.6
			c-0.7-1-1.4-1.9-2.2-2.7c-0.1-0.1-0.2-0.2-0.3-0.3c2.2,0.7,4.2,1.7,6,3C218.3,65.2,220,66.7,221.5,68.5z"/>
		<path class="st27" d="M194.6,61.1c-2.8,2.9-4.6,6.3-5.9,10c-1.8-0.7-3.5-1.5-5.1-2.5C185.3,66,191.6,61.6,194.6,61.1z"/>
		<path class="st28" d="M178.2,111.8c-0.9,0-1.7-0.9-1.5-1.8c0.3-1.1,0.9-1.9,2-2.4c0.9-0.4,1.9,0.1,2,1.1c0,0.3,0,0.6-0.1,0.9
			c-0.2,0.8-0.7,1.4-1.4,1.9C179,111.6,178.6,111.8,178.2,111.8z"/>
		<path class="st28" d="M230.9,107.9c-1.1-0.9-2.2-1.8-3.3-2.6c0.2-0.8,0.9-1.2,1.7-1c1,0.3,1.7,0.8,2.2,1.7
			C231.8,106.8,231.7,107.4,230.9,107.9z"/>
		<path class="st28" d="M203.8,121.2c-0.1-1.4-0.2-2.8-0.2-4.2c0.9-0.4,1.6,0.1,1.8,0.6c0.5,0.9,0.5,1.9,0.2,2.8
			C205.3,121.2,204.6,121.4,203.8,121.2z"/>
		<path class="st28" d="M186.6,115.1c0.3-0.6,0.6-1.3,0.9-1.9c0.6,0.2,0.8,0.7,0.6,1.2C187.9,115.1,187.3,115.4,186.6,115.1z"/>
	</g>
	<polyline class="st32" points="373.1,1044.2 275.2,1044.2 220.8,989.8 	"/>
	<rect x="141.6" y="857.8" class="st9" width="195" height="121.8"/>
	<text transform="matrix(1 0 0 1 141.5879 867.595)"><tspan x="0" y="0" class="st10 st29 st30">AQUI EU QUERIA DEIXAR ESSES </tspan><tspan x="0" y="15.6" class="st10 st29 st30">DESENHOS COMO UMA IMAGEM </tspan><tspan x="0" y="31.2" class="st10 st29 st30">DE FUNDO, E O TEXTO DO SITE </tspan><tspan x="0" y="46.8" class="st10 st29 st30">ENCIMA MESMO, SE NO DER, </tspan><tspan x="0" y="62.4" class="st10 st29 st30">EU FAO TUDO EM UMA </tspan><tspan x="0" y="78" class="st10 st29 st30">IMAGEM S, O TEXTO E OS </tspan><tspan x="0" y="93.6" class="st10 st29 st30">DESENHOS</tspan></text>
</g>
</svg>
